<svg height='100px' width='100px'  fill="#FFFFFF" xmlns="http://www.w3.org/2000/svg" data-name="Layer 1" viewBox="0 0 100 100" x="0px" y="0px"><title>A</title><path d="M89.04321,21.00391a19.53169,19.53169,0,0,0,5.38428-7.79944c.8147-2.458.92816-5.13318-.785-6.84693-1.71338-1.71344-4.38788-1.59973-6.8451-.78454a19.5251,19.5251,0,0,0-7.797,5.38629C63.48676,28.27716,47.78094,44.31262,30.16925,59.23749L40.78192,69.85205C55.70129,52.23431,71.73126,36.52307,89.04321,21.00391Z"></path><path d="M90.16943,41.39917a8.83781,8.83781,0,0,0-5.05908,1.595c-6.66919,4.64533-13.92773,6.85828-20.10278,6.33862C57.31006,57.145,50.33691,64.75848,43.835,72.43652l-2.12109,2.50464a21.1301,21.1301,0,0,1-5.89356,10.66431,38.80939,38.80939,0,0,1-5.7644,4.708,44.30912,44.30912,0,0,0,16.75073,4.57641A45.00979,45.00979,0,0,0,95,49.99567c0-1.486-.07568-2.96326-.22107-4.42133A4.6382,4.6382,0,0,0,90.16943,41.39917ZM65.87427,79.46252A7.73327,7.73327,0,1,1,65.87415,68.526,7.73328,7.73328,0,0,1,65.87427,79.46252Zm17.67041-12.602a6.02044,6.02044,0,1,1-.00025-8.5141A6.02053,6.02053,0,0,1,83.54468,66.86047Z"></path><path d="M58.60059,9.83038a4.63772,4.63772,0,0,0-4.175-4.60937C52.96729,5.07544,51.49048,5,50.00427,5A45.00942,45.00942,0,0,0,5.11011,53.19342,44.33123,44.33123,0,0,0,9.924,70.42621a23.72514,23.72514,0,0,1,4.47839-6.20648A21.17338,21.17338,0,0,1,25.0365,58.34338L27.583,56.18555C35.25586,49.68323,42.8634,42.711,50.66846,35.01575c-.5271-6.18006,1.68628-13.44861,6.3374-20.12616A8.83892,8.83892,0,0,0,58.60059,9.83038ZM31.47388,45.06213a7.73327,7.73327,0,1,1,0-10.93646A7.73328,7.73328,0,0,1,31.47388,45.06213ZM41.65332,24.96936a6.02027,6.02027,0,1,1,.00024-8.514A6.02,6.02,0,0,1,41.65332,24.96936Z"></path><path d="M38.00244,72.78394,27.262,62.04169a16.82166,16.82166,0,0,0-10.03265,5.008C8.51971,75.74915,12.36121,87.64758,5,95c5.92529-.39874,19.28375-3.52545,27.99335-12.22473A16.78064,16.78064,0,0,0,38.00244,72.78394Z"></path></svg>