<svg height='100px' width='100px'  fill="#FFFFFF" xmlns="http://www.w3.org/2000/svg" xmlns:xlink="http://www.w3.org/1999/xlink" version="1.1" x="0px" y="0px" viewBox="0 0 100 100" enable-background="new 0 0 100 100" xml:space="preserve"><g><path d="M60.9729538,79.7536469c-0.029129-0.2287369-0.4104118-0.344101-0.4521599-0.0611877   c-0.4411812,2.9943848,0.2575989,5.8607864,0.353653,8.8367538c0.0061378,0.1889648,0.2879562,0.1893082,0.2938919,0   c0.0455704-1.4714432-0.0809784-2.8816223-0.1779861-4.3473969C60.8927269,82.7077866,61.1590576,81.2147217,60.9729538,79.7536469   z"></path><path d="M82.7040558,31.3281574c-0.5274048-1.2656879-1.6842804-1.7251492-2.7187729-1.282196   c-0.1172714-0.0777721-0.2723999-0.0953732-0.3842163,0.0331535c-0.6566849,0.7548561-1.2961121,1.4875393-1.9145279,2.2182446   c-0.015625-0.0145302-0.024559-0.0332909-0.049324-0.041069c-0.0038223-0.0012283-0.0061417-0.0032043-0.009758-0.0045013   c-0.0541611,0.0869141-0.1105118,0.1724625-0.1780548,0.2498894c0.0166473,0.0067558,0.0327454,0.0158272,0.0498734,0.0209465   c-1.7870941,2.1266251-3.3927231,4.2535896-4.7082825,6.8794479c-1.5953903,3.1846504-3.5561752,6.0684509-7.3853683,5.8819389   c-0.1646805-0.0794106-0.3411713-0.1227951-0.5235214-0.1453094c-0.0020447-0.0079803,0.005661-0.016098,0.002182-0.0235367   c-0.3189926-0.6824722-1.0281448-1.1935768-1.6922684-1.5114822c-0.5188789-0.2483902-1.4202042-0.641613-1.9624863-0.3264351   c-0.0989189,0.057579-0.0802956,0.179966,0,0.241024c0.2554169,0.1944237,0.5011444,0.1648865,0.8180962,0.2329712   c0.3704338,0.0796814,0.7294769,0.2056122,1.068737,0.3743896c0.4746742,0.236042,0.8565025,0.5752335,1.2536087,0.9043961   c-0.0415421-0.0066872-0.0703354,0.0577812-0.0276947,0.0773621c0.1236801,0.0567589,0.2243042,0.1287994,0.3461456,0.1824875   c0.0040283,0.0030708,0.007576,0.0064125,0.0116653,0.0094833c-0.0001984-0.0011597-0.000267-0.002388-0.000473-0.0036163   c0.0115967,0.0049095,0.020462,0.0127563,0.0325394,0.017189c0.0061417,0.0022545,0.008049-0.0059319,0.013916-0.0047035   c0.5657501,0.6587982,1.3481674,1.1196251,1.9180756,1.7947311c0.3413086,0.4044113,0.7895813,1.3021851,1.3218994,1.5862541   c-0.0014267,0.006073-0.008049,0.012146,0,0.0122108c0.007988,0.0001373,0.0096207-0.0032043,0.017128-0.0034103   c0.0739517,0.0375214,0.1494675,0.0644684,0.2266235,0.0749741c0.0307693,0.0041618,0.0637894-0.0326767,0.0342484-0.0587349   c-0.0424347-0.0373878-0.1026001-0.0384789-0.1636581-0.0355453c0.4022217-0.1133804-0.4234467-0.8629837-0.5198364-0.9904175   c-0.2869339-0.3792381-0.5624084-0.7665901-0.84095-1.1516914c-0.2142105-0.2961464-0.4763794-0.6104355-0.775116-0.8716507   c2.5766678,0.3801231,4.5770187-1.1001167,6.0588989-3.3702774c1.2045593-1.8453522,1.9928436-3.9256554,3.1617966-5.7938652   c1.3107147-2.0948334,3.250824-3.6609612,4.6440811-5.6720219c1.4326248-0.1948376,2.4974747,0.6749687,2.2598572,2.3986874   c-0.1564941,1.1350441-0.9297028,2.041008-1.5244446,2.9821053c-1.1522369,1.8232498-2.1225967,3.7542191-3.3720474,5.5179825   c-1.1759109,1.6602707-2.6985855,3.081501-3.7423553,4.8352356c-0.7439346,1.2497902-1.2791901,3.1721649-2.6749039,3.8363571   c-0.1034927,0.0055923-0.1994095,0.0479584-0.2762909,0.1218414c-0.0244293,0.0079803-0.043869,0.023262-0.06884,0.030426   c-0.1915588,0.0551224-0.2120285,0.2981911-0.0918198,0.4093895c-0.1869965,1.8416672-0.9902878,3.3667984-1.4756012,5.1203957   c-0.0570984,0.2065697-0.0967407,0.4165497-0.1428528,0.6251678c-0.2133942,0.2850227-0.3876953,0.5969276-0.7303696,0.7676811   c-0.4688721,0.233654-1.0461502,0.1642723-1.5385666,0.0702667c-0.9088287-0.1736183-1.8081055-0.5184059-2.609211-0.9728203   c-0.0768852-0.0435905-0.1447639,0.0729294-0.0691757,0.1184998c1.0366707,0.6244202,2.1066399,1.4523392,3.3745079,1.4897919   c0.4309464,0.0127563,0.9419174-0.1199989,1.3545761-0.3711853c-0.1573792,0.9262238-0.2925949,1.8573608-0.5571518,2.7661858   c-0.456192,1.5673599-1.1283646,3.0645866-1.5522156,4.6421776c-0.3670883,1.3663788-0.5523071,2.7742386-0.9029617,4.1460724   c-0.7279053,2.847641-1.8574944,5.8290024-3.7893486,8.1010666c-2.1588936,2.5390167-6.5776482,2.0367126-9.5935211,2.2405548   c-0.0627632,0.0042953-0.0632401,0.0942841,0,0.0979691c2.0558815,0.1191788,4.104805,0.0348587,6.160614-0.048027   c1.1427574-0.046051,2.1861153-0.2055511,3.1411285-0.8805923c2.0300255-1.4345932,3.1897011-4.5355377,3.9970818-6.7738419   c0.5890808-1.6330566,1.0080872-3.3107224,1.3517151-5.0103607c0.39431-1.9501343,1.1246109-3.7500572,1.7502518-5.6311569   c0.5641861-1.6964302,0.6899796-3.4454575,1.1478043-5.159008c0.5014191-1.8767357,1.3783875-3.4417725,1.5057526-5.4135399   c1.4370575-0.5458298,2.0943604-2.6465302,2.8041916-3.8286476c0.9538498-1.5883675,2.3185959-2.8743172,3.4455948-4.3337479   c1.1227646-1.4539757,2.037117-3.0556488,2.9586334-4.6406059C81.5235062,36.098175,83.7407303,33.8164177,82.7040558,31.3281574z"></path><path d="M67.0333557,33.7484016c-0.875267-0.6094093-1.8331451-1.3869133-2.9637527-1.1352501   c-0.0562134,0.0124855-0.0606461,0.1090164,0,0.1180191c0.6230545,0.0931892,1.1663589,0.22929,1.7086411,0.5597458   c0.408432,0.2489357,0.7498093,0.4788399,1.232872,0.5396233C67.0587311,33.8366089,67.0648041,33.7703705,67.0333557,33.7484016z"></path><path d="M71.534317,22.84799c0.1558762-0.1207504,0.317421-0.2398624,0.4620514-0.374052   c0.1141281-0.1060123,0.2815475-0.2190533,0.2689896-0.3881035c-0.003952-0.0532799-0.0427704-0.1016483-0.1004181-0.1004887   c-0.1726685,0.003685-0.2638779,0.166048-0.3707733,0.2863197c-0.1315308,0.1478329-0.2545319,0.3016701-0.391449,0.4448643   C71.3173752,22.8056927,71.442215,22.9193478,71.534317,22.84799z"></path><path d="M74.3728867,44.1698418c0.0820007,0.0319939,0.1407318-0.1058121,0.0603027-0.1431961   c-0.3778687-0.1758003-0.7646103-0.3171539-1.1177139-0.5413933c-0.1793518-0.1138611-0.367981-0.2339935-0.5018311-0.4025688   c-0.1337814-0.1682968-0.1212921-0.3007126-0.3375549-0.3601341c-0.0641937-0.0176659-0.1323471,0.0217628-0.1506271,0.0855484   c-0.00737,0.0259933-0.014801,0.051918-0.0222397,0.077774c-0.018486,0.0646706-0.0016403,0.1531525,0.0523224,0.1979713   c0.3016052,0.2509842,0.5076294,0.5136299,0.8841324,0.6708794C73.610321,43.9094429,73.9986267,44.0236435,74.3728867,44.1698418z   "></path><path d="M38.6446533,77.5582581c0.591671,0.4005203,1.248497,0.6963196,1.9844551,0.9277954   c1.2677994,0.398674,2.7642097,0.864212,4.094841,0.9402771c0.0953064,0.005455,0.1157036-0.1223907,0.0457764-0.1687775   c-0.9151039-0.6074295-2.2013931-0.7365723-3.2515068-1.0108871c-1.0970459-0.2866592-2.2316132-0.6412659-3.1935883-1.2614594   c-0.1457863-0.2447052-0.3087616-0.4956131-0.4874306-0.75103c0.371254,0.353653,0.7556038,0.6978226,1.1600838,1.0277328   c0.0216255,0.017601,0.0513687-0.0103683,0.0312424-0.031105c-3.2577133-3.3658447-5.4346161-7.4859314-7.614727-11.5921021   c-1.0137501-1.9095459-2.4169006-3.617981-3.2719727-5.6025047c-0.5315018-1.2337608-0.8170719-2.5596848-1.4013081-3.7406425   c0.0366344-0.0555305,0.0484352-0.1291428-0.0088005-0.198658c-0.1546555-0.187809-0.2914371-0.3825798-0.434494-0.5748901   c-0.0455704-0.0669937-0.0990562-0.1303024-0.1479702-0.1957932c-1.7334709-2.4065323-2.6861649-5.1244202-4.3488941-7.5943985   c-1.1019592-1.63694-3.7624741-3.1211357-4.1958771-5.0974731c-0.4535961-2.0683632,2.2377548-2.3398819,3.6255569-2.2647705   c1.46455,0.0792732,2.5252361,0.5094681,3.6703777,1.3902588c1.168951,0.8991394,2.3363342,1.8984261,3.2024555,3.1036034   c1.5966244,2.2218628,0.5674553,4.4553871-1.2449474,6.1591835c-0.0417519,0.0392265,0.0137806,0.1147461,0.0622845,0.0807724   c1.1575584-0.809227,2.3413143-1.9397011,2.6508293-3.3650932c0.0027962,0.01194,0.0002728,0.0232658,0.0097542,0.0357475   c0.6698532,0.8823586,1.5133953,1.5684509,2.1483192,2.5000648c0.4273319,0.6270103,0.7481022,1.3185577,1.1993084,1.9285126   c0.3881073,0.5246124,0.858551,0.9913063,1.2957726,1.4737587c0.3359184,0.3707771,1.3187637,1.1743393,1.3304977,1.7007256   c0.0020485,0.0887566,0.0880051,0.1062889,0.1552696,0.0776367c0.005867,0.0306282,0.0064812,0.0613976,0.0231934,0.0912094   c1.215889,2.1721268,0.0216942,4.910141-0.2368584,7.2137299c-0.0046387,0.0403862,0.0554619,0.0435257,0.0672646,0.00914   c0.7618141-2.2058258,1.8333473-4.8015327,0.8558197-7.0899086c0.4917336-0.0111885,0.978756-0.0265388,1.4678268-0.1066284   c0.5272713,0.186718,1.02705,0.4593277,1.5665359,0.8865204c0.5577011,0.4415894,1.0519524,0.822052,1.7878456,0.8099785   c0.0770187-0.001297,0.1140633-0.1122932,0.0407944-0.150631c-0.5057831-0.2646255-0.9793663-0.5006676-1.4122238-0.8802452   c-0.3596573-0.3153114-0.6765404-0.64011-1.0963669-0.8799706c-0.3683891-0.2105255-0.7538986-0.3085594-1.1467781-0.362999   c-0.0665817-0.1171341-0.1762123-0.2023392-0.194973-0.3091736c-0.041954-0.239521,0.1417618-0.3797798,0.3175659-0.5303421   c0.5396881-0.4621239,1.2511559-0.7700005,1.8894234-1.0664177c0.647068-0.3006439,1.3034782-0.5752335,1.9387474-0.9013901   c0.2322197-0.1193199,0.6686935-0.2515297,0.7309761-0.5460358c0.0112572-0.0536194-0.0262642-0.1292076-0.0920982-0.1208839   c-1.1209908,0.1411438-2.3731728,0.7465973-3.4301033,1.3446159c-0.3301888-3.0284958,1.3364983-6.2359314,1.5516663-9.2821617   c0.2326965-3.293396,0.0572357-6.5428543-0.5909233-9.7773743c-0.7023277-3.5047398-0.8499565-7.0652142-1.5035019-10.5839386   c-0.3259583-1.7547569-0.5186119-3.5188618-0.7941513-5.279417c-0.2379532-1.5203533-0.8469543-2.9567957-0.9949226-4.4853354   c0.1417618-0.7726612,0.3520164-1.5212402,0.8032227-2.2005072c1.4299622-2.152276,3.4944382-0.7416897,4.3982201,1.1082354   c0.5710678,1.1686096,0.8859062,2.4340925,1.1168289,3.7235212c-0.0013618,0.0012951-0.0040245,0.0002041-0.0052528,0.0017052   c-0.2242393,0.2555523-0.2084122,0.5422134-0.341713,0.8494091c-0.1442184,0.3325043-0.380394,0.5835533-0.6877289,0.7715683   c-0.5850525,0.3580189-1.3583984,0.4713326-2.0289307,0.5060577c-0.1379433,0.0071621-0.1393738,0.2116184,0,0.2155075   c0.8373985,0.0231934,1.7278786,0.1022606,2.4790497-0.3476505c0.2805862-0.1679573,0.579937-0.4806099,0.7753868-0.8335133   c0.1618881,1.0892696,0.2979202,2.1811333,0.5025101,3.2344513c0.2623749,1.3506908,0.6301498,2.6738873,1.0008583,3.99613   c-0.0435257,0.0678101-0.0779762,0.1446934-0.1380768,0.2299004c-0.1655731,0.2341995-0.4208527,0.4100723-0.6711502,0.5411224   c-0.5105591,0.2674217-1.1417313,0.4644432-1.7198296,0.4834747c-0.1414871,0.0047073-0.1423073,0.2181015,0,0.2204208   c0.7178116,0.011528,1.4099731-0.0554638,2.0711632-0.354063c0.1651611-0.0746326,0.4330597-0.2412262,0.6425629-0.4433632   c0.3721428,1.3315201,0.7350731,2.6652241,0.9830551,4.0282612c0.5173111,2.8426628,0.9915771,5.5452042,1.871685,8.3033409   c-0.0596237,0.0382729-0.1192474,0.0764732-0.1789398,0.1147461c-0.0669937,0.0337677-0.1133156,0.1188393-0.1105194,0.1928596   c0.0325432,0.8664627,1.4603882,1.1103477,2.1183701,1.1603546c0.9473076,0.0720406,2.3235092-0.5454178,2.0627747-1.7253532   c-0.0103035-0.0463905-0.052803-0.0738831-0.1000137-0.0854797c0.4557114-1.3208771,0.2449112-2.8265648,0.4334717-4.2215958   c0.3919258-2.8992882,0.7854881-5.7733326,1.4164543-8.6325741c0.5443268-2.4667015,1.042675-4.9470482,1.2956352-7.4628677   c0.2580757-2.5682831-0.0782471-5.0867643,0.7737541-7.5141716c0.4806099-0.3422604,0.9284058-0.8663273,1.410244-1.0793791   c2.2461472-0.9926023,2.2099228,1.0523634,2.2273865,2.0476952c0.0297432,1.6905622-0.0238075,3.3880148-0.0146675,5.0800772   c0.002594,0.4804068,0.0105743,0.9626541,0.0161705,1.4440155c-0.9069862,0.0376568-1.6670952-0.2196007-2.4082375-0.7469425   c-0.0221062-0.0157585-0.0443459,0.017601-0.0277672,0.0360203c0.6102295,0.6781769,1.5331116,1.0409031,2.4397545,1.0479298   c0.0016365,0.1282539,0.002594,0.2563705,0.0042992,0.3846931c-1.02528,0.3884449-2.1736984,0.3162003-3.1630249-0.1552696   c-0.0475502-0.0225811-0.0824089,0.0390224-0.0407944,0.0697899c0.9606743,0.7100334,2.0898514,0.8421078,3.2080498,0.4642372   c0.0442734,3.1218891,0.1083984,6.2557831-0.0182152,9.3654594c-0.1258659,3.0933723-1.0385857,5.9290771-1.6488113,8.9259186   c-0.2307205,1.1332054-0.5631599,2.7653008-0.0148735,3.9180183c-0.9996986-0.1234131-2.0605888-0.0420952-3.1304169,0.0916176   c-0.154995,0.0193748-0.1596336,0.2299004,0,0.2448425c1.1448021,0.1071053,2.3572769-0.1109962,3.4738388,0.1774406   c0.0637169,0.0714951,0.1144028,0.1509705,0.190197,0.2150307c0.0833626,0.0704002,0.2193947,0.0154152,0.2374725-0.0741577   c0.1077881,0.0431175,0.2164612,0.0820694,0.3217964,0.1383514c0.6954346,0.3715248,1.2192268,1.0372849,2.0449638,1.0682602   c0.1068993,0.0039558,0.14217-0.1251183,0.0813866-0.196476c-0.475563-0.557972-1.0083618-0.9356384-1.5753365-1.2036057   c1.028347-0.6490479,1.7344933-2.1121635,2.2619705-3.1044235c1.2656898-2.3812943,2.1842728-4.9491653,3.2216988-7.4332638   c1.1295166-2.7039719,2.047966-5.4814854,2.879158-8.2899704c0.7504196-2.5355358,1.2491074-6.2394781,4.2636871-6.7572002   c0.0047073,0.0008183,0.0061417,0.0055256,0.0109177,0.0061398c2.3600693,0.3094463,1.7694931,2.214016,1.5617599,3.7824631   c-0.1600418,1.2081776-0.3128586,2.404213-0.6653519,3.5760288c-0.0956421,0.3181801-0.1908112,0.6370392-0.2861786,0.955492   c-0.003479,0.0017738-0.0068207,0.0038204-0.0103683,0.0054569c-0.2679062,0.1258659-0.5452194,0.2227383-0.8331757,0.2914371   c-0.4962311,0.1181564-1.4545212,0.3193378-1.6930847-0.3182468c-0.075386-0.2013855-0.3743896-0.1255264-0.3258896,0.0898457   c0.1689148,0.7493286,0.9654541,0.8639393,1.6222076,0.8278503c0.2313309-0.0126896,0.6385422-0.0631714,1.0231628-0.1714363   c-0.6605759,2.2126503-1.3152847,4.4284382-1.9879303,6.6367912c-0.2304535,0.7565613-0.4906387,1.5086193-0.7732086,2.2548122   c-0.2573242-0.429718-1.0344238-0.7400513-1.4526138-0.9502392c-0.5516968-0.2773151-1.1484146-0.4945278-1.7660141-0.3393269   c-0.0580521,0.0145321-0.0485687,0.0900517,0,0.1086063c0.6386795,0.2439556,1.2755814,0.4509373,1.8656845,0.8057499   c0.3840103,0.2309227,0.7507629,0.6878624,1.204361,0.7405281c-0.837059,2.1476364-1.8523788,4.246563-2.9305344,6.2559891   c-0.9417725,1.7553711-1.8866272,3.3964729-1.1656723,5.3946381c0.030426,0.0843887,0.1450348,0.0499382,0.1322098-0.0364304   c-0.3176346-2.1326942,1.2227097-4.1434822,2.1494751-5.9314613c0.839859-1.6205025,1.5660629-3.296669,2.2799835-4.9754295   c1.2731934-2.9931583,1.8781052-6.1526356,2.9305344-9.2163315c0.8523407-2.4815063,1.6009216-5.0631599,1.6759644-7.7130318   c0.0390854-1.3814573-0.4741974-2.138155-1.5149002-2.4749575c0.0146713-0.1905394-0.0941391-0.3928118-0.343895-0.404068   c-4.9881821-0.2262182-5.4775314,7.0129576-6.5843277,10.3946276c-1.0444565,3.1908588-2.3720856,6.270792-3.6372261,9.3779449   c-0.6997337,1.7186699-1.8363495,5.2688446-3.4407501,6.4713593c-0.2736969-0.1047859-0.5537415-0.1881523-0.841835-0.2461395   c-1.0545464-2.3767891,0.8470879-6.6711731,1.2995262-8.9321938c0.8296928-4.146759,0.5856667-8.3781776,0.5983582-12.5859947   c0.0066833-2.2085571,0.0192375-4.4171143,0.0287895-6.6256714c0.0046387-1.0982075,0.2836571-2.6153545-0.2636719-3.6473198   c-0.9672241-1.8233867-2.6478271-1.130475-3.8317871-0.085207c-0.1004868-0.2504358-0.459259-0.3711171-0.6338997-0.0659685   c-0.987896,1.7265139-1.0238495,3.4114828-1.0305328,5.351594c-0.010643,3.0566692-0.5102882,6.0518055-1.0708542,9.0485783   c-0.5098076,2.7258701-0.9096451,5.4569931-1.3049812,8.2010784c-0.1442184,1.000721-0.3672981,1.9943447-0.423851,3.0050259   c-0.0721092,1.2886772,0.1292763,2.715435-0.3192711,3.956768c-0.0233994,0.0379982-0.0404549,0.0746994-0.0676727,0.1124954   c-0.3007813,0.4183235-0.7636566,0.5128784-1.258934,0.4990959c-0.2305832-0.0064812-1.4358978-0.2101173-1.7387924-0.6082497   c0.1354828,0.1392365,0.4076805,0.0439339,0.3529701-0.1889687c-0.5297318-2.2540627-1.1575584-4.4246216-1.4709625-6.7257519   c-0.2590332-1.9016361-0.6371765-3.749445-1.1616516-5.5973911c-0.6175957-2.1756763-1.1790466-4.340641-1.5443687-6.5753937   c-0.3037834-1.8585205-0.4862022-3.7427597-1.1139641-5.5308771c-0.5834885-1.6617737-1.9809074-4.3924198-4.1828461-3.8080463   c-1.3816643,0.366683-2.3095932,1.8843079-2.6030083,3.3637972c-0.0672646,0.0341101-0.1208153,0.0927792-0.1363029,0.1919708   c-0.1979752,1.2727823,0.2798386,2.3505239,0.6128197,3.567503c0.4449348,1.6259575,0.5112419,3.3131771,0.8067741,4.9669685   c0.6781044,3.7931061,0.988781,7.6502705,1.7399521,11.4186134c0.7579269,3.8023834,1.1251526,7.5103493,0.7697258,11.3905716   c-0.2676277,2.9201622-1.9545708,5.8917618-1.3695183,8.829113c-0.0652161,0.0386124-0.1405334,0.0792732-0.2034302,0.1170654   c-0.4366112,0.2623749-1.1463699,0.6735382-1.2210045,1.2421532c-0.019783,0.1510391,0.0412064,0.3231583,0.1336441,0.4681244   c-0.3636818-0.0071602-0.7314568,0.0070953-1.1035957,0.0330887c-0.1014442,0.007164-0.1094933,0.0905266-0.0746346,0.1578598   c-0.036087,0.0162392-0.0647392,0.038681-0.0910721,0.0664482c0.0005455-0.9825058-1.3377991-2.0846024-1.8773499-2.7047234   c-1.3564873-1.5588989-2.1917763-3.9702721-4.1671562-4.8839455c-0.0453682-0.02108-0.1039677-0.0072289-0.1416931,0.0244904   c0.0388851-0.2084122,0.0594196-0.42276,0.0577126-0.6435204c-0.0130291-1.6977234-1.3892326-3.1602936-2.5377865-4.2597961   c-2.2232933-2.1285362-5.2674103-3.7895584-8.4164505-2.6236115c-3.0673122,1.1355934-1.2710094,3.7523117,0.2866611,5.3831139   c1.5788174,1.6529732,2.8355675,3.0638313,3.8817234,5.1398392c0.7651558,1.5185089,1.4809895,3.1696396,2.5427685,4.5274925   c0.0049114,0.0216255-0.0040264,0.04216,0.0075035,0.063652c0.9957409,1.864933,1.4326897,3.9101028,2.3818359,5.7810364   c1.0461559,2.0620918,2.4529228,3.958065,3.5611572,5.9985237c1.7151222,3.1581192,3.503376,6.206871,5.9979782,8.7413177   c-0.166729-0.0129623-0.3333893,0.1016464-0.2779961,0.3151779c0.2445717,0.9422531,0.8471565,1.6121063,1.2533417,2.478096   c0.6965942,1.4850769,0.4446564,3.309967,0.5342293,4.906868c0.1726646,3.0825195,0.1963387,6.1842194,0.4026375,9.2587585   c0.0017052,0.025383,0.0368385,0.024971,0.0391579,0c0.3267746-3.4951172,0.3329124-6.9060593,0.3003044-10.4045181   C39.5932541,80.368721,39.3729019,78.9916306,38.6446533,77.5582581z"></path><path d="M42.2166557,39.0285683c1.5508499,0.158886,3.3178177,0.0756569,4.6820145-0.7780495   c0.1573181-0.0984421,0.0586014-0.3683891-0.1302299-0.3088303c-0.7041702,0.2223282-1.3579216,0.5239296-2.0913582,0.6543655   c-0.8070412,0.1433983-1.645195,0.1683655-2.4604263,0.2562332C42.1037521,38.8643646,42.1030693,39.0169029,42.2166557,39.0285683   z"></path><path d="M45.2622757,37.3396454c-0.2120285,0.0566216-0.394722,0.188694-0.6128197,0.242588   c-0.2517357,0.062355-0.5056496,0.062355-0.7612686,0.0310402c-0.0815239-0.0099602-0.1008987,0.1297569-0.0195122,0.1443558   c0.4441795,0.0792046,1.1736603,0.0974159,1.4738274-0.3136749C45.3805695,37.3917656,45.3178062,37.3248405,45.2622757,37.3396454   z"></path><path d="M44.2827034,26.597435c-0.7322731,0.1823521-1.3088722,0.5267944-2.1026115,0.5802803   c-0.7291374,0.0493221-1.4620934,0.1096287-2.1921844,0.1424427c-0.0758629,0.003479-0.0753174,0.1126995,0,0.1176109   c0.9550133,0.0611267,1.8474693,0.280386,2.812851,0.1435356c0.5683403-0.0807037,1.3923035-0.2556877,1.5903473-0.8754005   C44.4121857,26.6398678,44.3452606,26.5818806,44.2827034,26.597435z"></path><path d="M48.4939995,77.6972885c1.0677109-0.2904129,8.3364944-4.2984772,6.4712219-6.0954666   c-0.0691757-0.0666504-0.1661835-0.0131607-0.1755981,0.0727921c-0.3398743,3.0766602-4.2892036,4.2486115-6.3289833,5.9653015   C48.4334869,77.6628418,48.462822,77.7057495,48.4939995,77.6972885z"></path><path d="M56.6129417,72.2317657c-0.0043678-0.0513687-0.0837746-0.0707397-0.0961914-0.0130234   c-0.1319389,0.6126099-0.2277184,1.2012863-0.5450783,1.7546158c-0.3170891,0.5527878-0.7773018,1.0103455-1.2479515,1.4326935   c-0.0400429,0.0360184,0.018692,0.0938034,0.058876,0.058876C55.6987228,74.669548,56.725502,73.5396881,56.6129417,72.2317657z"></path><path d="M52.0265045,71.4305954c1.6561089-2.1700134,0.7735443-5.2835846,0.40625-7.7475548   c-0.5181313-3.4759521-0.8751297-7.6673927-3.450367-10.3356857c-0.0734062-0.0761337-0.2315407,0.0018425-0.1881523,0.1095619   c0.6122742,1.5238991,1.4285278,2.9296417,1.8900375,4.5198517c0.4827271,1.6624565,0.7098312,3.3441505,0.9844856,5.0479469   c0.3896713,2.4170418,1.8033295,6.1333961,0.239315,8.3367043C51.8562927,71.4342728,51.9741096,71.4991531,52.0265045,71.4305954z   "></path><path d="M47.8856812,52.5237999c0.0884781,0.0613327,0.1708908-0.0824776,0.0840454-0.1437378   c-2.1315384-1.5037766-4.0842018-3.7081032-6.6864548-4.3973999c-0.1665268-0.0441399-0.2843437,0.2055473-0.1207504,0.2864571   C43.5902023,49.4709511,45.6663437,50.9849586,47.8856812,52.5237999z"></path><path d="M55.5086632,64.8328934c-1.0786285-2.7891121-0.1100388-6.1484756-1.3504868-8.8186111   c-0.0521202-0.1121521-0.2150993-0.0482979-0.2190552,0.0592842c-0.0596237,1.6192017,0.2526894,3.45187,0.4559135,5.0730515   c0.1627731,1.2983627,0.4738579,2.5368996,1.0017471,3.7333412C55.4244766,64.9427948,55.5337677,64.8976288,55.5086632,64.8328934   z"></path><path d="M61.421978,62.2321358c0.0379333,0.0238075,0.0700645-0.034111,0.0345879-0.0592155   c-2.6197853-1.8570862-3.8306923-4.3993111-5.5481339-6.9723663c-1.1380501-1.7050934-3.2820015-3.3907433-5.1515732-4.2155952   c-0.0827522-0.0364952-0.1803055,0.062355-0.1038322,0.1346016c1.0368118,0.9806633,2.231411,1.7651939,3.317543,2.6879387   c1.1356621,0.9647675,1.7713356,2.0684319,2.5175972,3.3360977C57.7157173,59.2287445,59.3745575,60.9465942,61.421978,62.2321358z   "></path><path d="M61.4929962,55.6020279c-0.7138557-0.7439384-1.6741219-1.0187302-2.5128174-1.5834579   c-0.9917183-0.6677361-1.9590111-1.609993-3.0533981-2.0860329c-0.1174736-0.0510979-0.2391777,0.0807724-0.1423035,0.1846046   c0.7010269,0.7518539,1.7139587,1.3547134,2.5809708,1.9021111c0.987484,0.6235313,2.1733551,0.8461342,3.0201721,1.690155   C61.4549294,55.7785149,61.5606728,55.6726379,61.4929962,55.6020279z"></path><path d="M40.5776024,79.6355591c-0.1511078-0.049118-0.2118912,0.1836472-0.0650139,0.2361145   c2.7741699,0.9928741,5.8227196,1.9592743,8.8081017,1.8834839c0.0660362-0.0016327,0.0663071-0.1043091,0-0.1028748   C46.4217453,81.7180481,43.3002663,80.5202408,40.5776024,79.6355591z"></path><path d="M55.6846008,81.5455856c-1.0726929,0.2157822-2.0777092,0.0203323-3.1600914,0.0675354   c-0.1176796,0.005188-0.1154976,0.1717148,0,0.1811981c0.6549797,0.0539627,1.3051872,0.1831665,1.9609184,0.2432022   c0.4279442,0.0392303,1.0132751,0.0872574,1.3588066-0.2178268C55.9761047,81.7033081,55.8329124,81.5157089,55.6846008,81.5455856   z"></path><path d="M51.8704834,84.8807983c-0.2598495,1.5646286-0.0053215,3.4086838,0.4154625,4.9293823   c0.0354729,0.1279144,0.2277832,0.0741501,0.1983833-0.054718c-0.3713913-1.625-0.1502228-3.2609863-0.4203033-4.8746643   C52.0479927,84.7850189,51.8863792,84.7849503,51.8704834,84.8807983z"></path><path d="M49.5331268,84.3321762c-0.1732788,0.7706757,0.1034889,1.599556-0.0825462,2.3835373   c-0.0030022,0.0124207,0.0145302,0.016922,0.0187607,0.0052567c0.2630577-0.7195892,0.3774605-1.6359177,0.1959953-2.3887939   C49.6497841,84.2674332,49.5480652,84.2661362,49.5331268,84.3321762z"></path><path d="M58.5500488,24.8279419c0.2719269-0.0414104,0.157589-0.4583702-0.1143341-0.4146423   c-0.9901466,0.15909-2.2056923-0.1122894-2.9705772-0.7906017c-0.0584641-0.0518475-0.1422386,0.0300159-0.0864334,0.0864334   C56.272728,24.6128445,57.2617798,25.0242786,58.5500488,24.8279419z"></path><path d="M56.1262589,25.7223759c-0.0772934-0.0279713-0.1311188,0.0978279-0.0563507,0.1337109   c0.4185982,0.2007713,0.8454514,0.3008499,1.3094864,0.2855015c0.1261368-0.0042305,0.1268883-0.1944962,0-0.1964741   C56.9426498,25.9382915,56.5371475,25.8711643,56.1262589,25.7223759z"></path><path d="M53.4480743,37.8558655c0.5959015,0.1147461,1.1671753,0.4608955,1.6237068,0.8545952   c0.4173012,0.3597908,0.6194382,0.8682365,1.0031738,1.2357368c0.0808411,0.0773621,0.2306519,0.0241508,0.2273788-0.0942116   c-0.0158958-0.5691605-0.5629501-1.1255646-0.984211-1.4607277c-0.554287-0.4410439-1.1625404-0.5872383-1.853199-0.6596909   C53.3943825,37.7241325,53.3782158,37.8424263,53.4480743,37.8558655z"></path><path d="M54.8704643,37.2452278c0.5244064-0.0959167,0.9893951-0.0200577,1.456974,0.2376785   c0.1616135,0.0890961,0.3071289-0.1616135,0.1443558-0.2469559c-0.5270004-0.2762909-1.0758324-0.3230247-1.6378975-0.1233444   C54.7500534,37.1424217,54.7833443,37.2611923,54.8704643,37.2452278z"></path></g></svg>