<svg height='100px' width='100px'  fill="#FFFFFF" xmlns="http://www.w3.org/2000/svg" data-name="Layer 1" viewBox="0 0 100 100" x="0px" y="0px"><title>hand-gestures</title><g><path d="M43.15,61.35c-.34-.2-.73-.42-1.09-.65-.19-.12-.37-.28-.24-.55s.36-.23.58-.18c.64.14,1.28.35,1.93.43a6.17,6.17,0,0,0,1.35-.09l.1,0c2.6-1.14,5.16-2.34,7.08-4.55a28.89,28.89,0,0,0,1.81-2.32,5.4,5.4,0,0,0,.53-1.2,3.3,3.3,0,0,0,.09-.49c-.58.38-1.1.77-1.65,1.08a9.67,9.67,0,0,1-1.44.63c-.84.28-1.69.51-2.54.75a3.57,3.57,0,0,1-3.2-.72A1.93,1.93,0,0,1,45.69,52c0-.67-.07-1.35-.11-2.06a.81.81,0,0,0-.22,0,25.37,25.37,0,0,1-3.57.51,26.88,26.88,0,0,0-3.51.78,4,4,0,0,0-2.13,2,1.42,1.42,0,0,0-.1.69,4.12,4.12,0,0,0,.37,2.47.31.31,0,0,1,0,.3.36.36,0,0,1-.32,0,1.84,1.84,0,0,1-.4-.57,8.76,8.76,0,0,1-.25-1c0-.16-.05-.33-.1-.62l-.41.56a20.45,20.45,0,0,1-2.71,3.29c-.76.7-1.61,1.29-2.43,1.92a8.17,8.17,0,0,1-.71.49,3.15,3.15,0,0,0-1.41,2,17.75,17.75,0,0,0-.36,5.81c.18,2.19.42,4.38.66,6.57.12,1.15.3,2.29.43,3.43.1.81.17,1.62.23,2.43a22.35,22.35,0,0,0,1.29,5.47c.28.82.6,1.62.93,2.42a1.33,1.33,0,0,0,.42.55,13,13,0,0,0,5.65,2.52,4.09,4.09,0,0,1,.69.17c.1,0,.16.21.24.32-.11.06-.23.18-.33.17-.81-.14-1.64-.25-2.44-.45a9.21,9.21,0,0,1-3.38-1.48,2.21,2.21,0,0,0-.26-.14,19,19,0,0,1,1,7.44,7.52,7.52,0,0,1-.2,1.1H30.56c.06-.41.12-.77.18-1.13a14.45,14.45,0,0,0,0-3.6,17.53,17.53,0,0,0-1.44-5.17,32.68,32.68,0,0,1-1.91-6.42c-.17-1-.23-2.09-.35-3.13-.15-1.33-.31-2.66-.46-4s-.34-3-.47-4.45c-.12-1.3-.2-2.6-.26-3.9a13.06,13.06,0,0,1,.35-4.09,41.8,41.8,0,0,0,1-5.65,4.17,4.17,0,0,1,.1-.6,11.6,11.6,0,0,0,.22-2.42c0-1.76.15-3.52.25-5.28s.25-3.55.34-5.33c.06-1.2.1-2.4.09-3.61,0-1.52-.15-3-.17-4.57,0-1.37.06-2.74.08-4.12,0-1.74.06-3.49,0-5.24a52,52,0,0,1,.26-6.24c.15-1.45.19-2.91.22-4.37a14.1,14.1,0,0,1,1.68-6.48,5.72,5.72,0,0,1,1.39-1.74,3.49,3.49,0,0,1,3.93-.45,4.42,4.42,0,0,1,2.51,3.53,15,15,0,0,1,.2,2.32A86.69,86.69,0,0,0,39,22.44a51.68,51.68,0,0,1,.22,5.28c0,2.48,0,5,.19,7.42.11,1.9.08,3.8.13,5.7,0,.86.07,1.72.11,2.59a4.14,4.14,0,0,0,.12.53A1.18,1.18,0,0,0,40.1,43c0-.83,0-1.66,0-2.49a37.19,37.19,0,0,1,.27-5.48c.08-.62.1-1.25.12-1.88,0-1.41,0-2.82.14-4.22.14-1.58.41-3.15.62-4.73.1-.76.2-1.51.25-2.27.17-2.23.37-4.46.68-6.68.2-1.4.27-2.83.34-4.25a18.74,18.74,0,0,1,.57-3.87c.26-1,.57-1.95.84-2.93a4,4,0,0,1,3.62-2.95,8,8,0,0,1,2.08,0,2.94,2.94,0,0,1,2.82,2.83,20.54,20.54,0,0,1,0,4.57,28.18,28.18,0,0,0-.1,6.49c.13,1.1.14,2.2.21,3.3a1.76,1.76,0,0,1,0,.33c.32-1.76.66-3.52.95-5.29.14-.87.18-1.75.26-2.63a11.66,11.66,0,0,1,.62-2.72,3.57,3.57,0,0,1,3.07-2.41,7,7,0,0,1,1.21-.07,3.52,3.52,0,0,1,3,2,9,9,0,0,1,1,3.43,30.6,30.6,0,0,1,.05,5.33c-.13,2.44-.56,4.85-.58,7.3a41.47,41.47,0,0,1-.71,6.66c-.16.92-.2,1.85-.33,2.78-.17,1.19-.38,2.37-.55,3.56-.21,1.58-.4,3.16-.6,4.74-.15,1.24-.33,2.48-.47,3.73a8.62,8.62,0,0,0,0,3.08,1.82,1.82,0,0,0,.07.25s0,0,.12.14a4.19,4.19,0,0,0,.24-.55c.22-.8.45-1.6.62-2.41a24.46,24.46,0,0,1,1.21-3.93,23,23,0,0,0,1.1-3.54c.4-1.73.9-3.44,1.35-5.16.35-1.31.69-2.62,1-3.93s.7-2.33,1-3.5a6.64,6.64,0,0,1,1.7-3A3.69,3.69,0,0,1,74,24.37a10.16,10.16,0,0,1,.26,4.28c-.34,2.08-.66,4.15-1,6.22-.34,1.88-.73,3.76-1.1,5.63s-.64,3.43-1,5.14c-.25,1.18-.57,2.34-.85,3.51-.36,1.46-.73,2.92-1.07,4.39a4.6,4.6,0,0,0-.06,1.05c0,.18,0,.37.06.55a32.53,32.53,0,0,1-.64,7.94c-.4,2.06-.77,4.13-1.2,6.18-.27,1.26-.7,2.49-.93,3.75a47.78,47.78,0,0,1-1.94,6.68c-.51,1.47-1.06,2.93-1.59,4.4-.69,1.89-1.4,3.78-2.06,5.69A20.25,20.25,0,0,0,60,95c-.09,1.23-.12,2.47-.19,3.71,0,.11,0,.23,0,.37H58.3v-1.5c-.46-.07-.92-.16-1.38-.19-.86,0-1.73-.1-2.59-.1a22.21,22.21,0,0,1-3.73-.44,22.32,22.32,0,0,0-4-.31,1.07,1.07,0,0,1-.4,0c-.11,0-.19-.16-.28-.25.09-.08.17-.22.27-.25a3.11,3.11,0,0,1,.86-.1c1.33.06,2.67.14,4,.24s2.7.24,4.05.34c1,.08,2.09.13,3.19.19,0-.47.09-1,.12-1.56a22.36,22.36,0,0,1,1.72-7.6c.29-.68.5-1.4.77-2.1.54-1.44,1.13-2.87,1.62-4.33.79-2.34,1.57-4.69,2.22-7.08.61-2.22,1.05-4.48,1.56-6.73.07-.31.11-.63.17-.94-.08,0-.12-.08-.16-.08a27.56,27.56,0,0,1-4-.43,27.9,27.9,0,0,1-6.8-1.64c-1.61-.63-3.19-1.32-4.79-2A9.66,9.66,0,0,1,48,60.46L47,61c.15.24.3.45.44.67a9.27,9.27,0,0,1,1.15,3c.2,1,.51,2,.78,2.94A37.51,37.51,0,0,1,50.32,73c.21,1.8.38,3.6.47,5.41a20.78,20.78,0,0,1-.12,3.25c-.12,1.12-.35,2.24-.54,3.35,0,.23-.05.59-.4.52s-.18-.4-.15-.61a14.57,14.57,0,0,0,.14-1.75c-.27.79-.53,1.6-.83,2.38s-.65,1.68-1,2.48A4.31,4.31,0,0,1,47,89.2c-.81.76-1.66,1.45-2.51,2.15a4.36,4.36,0,0,1-.83.5.34.34,0,0,1-.49-.09c-.13-.21,0-.34.17-.47.82-.7,1.64-1.42,2.46-2.13a7.09,7.09,0,0,0,2-2.92,30.36,30.36,0,0,0,1.6-5.09c.12-.61,0-1.27.21-1.86a9.59,9.59,0,0,0,0-3.81c-.11-1.25-.32-2.48-.45-3.73a58.35,58.35,0,0,0-1.41-6.81c-.15-.65-.28-1.3-.47-1.93s-.45-1.2-.69-1.83a4.66,4.66,0,0,1-2.44.35l-.32,1a12.36,12.36,0,0,1,3,3,4.67,4.67,0,0,1,.9,1.81c.11.44.34.84.49,1.27a.5.5,0,0,1,0,.4.45.45,0,0,1-.41.06.81.81,0,0,1-.37-.32,6.85,6.85,0,0,1-.46-.84,10.46,10.46,0,0,0-1.76-2.73c-.34-.37-.66-.77-1-1.16-.16-.19-.31-.4-.46-.6l-.18.11a.9.9,0,0,0,.06.37c.52.93,1.06,1.85,1.57,2.79a6.35,6.35,0,0,1,.42.92,33.45,33.45,0,0,1,1.8,7A23.77,23.77,0,0,1,47.66,80,22.88,22.88,0,0,1,46.51,85c-.06.2-.13.39-.2.58-.15.42-.31.58-.52.49s-.22-.46-.17-.71c.17-.79.37-1.58.53-2.38a16.67,16.67,0,0,0,.46-4.28,36.57,36.57,0,0,0-1.27-8.32,27.71,27.71,0,0,0-2-5c-.05-.1-.11-.19-.21-.36-.15.36-.25.66-.38,1-.47,1-.89,2.06-1.43,3a9.71,9.71,0,0,1-3.08,3.2c-1.38.93-2.78,1.81-4.18,2.71a2.55,2.55,0,0,1-.69.32c-.09,0-.23-.07-.34-.11a1.15,1.15,0,0,1,.13-.34,1,1,0,0,1,.29-.2A57.41,57.41,0,0,0,39,70.39,6.55,6.55,0,0,0,40.68,68l-.4.26a8.86,8.86,0,0,1-3.22,1.45,3.91,3.91,0,0,1-.91.06c-.23,0-.38-.11-.3-.42a6.82,6.82,0,0,0,.79-.09A8.79,8.79,0,0,0,40.76,67a3,3,0,0,1,.57-.34l.11.08c.36-1.06.74-2.11,1.08-3.17C42.75,62.83,42.93,62.11,43.15,61.35ZM37.34,21.21c0-.14,0-.25,0-.37-.12-1-.28-2-.34-3-.1-1.6-.13-3.22-.2-4.82,0-.61-.06-1.22-.14-1.83a3.16,3.16,0,0,0-1.76-2.77,1.88,1.88,0,0,0-2.13.21A4.49,4.49,0,0,0,31.65,9.9a11.85,11.85,0,0,0-1.57,5.47C30,16.57,30,17.78,30,19c0,.56-.09,1.12-.12,1.67-.09,1.63-.19,3.25-.23,4.88s0,3.25,0,4.88v1.17a10.87,10.87,0,0,0,1.8.37c1.46.05,2.91,0,4.37,0,.22,0,.41,0,.53.28a1,1,0,0,1-.35.2,4.94,4.94,0,0,1-.86.11c-.79,0-1.59,0-2.38.14a6.21,6.21,0,0,1-2.61-.24c-.15-.05-.31-.07-.49-.11a1.53,1.53,0,0,0-.05.3,45.69,45.69,0,0,0,.07,5.85,44.89,44.89,0,0,1,0,5.44c-.09,1.08-.18,2.16-.22,3.24-.06,1.48-.07,3-.1,4.43a14.94,14.94,0,0,1-.39,3.58,2.16,2.16,0,0,0,0,.36c.17.05.33.12.49.16l1.44.32c.18,0,.4.07.36.32s-.26.24-.44.23a3.47,3.47,0,0,1-.45-.06l-1.55-.24a32.58,32.58,0,0,0-.54,3.84l1.25-.87A13.58,13.58,0,0,0,32.82,56c.92-1.25,1.8-2.51,2.68-3.78a4.85,4.85,0,0,1,2.56-2.07c1-.3,2-.53,3-.78a3.51,3.51,0,0,1,.65-.09,15.44,15.44,0,0,0,3.57-.5c1.69-.44,3.38-.86,5.08-1.24,1.29-.29,2.59-.53,3.89-.75a1.27,1.27,0,0,1,1.52.9,11.27,11.27,0,0,1,.57,2.1,6,6,0,0,1-.92,4.43,16.28,16.28,0,0,1-6.1,5.49,5,5,0,0,0-.54.3,10,10,0,0,0,2.39,1.37c1.5.63,3,1.25,4.52,1.83a24.82,24.82,0,0,0,6,1.44c1.37.17,2.75.37,4.13.55.24,0,.49,0,.78,0,.08-.56.16-1.06.24-1.56.25-1.72.49-3.45.75-5.18a2.42,2.42,0,0,0-.73-2.21c-.42-.4-.86-.77-1.3-1.14-.16-.13-.29-.24-.08-.5a5.52,5.52,0,0,1,2.07,1.45c0-.43,0-.83,0-1.23a.73.73,0,0,0-.24-.58,12.82,12.82,0,0,0-3.44-2.49c-.17-.08-.34-.19-.24-.37s.27-.14.42-.19a.53.53,0,0,1,.2,0,8.29,8.29,0,0,1,3.18,2l.29.31c0-.16.08-.25.1-.35q.84-3.62,1.69-7.22a.57.57,0,0,0-.26-.65A26.44,26.44,0,0,0,65.6,43c-.18-.1-.49-.14-.38-.44s.39-.12.59-.12a.29.29,0,0,1,.1,0,10.19,10.19,0,0,1,3.1,1.7c.26.24.55.44.94.75.57-3.76,1.48-7.34,2-11-.18-.1-.32-.16-.44-.24a5.63,5.63,0,0,0-3.09-1,.42.42,0,0,1-.48-.37,1.47,1.47,0,0,1,.43-.15,5.16,5.16,0,0,1,3.6,1c0-.07.08-.09.08-.12.21-1.19.42-2.37.61-3.56a11.71,11.71,0,0,0,.23-3.23,9.6,9.6,0,0,0-.44-2,2.21,2.21,0,0,0-3.19-.84,4.42,4.42,0,0,0-1.51,2.4A19.57,19.57,0,0,1,67.21,28a61.84,61.84,0,0,0-1.88,6.81c-.31,1.25-.73,2.47-1,3.73a20.7,20.7,0,0,1-1,3.45,25.32,25.32,0,0,0-1.19,4.1c-.21,1-.5,1.93-.79,2.88a3.07,3.07,0,0,1-.48.89,1,1,0,0,1-1.11.42A1.84,1.84,0,0,1,58.43,49a11.46,11.46,0,0,1-.32-1.38,12.22,12.22,0,0,1,.16-3.14c.12-1.11.27-2.22.39-3.33.09-.85.12-1.7.24-2.53.16-1.18.4-2.34.58-3.51a4.67,4.67,0,0,0,.14-1.6l-.78.06A6.88,6.88,0,0,1,56,33.45c-.82-.32-1.62-.69-2.42-1.05a1.18,1.18,0,0,1-.41-.29.37.37,0,0,1,0-.31.31.31,0,0,1,.26-.09,1.46,1.46,0,0,1,.33.12c.69.26,1.38.57,2.09.77a9.88,9.88,0,0,0,1.8.25c.51,0,1,0,1.53-.06l.55,0c.45-3.75,1.13-7.44,1-11.19-.07,0-.1,0-.13,0a13.3,13.3,0,0,1-4.45-.13.45.45,0,0,1-.46-.41,2,2,0,0,1,.5-.13c.4,0,.81,0,1.22,0,1,0,2-.05,2.94-.08a3.49,3.49,0,0,0,.5-.11c.1-.94.2-1.85.28-2.76a32.42,32.42,0,0,0,.14-6,9.23,9.23,0,0,0-.71-3.06A2.36,2.36,0,0,0,57.49,7.3a2,2,0,0,0-1.78,1.45,14.4,14.4,0,0,0-.39,1.57c-.13.84-.14,1.69-.27,2.53-.2,1.35-.47,2.7-.7,4-.11.68-.19,1.37-.29,2a2.1,2.1,0,0,0,.35.17c.7.18,1.4.37,2.11.53.17.05.38.07.33.28s-.28.18-.41.16c-.45-.06-.9-.16-1.35-.25s-.68-.14-1-.22a2.07,2.07,0,0,0-.06.24c-.24,1.6-.49,3.21-.73,4.82-.15,1-.3,2-.43,3-.19,1.48-.34,3-.56,4.44a38.94,38.94,0,0,0-.59,4,22.81,22.81,0,0,1-.2,2.48C51.27,40,51,41.4,50.7,42.82a1.34,1.34,0,0,1-.25.54.61.61,0,0,1-1.09-.2,4.36,4.36,0,0,1-.12-.46l-.42,0a11.91,11.91,0,0,1-1.57.15c-.74,0-1.47-.16-2.21-.26A7.73,7.73,0,0,1,44,42.38a.22.22,0,0,1,.09-.44c.28,0,.57,0,.86.05.91,0,1.82.11,2.74.11.58,0,1.17-.08,1.79-.13a.43.43,0,0,0,.05-.1c.27-1.38.58-2.75.77-4.14s.19-2.53.32-3.8c.11-1,.33-2,.46-3a5.86,5.86,0,0,0,.07-1.72A13.24,13.24,0,0,1,50.87,27a6.71,6.71,0,0,0-.07-.76,10.48,10.48,0,0,1-4.49.08c-.83-.21-1.66-.46-2.48-.71-.16-.05-.34-.18-.22-.37a.43.43,0,0,1,.39-.08,12.62,12.62,0,0,0,5.07.5c.57,0,1.14-.12,1.71-.18,0-.19,0-.3,0-.42,0-.66.08-1.32.1-2,.06-1.81.13-3.63.15-5.44a20,20,0,0,0-.18-2.11,4.63,4.63,0,0,1-2.52.29c-.78-.07-1.54-.22-2.31-.34a7.53,7.53,0,0,1-.85-.14A.32.32,0,0,1,45,15.1a.32.32,0,0,1,.21-.23,4.8,4.8,0,0,1,1-.06c1,.07,1.89.18,2.84.24a3.5,3.5,0,0,0,1.73-.33c0-.17,0-.33,0-.47A31.85,31.85,0,0,1,51,8a17.27,17.27,0,0,0-.07-4,1.25,1.25,0,0,0-1.13-1.19,8.54,8.54,0,0,0-2,0A2.66,2.66,0,0,0,45.22,5c-.16.76-.45,1.5-.62,2.26A23.12,23.12,0,0,0,44.11,10c-.14,1.3-.19,2.61-.29,3.91,0,.63-.11,1.27-.16,1.89.54.25,1.17.07,1.74.51-.67.3-1.25-.07-1.82.05,0,.1,0,.18-.06.26L43.1,20.9c-.1,1-.17,2.06-.29,3.09-.11.84-.28,1.67-.42,2.5a40.47,40.47,0,0,0-.29,4.92c0,1.19,0,2.38-.16,3.56a47.65,47.65,0,0,0-.26,6.09c0,.7,0,1.39,0,2.09A2.52,2.52,0,0,1,41,45a1.39,1.39,0,0,1-2.33-.45c-.12-.3-.19-.61-.29-.94a1.06,1.06,0,0,0-.19.11,6.46,6.46,0,0,1-3.24,1.22,6,6,0,0,1-2.07,0c-.19,0-.39-.11-.37-.35s.23-.25.42-.27c.54,0,1.08-.07,1.62-.14a8.37,8.37,0,0,0,3.7-1.5c0-4-.12-8-.46-11.94a4.71,4.71,0,0,1-1.14.12c-1.12-.15-2.24-.36-3.35-.57-.14,0-.26-.17-.38-.26v-.13a1.36,1.36,0,0,1,.43-.11c.73.09,1.47.22,2.21.31A5.07,5.07,0,0,0,37.76,30a45.93,45.93,0,0,0-.33-8,.57.57,0,0,0-.16,0,3.65,3.65,0,0,1-2.38.33c-1.11-.23-2.2-.52-3.31-.78a.69.69,0,0,1-.31-.15.37.37,0,0,1-.12-.3.31.31,0,0,1,.26-.17,1.71,1.71,0,0,1,.55.05l2,.43A5.48,5.48,0,0,0,37.34,21.21Zm9.15,28.45c.06.81.12,1.55.16,2.29a1.1,1.1,0,0,0,.54.87,2.7,2.7,0,0,0,2.41.41c.59-.17,1.17-.36,1.76-.5a8.72,8.72,0,0,0,3.76-2,.58.58,0,0,0,.24-.62c-.13-.56-.24-1.13-.42-1.68s-.26-.61-.85-.49c-1.3.26-2.58.54-3.87.84-.77.17-1.54.39-2.31.59C47.47,49.46,47,49.55,46.49,49.66Z"></path><path d="M56.76,92.35c-.16-.14-.31-.22-.36-.34a1.16,1.16,0,0,1-.09-.55c.12-1.17.19-2.36.39-3.52a7.76,7.76,0,0,1,.69-2c.93-1.94,1.94-3.84,2.86-5.78.66-1.39,1.22-2.83,1.82-4.25q.16-.37.3-.75c.08-.18.17-.37.4-.31s.19.29.14.47-.13.49-.21.73a32.6,32.6,0,0,1-2.33,5.68c-.84,1.53-1.6,3.1-2.39,4.65a8.51,8.51,0,0,0-.83,2.92C57,90.29,56.9,91.24,56.76,92.35Z"></path><path d="M32.69,87.28c-.37.26-.53.25-.74-.1A7.13,7.13,0,0,1,31.4,86a22.67,22.67,0,0,1-1.27-5.21c-.09-.75-.18-1.51-.26-2.26a4.61,4.61,0,0,1,0-.91,1.63,1.63,0,0,1,.18-.46c.35.12.32.36.34.57a30.4,30.4,0,0,0,1.87,8.69A5.61,5.61,0,0,0,32.69,87.28Z"></path><path d="M38.45,76.62a1.51,1.51,0,0,1,.24-.39A13.76,13.76,0,0,0,41.83,70c.06-.2.08-.42.44-.33a2.48,2.48,0,0,1,0,.72A13.62,13.62,0,0,1,39,76.45C38.88,76.58,38.78,76.81,38.45,76.62Z"></path><path d="M64.24,68.39a1.23,1.23,0,0,1,0,.39,11.13,11.13,0,0,0-.75,4,1.43,1.43,0,0,1-.11.39l-.14,0c-.07-.13-.19-.26-.19-.39a9,9,0,0,1,.84-4.17l.17-.31Z"></path><path d="M39,54.26a1,1,0,0,1,0-.34,5.11,5.11,0,0,0-.06-2.06c0-.16-.07-.32.12-.37s.27.12.3.3a5,5,0,0,1,0,2.15,1.73,1.73,0,0,1-.18.36Z"></path><path d="M37.37,55.07A7.79,7.79,0,0,1,37.18,53s.14-.1.22-.16A3.1,3.1,0,0,1,37.37,55.07Z"></path><path d="M46.82,24.6l.24-.06,3.18-.2c.18,0,.4-.05.37.31a4,4,0,0,1-.62.13c-.89,0-1.78.08-2.68.11C47.12,24.9,46.9,24.94,46.82,24.6Z"></path><path d="M58.24,35c-1.16-.12-2.27-.24-3.38-.45l0-.17c.1,0,.21-.13.3-.12.89.08,1.78.17,2.67.28C58,34.55,58.28,34.54,58.24,35Z"></path><path d="M66.41,44.85a6.47,6.47,0,0,0-2.85-.75l0-.11c.07-.06.14-.18.22-.19a3.94,3.94,0,0,1,2.54.63.64.64,0,0,1,.13.15s0,.09,0,.14Z"></path><path d="M67.12,31.16c-.07-.31.17-.37.32-.38a2.11,2.11,0,0,1,1.38.12v.15Z"></path><path d="M34.4,43.52c.34-.37.75-.31,1.08-.43s.34,0,.58.14A2.75,2.75,0,0,1,34.4,43.52Z"></path><path d="M56.53,17.11a1.35,1.35,0,0,1,1.48.22l-1.48-.11Z"></path><path d="M49.18,52.73c-.46-.06-.79-.09-1.12-.16a1.59,1.59,0,0,1-.6-.25.46.46,0,0,1-.19-.41c0-.18.23-.19.42-.13a5.08,5.08,0,0,0,3.13-.09c.74-.24,1.48-.46,2.23-.69.08,0,.16-.09.23-.08a3.4,3.4,0,0,1,.46.08,3.22,3.22,0,0,1-.25.39.72.72,0,0,1-.26.14c-1,.36-2.07.73-3.12,1.07A5.15,5.15,0,0,1,49.18,52.73Z"></path></g></svg>