<svg height='100px' width='100px'  fill="#FFFFFF" xmlns="http://www.w3.org/2000/svg" data-name="Layer 1" viewBox="0 0 100 100" x="0px" y="0px"><title>hand-gestures</title><g><path d="M40.52,53.14c-.45,0-.84.06-1.22,0A7.53,7.53,0,0,1,38.24,53c-.25-.05-.53-.11-.52-.45s.21-.38.61-.42c.22,0,.44,0,.66,0S39.7,52,40.05,52a2.78,2.78,0,0,0,2-1.38l2.7-4.21a22.63,22.63,0,0,0,2-4.18A3.48,3.48,0,0,0,47,41a15,15,0,0,0-.45-3.32l-.94,2a14.45,14.45,0,0,1-1.82,2.82A4.15,4.15,0,0,1,41.61,44a2.68,2.68,0,0,1-3.42-1.76,10.07,10.07,0,0,1-.28-1.37,24.37,24.37,0,0,1-5.63,3.24c.32.61.59,1.18.91,1.71s.72,1,1.08,1.5l-.09.12a1.32,1.32,0,0,1-.45-.2,5.35,5.35,0,0,1-.7-.8c-.42-.59-.81-1.21-1.23-1.85a2.17,2.17,0,0,0-.9,1.33,12.79,12.79,0,0,0-.13,1.63c.26.22.49.4.7.6s.4.4.59.59c-.11.3-.27.22-.41.11s-.51-.4-.76-.6l-.47-.36c-.05.38-.12.69-.14,1-.09,1.46-.24,2.92-.22,4.38a44.67,44.67,0,0,1-.55,7.22,20.06,20.06,0,0,0,0,5.25,55.48,55.48,0,0,0,4,14.58c.89,2.19,2,4.26,3.1,6.38.52,1,1.07,2,1.61,3.08l.27.5a22.51,22.51,0,0,1,1.08-2l.15,0c0,.11.08.24,0,.32a9.75,9.75,0,0,1-1.1,2.09L39.16,92c.39-.67.73-1.26,1.06-1.85l1-1.75a.83.83,0,0,1,.18-.3c.1-.09.26-.21.36-.18s.22.23.14.41a11.2,11.2,0,0,1-.47,1.13c-.55,1.09-1.12,2.17-1.71,3.25a.75.75,0,0,0,0,.62c.3,1.07.62,2.13.87,3.2a15.92,15.92,0,0,1,.25,1.82c0,.23,0,.47,0,.75H38.91a1.37,1.37,0,0,1-.07-.34A17.24,17.24,0,0,0,37.21,92c-.68-1.56-1.52-3-2.3-4.56a64.7,64.7,0,0,1-4-8.69,66.92,66.92,0,0,1-3-11.13,26.34,26.34,0,0,1,0-8.59,29.46,29.46,0,0,0,.46-5.54,44.7,44.7,0,0,1,.38-6,24.68,24.68,0,0,0,.12-2.86c0-1-.08-2,0-3.06.07-1.85.19-3.7.3-5.55.08-1.35.2-2.69.25-4,.1-2.33.37-4.65.67-7,.13-1,.21-2.1.26-3.15.06-1.45,0-2.9.13-4.34A34.12,34.12,0,0,1,31,13.94c.34-1.68.74-3.36,1.12-5a5.28,5.28,0,0,1,.29-1c.71-1.54,1.4-3.11,2.19-4.61A4.22,4.22,0,0,1,37.89,1.2a2.57,2.57,0,0,1,2.1.73,5.87,5.87,0,0,1,1.9,3.42,14.74,14.74,0,0,1,.25,3.45,70.06,70.06,0,0,0,.23,8.32,38.21,38.21,0,0,1,0,5.35c-.09,2.28-.19,4.56-.26,6.84,0,1.28,0,2.55,0,3.83v.24c.46-.12.9-.27,1.36-.35a3.05,3.05,0,0,1,2.82,1.12,9,9,0,0,1,.91,1.34c.13.22.23.46.36.71.27,0,.52,0,.77,0a3.54,3.54,0,0,1,2.85,1.47,8.29,8.29,0,0,1,1.67,4.58c0,.9,0,1.81,0,2.71v.55c.23-.09.4-.15.57-.23a6,6,0,0,1,5.28,0,4.1,4.1,0,0,1,1.77,1.5c.41.68.79,1.38,1.21,2.12a4.4,4.4,0,0,0,.45,0,4.75,4.75,0,0,1,3.27.5,15.48,15.48,0,0,1,4.38,3.46,9.38,9.38,0,0,1,2,4.32,35.88,35.88,0,0,1,.77,5,18.4,18.4,0,0,1-.29,3.92c-.33,2-.59,4.1-.74,6.18a44.79,44.79,0,0,1-.78,5C70.37,79.15,70,81,69.6,82.89c-.23,1.1-.51,2.18-.73,3.29a9.47,9.47,0,0,0,0,3.4c.32,2.1.69,4.19,1,6.29.15.94.29,1.88.43,2.82,0,.11,0,.23,0,.38H68.86l-.9-5a6,6,0,0,1-2.32.8q-.77.09-1.53.12c-1.75.05-3.5.11-5.26.12a13.35,13.35,0,0,1-1.77-.21.61.61,0,0,1-.28-.11.22.22,0,0,1,.05-.4.9.9,0,0,1,.4,0,22.37,22.37,0,0,0,4.33,0c1.24-.1,2.48-.23,3.72-.31a6.94,6.94,0,0,0,2.52-.7l-.24-1.81a22.26,22.26,0,0,1-.29-4.32,22.17,22.17,0,0,1,.61-3.41q.64-3,1.24-6.1c.3-1.53.6-3.07.86-4.61.1-.58.09-1.19.15-1.78.15-1.38.31-2.77.47-4.15s.32-2.57.47-3.85a3.5,3.5,0,0,0,0-.46l-.33.15-2.66,1.3a.6.6,0,0,0-.42.51,20.45,20.45,0,0,1-1.35,4.54c-.21.54-.45,1.07-.7,1.66L66,71c.54-.12,1.09-.25,1.63-.39.21,0,.44-.1.51.17s-.16.37-.35.43c-.7.21-1.39.43-2.1.59a.7.7,0,0,0-.57.42c-.46,1-.92,1.94-1.43,2.89a11.62,11.62,0,0,1-.89,1.23,4.17,4.17,0,0,0-.26.37A2.19,2.19,0,0,1,60.87,78a2.5,2.5,0,0,1-2.1-.55A7.44,7.44,0,0,1,57,75.14c0-.09-.09-.19-.14-.27s0,0-.07,0a1.83,1.83,0,0,0-.21.26,2.89,2.89,0,0,1-1.08,1.06,1,1,0,0,0-.53.9,36.64,36.64,0,0,1-.61,5.21,12.14,12.14,0,0,1-1.45,3.91A7.66,7.66,0,0,1,51.32,88c-.8.69-1.55,1.44-2.32,2.15-.28.26-.56.5-.85.74a.75.75,0,0,1-.35.21.45.45,0,0,1-.34-.11.32.32,0,0,1,0-.31c.14-.17.32-.31.47-.47,1.07-1.12,2.14-2.24,3.19-3.38a7.57,7.57,0,0,0,1.65-3A26.73,26.73,0,0,0,53.74,79c.09-.67.18-1.34.28-2.11-.4.11-.77.19-1.12.31-.08,0-.13.19-.15.3A14.74,14.74,0,0,1,50,83.19,5.26,5.26,0,0,1,47.69,85c-.71.28-1.39.64-2.09,1a1.47,1.47,0,0,1-.53.16.39.39,0,0,1-.31-.17c0-.07,0-.24.08-.31a1.41,1.41,0,0,1,.37-.27c.8-.46,1.59-.93,2.4-1.36a5.52,5.52,0,0,0,2-1.8,18.83,18.83,0,0,0,2.48-4.9,1.49,1.49,0,0,0,0-.19l-.37-.1L51.37,77a7.63,7.63,0,0,1-1.73,3.14,6.62,6.62,0,0,1-1.26,1,.67.67,0,0,1-.48.06c.29-.55.92-.71,1.24-1.19s.71-1,1-1.53.51-1.07.78-1.63l-.33-.23a3.22,3.22,0,0,1-1.39-2.35c-.14-1.22-.22-2.44-.32-3.66,0-.18,0-.36,0-.63a4.16,4.16,0,0,1-3.73,1.26,3.65,3.65,0,0,1-3-2.27c-.11,0-.15,0-.17.06a6.15,6.15,0,0,1-2.23,2c-1,.61-2.11,1.16-3.18,1.73a2.43,2.43,0,0,1-.47.13c0-.39.28-.4.46-.5,1.1-.64,2.21-1.26,3.3-1.92a4.68,4.68,0,0,0,1.64-1.58.71.71,0,0,0,.07-.8,3.78,3.78,0,0,1-.35-1.73,4.81,4.81,0,0,0-.08-1l-.26.38c-.67,1-1.35,2-2,3a1.36,1.36,0,0,1-.38.41c-.74.49-1.48,1-2.24,1.42a2.29,2.29,0,0,1-.82.24c-.19,0-.42,0-.42-.25a.56.56,0,0,1,.26-.37c.36-.23.74-.42,1.11-.63a7.81,7.81,0,0,0,2.28-2.37,26.56,26.56,0,0,0,1.49-2.34,1.75,1.75,0,0,0-.25.16c-.86.7-1.7,1.41-2.57,2.1a9.49,9.49,0,0,1-4,1.65,1.77,1.77,0,0,1-.46,0c-.18,0-.36-.09-.33-.3s.18-.22.3-.26c.63-.22,1.27-.4,1.89-.62a9.35,9.35,0,0,0,2.8-1.85c1.11-.93,2.19-1.89,3.29-2.83a.94.94,0,0,0,.34-.85c-.13-2.34-.23-4.69-.36-7C40.68,54.38,40.59,53.76,40.52,53.14Zm.22-25.35c0-.28,0-.52,0-.76,0-.87,0-1.73,0-2.6,0-1.82.09-3.64.13-5.46a4.08,4.08,0,0,0-.1-.63l-1.88.18a6.75,6.75,0,0,1-3.12-.24c-.89-.33-1.81-.57-2.72-.86a.87.87,0,0,1-.33-.12c-.08-.05-.17-.18-.15-.24a.43.43,0,0,1,.23-.23.59.59,0,0,1,.29,0c1.06.26,2.11.53,3.17.77a5.24,5.24,0,0,0,1.36.14c.93-.05,1.86-.18,2.79-.29a1.62,1.62,0,0,0,.34-.1c-.07-.92-.16-1.82-.19-2.72-.06-1.7-.11-3.4-.1-5.1a17.88,17.88,0,0,0-.28-4.07A3.93,3.93,0,0,0,39,3.22,1.06,1.06,0,0,0,38,2.88a2.85,2.85,0,0,0-2.16,1.47C35.23,5.62,34.61,6.91,34,8.21a6.27,6.27,0,0,0-.37,1.21c-.31,1.33-.58,2.66-.89,4a24.7,24.7,0,0,0-.8,6.06q0,1.43-.06,2.85c-.06,1-.12,2.05-.26,3.06-.32,2.37-.58,4.76-.68,7.16-.05,1.27-.1,2.55-.22,3.82a55.68,55.68,0,0,0-.24,7.19c0,.18,0,.37.05.63.18-.17.29-.3.42-.4a6.89,6.89,0,0,1,1.39-.93A26.74,26.74,0,0,0,35.88,41a7.76,7.76,0,0,0,1.78-1.44L39,38.13c.41-.45.81-.91,1.19-1.39A3.27,3.27,0,0,0,41,34.41c-.07-1.43-.08-2.86-.13-4.29,0-.52-.06-1-.09-1.6a8.7,8.7,0,0,1-4.39,0c-.53-.1-1.07-.17-1.61-.22-.75-.08-1.49-.13-2.24-.2-.16,0-.38,0-.37-.23s.22-.23.39-.24h.26c.78,0,1.56.05,2.34.11,1.12.08,2.24.18,3.35.28A6.15,6.15,0,0,0,40.74,27.79ZM52.15,48.27c-.08.57-.18,1.07-.23,1.57-.1,1-.18,2.07-.26,3.1-.13,1.64-.25,3.29-.38,4.93,0,.55-.07,1.09-.14,1.63-.15,1.18-.34,2.36-.48,3.54-.1.86-.1,1.74-.25,2.59A21.43,21.43,0,0,0,50,70.75a2.71,2.71,0,0,0,0,.33,4.82,4.82,0,0,1,1.11-1A4.07,4.07,0,0,1,54.61,70a1.93,1.93,0,0,1,1.27,1.7c.06.72.07,1.44.1,2.15a8.08,8.08,0,0,0,1.59-3.18c.22-1,.46-2,.64-3.05s.33-2.32.49-3.48c.19-1.36.38-2.73.56-4.09.14-1,.25-2.1.38-3.14s.29-2.29.42-3.44a12,12,0,0,1,.25-2,3.28,3.28,0,0,0-.54-3.07,1.59,1.59,0,0,1-.13-.22A3.77,3.77,0,0,0,56,46.19c-1.34,0-2.44.78-3.68,1.42a4.18,4.18,0,0,1,.56.07l4.48,1c.18,0,.35.12.3.32s-.23.13-.36.18-.1,0-.15,0a21.48,21.48,0,0,1-4.21-.75A6.35,6.35,0,0,0,52.15,48.27Zm9.45,2.36c-.06.35-.14.74-.17,1.12-.11,1.1-.17,2.21-.3,3.3s-.31,2-.42,2.93-.16,2.25-.35,3.35c-.45,2.67-.67,5.37-1.29,8a14.47,14.47,0,0,1-1.15,3.74,1.86,1.86,0,0,0,.19,1.53c0-.26,0-.5,0-.74a1.87,1.87,0,0,1,1.77-2A9.45,9.45,0,0,1,61,71.78a1.06,1.06,0,0,1,1.16.8,5.11,5.11,0,0,1,.22,1.1c0,.45,0,.91,0,1.37l.12,0c.24-.46.49-.92.72-1.39A58.77,58.77,0,0,0,66,67.28c.37-1,.51-2.15.8-3.21A35.11,35.11,0,0,0,68,56.32c0-.36,0-.72.08-1.07a.48.48,0,0,1,.25-.32c.19-.08.32.06.38.24a2.77,2.77,0,0,1,.1.5,11.46,11.46,0,0,1,0,3.15c-.21,1.35-.48,2.68-.72,4,0,.11,0,.22,0,.37l1.63-.55c.37-.13.74-.27,1.1-.42a.49.49,0,0,0,.35-.59c-.08-.59-.13-1.17-.21-1.82-.36.5-.65,1-1,1.38a4.45,4.45,0,0,1-.78.72c-.08.06-.27,0-.41,0,0-.12,0-.29.07-.36a9.61,9.61,0,0,0,1.63-2.87c.25-.55,0-.95-.11-1.41a6.31,6.31,0,0,0-.39.56c-.11.17-.21.41-.56.19l.81-1.51A6.78,6.78,0,0,0,68,53.1a31.5,31.5,0,0,0-2.53-1.9A4.19,4.19,0,0,0,61.6,50.63ZM42.67,67.84v-.61c0-.78,0-1.56,0-2.34a3.62,3.62,0,0,1,2.16-3.36,2.63,2.63,0,0,1,3.76,1.85,11.74,11.74,0,0,1,.06,4.46c-.05.25-.08.5-.11.75a.74.74,0,0,0,.24-.45c.18-1,.38-2,.52-3.06s.21-2.24.33-3.35.31-2.37.43-3.55c.07-.71,0-1.43.09-2.14.12-1.56.25-3.12.4-4.68.11-1.15.25-2.3.4-3.44.05-.46.18-.91.22-1.36.09-1,.09-2.07.21-3.1A6.52,6.52,0,0,0,50,38.65a2.39,2.39,0,0,0-2.46-.8c.13.53.24,1,.36,1.52a5.1,5.1,0,0,1-.07,3.16A26.92,26.92,0,0,1,46,46.45c-1,1.59-2,3.19-3,4.77a6,6,0,0,1-1,1.15.79.79,0,0,0-.28.75c.09.85.16,1.69.2,2.54,0,1.07,0,2.15.08,3.22.06,1.65.16,3.29.22,4.94,0,.87,0,1.74,0,2.61A2.08,2.08,0,0,0,42.67,67.84ZM38.74,40.62c0,2,1.45,3,3,2.32a4.32,4.32,0,0,0,1.75-1.53A24.5,24.5,0,0,0,46,36.7a.51.51,0,0,0,0-.42,6.75,6.75,0,0,0-.82-1.16A1.75,1.75,0,0,0,42.57,35a6.29,6.29,0,0,0-1.3,1.72A7.48,7.48,0,0,1,39.58,39,2.88,2.88,0,0,0,38.74,40.62ZM48,66.51h-.08c0-.45,0-.91,0-1.37s0-.92-.1-1.37a1.77,1.77,0,0,0-2.6-1.42,2.66,2.66,0,0,0-1.65,2.48c-.07,1.27-.06,2.55-.11,3.82a1.17,1.17,0,0,0,.69,1.16,3.77,3.77,0,0,0,3.34,0,.68.68,0,0,0,.31-.47C47.86,68.37,47.91,67.44,48,66.51Zm7,6.7c-.07-.7-.13-1.19-.17-1.68a.86.86,0,0,0-.59-.76,3.67,3.67,0,0,0-2.15-.1,2,2,0,0,0-1.21.77,3.11,3.11,0,0,0-.39,3.35,1.63,1.63,0,0,0,1,1,3.6,3.6,0,0,0,2.68-.11.67.67,0,0,0,.44-.52C54.78,74.45,54.91,73.73,55,73.21Zm3.37,2.56c.29.27.53.51.79.72a2,2,0,0,0,1.46.48.63.63,0,0,0,.66-.46,10.84,10.84,0,0,0,.25-1.13A7,7,0,0,0,61.35,73a.42.42,0,0,0-.51-.38c-.27,0-.54.06-.81.09-.77.1-1,.31-1.14,1.07a4.18,4.18,0,0,0,0,.61c0,.4,0,.81-.07,1.21Z"></path><path d="M65.07,87.56a1.38,1.38,0,0,1-.11-.42A5.94,5.94,0,0,1,65.12,86c.35-1.27.72-2.54,1.09-3.81a18,18,0,0,0,.88-6,5.07,5.07,0,0,1,0-.55c0-.1.07-.25.15-.28a.34.34,0,0,1,.3.1,1.31,1.31,0,0,1,.16.47,11.76,11.76,0,0,1-.36,5c-.47,1.51-1,3-1.44,4.51-.16.53-.29,1.08-.44,1.62a4.13,4.13,0,0,1-.17.45Z"></path><path d="M31,64.82c-.36.06-.43-.13-.45-.31a6.27,6.27,0,0,1-.05-1.06c.05-.87.12-1.73.18-2.59,0-.51.09-1,.09-1.53,0-.87-.11-1.73-.11-2.6s.05-1.9.09-2.85c0-.47.08-1,.14-1.42,0-.12.14-.22.22-.34.08.11.21.22.22.34a4.21,4.21,0,0,1,0,.71c0,1.36-.07,2.72-.08,4.08,0,.73.11,1.46.08,2.19-.05,1.22-.18,2.44-.27,3.66,0,.4,0,.81,0,1.22Z"></path><path d="M38.27,86.21a.91.91,0,0,1-.71-.56,51.49,51.49,0,0,1-4.07-8.05c-.12-.3-.23-.6-.34-.9s-.18-.4.05-.49.28.15.35.31c1,2,1.94,4,2.93,6,.52,1,1.09,2.08,1.63,3.12A4.52,4.52,0,0,1,38.27,86.21Z"></path><path d="M48.74,94.13a2.67,2.67,0,0,1-.6.16l-4.32.22a1.85,1.85,0,0,1-.41,0c-.08,0-.2-.14-.19-.19s.12-.22.2-.24a4.92,4.92,0,0,1,.76-.09c1.36,0,2.71-.09,4.07-.12a1.76,1.76,0,0,1,.5.09Z"></path><path d="M65.2,96.64a2.26,2.26,0,0,1-.48.21,14.62,14.62,0,0,1-3,.21,8.24,8.24,0,0,1-.85-.11c-.07,0-.13-.12-.2-.18s.15-.15.23-.16c.27,0,.54,0,.81,0l2.68-.18a1.19,1.19,0,0,1,.81,0Z"></path><path d="M32.79,74.76c-.27.1-.39,0-.46-.23-.34-.85-.67-1.7-1-2.56a1.44,1.44,0,0,1,0-.45A12,12,0,0,1,32.79,74.76Z"></path><path d="M39.4,54.31c-.13.1-.19.19-.26.2q-1.05.14-2.1.24a1.85,1.85,0,0,1-.41-.07c0-.11.07-.21.11-.21.78-.12,1.56-.24,2.34-.34C39.15,54.12,39.24,54.22,39.4,54.31Z"></path><path d="M31.5,45.91c.47.48.83.86,1.19,1.25,0,0,0,.12,0,.24a2.6,2.6,0,0,1-1.22-1C31.38,46.29,31.46,46.15,31.5,45.91Z"></path><path d="M36.08,30.05c.1,0,.17-.09.22-.07a14.93,14.93,0,0,0,4.1.38c.13.29,0,.42-.18.47a2.13,2.13,0,0,1-.55.1,11.21,11.21,0,0,1-3.1-.43C36.26,30.4,36.26,30.39,36.08,30.05Z"></path><path d="M38.61,19.94l-1.15-.13c-.19,0-.37-.12-.31-.31a.5.5,0,0,1,.37-.23c.64,0,1.28.11,1.91.19.09,0,.17.12.26.19-.09.08-.17.23-.27.24a7.24,7.24,0,0,1-.81,0Z"></path><path d="M53.35,62.51c1,.19,1.95.36,2.93.57.23.05.59.12.51.44s-.43.12-.65.09c-.79-.08-1.58-.18-2.36-.27-.32,0-.65-.05-1-.08s-.41,0-.42-.29.23-.29.43-.33l.5-.07Z"></path><path d="M56.13,61.73c-.11.05-.25.15-.33.12a3.12,3.12,0,0,0-2.38,0c-.16,0-.33.09-.38-.09a.48.48,0,0,1,.11-.4,1.08,1.08,0,0,1,.53-.27,3.59,3.59,0,0,1,2,.14,3.71,3.71,0,0,1,.52.36Z"></path><path d="M57.82,48a2,2,0,0,1-.42,0c-.62-.09-1.24-.2-1.86-.3-.07,0-.16,0-.19-.05s-.2-.22-.18-.32a.34.34,0,0,1,.29-.19c.51.08,1,.18,1.54.29a4.19,4.19,0,0,1,.63.19,1.61,1.61,0,0,1,.26.15Z"></path><path d="M63.83,52.87c.48,0,.92.05,1.36.11a.49.49,0,0,1,.32.25c0,.21-.16.23-.31.24-.46,0-.92,0-1.37.06L63,53.6c-.23,0-.48.06-.53-.24s.19-.37.42-.41S63.55,52.89,63.83,52.87Z"></path><path d="M62.17,66.52c.4,0,.91.09,1.41.16.17,0,.42,0,.38.31s-.26.2-.45.2H61.17c-.07,0-.15,0-.2,0s-.26-.17-.39-.25c.1-.12.19-.32.31-.34C61.27,66.56,61.67,66.56,62.17,66.52Z"></path><path d="M62.81,68.78c-.24,0-.48,0-.72-.06a6.82,6.82,0,0,1-.78-.19.34.34,0,0,1-.18-.21s.1-.17.14-.17a7.08,7.08,0,0,1,1.6.4Z"></path><path d="M62.7,51.81a1,1,0,0,1,.41-.13,1.33,1.33,0,0,1,1.09.47A8.23,8.23,0,0,1,62.74,52Z"></path><path d="M63.26,54.91c.64-.27.83-.26,1,.07C63.47,55.23,63.39,55.22,63.26,54.91Z"></path><path d="M45.36,52l3.19.36c.22,0,.51,0,.47.34s-.34.21-.55.2l-3.62-.18c-.25,0-.54,0-.62-.3s.18-.36.61-.38h.51Z"></path><path d="M48.11,53.84a1.83,1.83,0,0,1-.39.09H45.23c-.21,0-.5,0-.49-.29s.27-.27.47-.26c.8,0,1.59,0,2.39.11a1.86,1.86,0,0,1,.52.2Z"></path><path d="M46.7,55a1.16,1.16,0,0,1-1,.07C45.82,54.73,46.29,54.69,46.7,55Z"></path><path d="M44.92,37.61c-.26.4-.47.79-.73,1.13-.74,1-1.5,2-2.26,2.95a1.32,1.32,0,0,1-.51.4.57.57,0,0,1-.5,0c-.18-.19,0-.31.17-.44a12.88,12.88,0,0,0,1-1.06c.74-.92,1.45-1.87,2.18-2.81C44.43,37.59,44.54,37.31,44.92,37.61Z"></path><path d="M46.91,67.79a4.79,4.79,0,0,1,0,.76c0,.11-.18.2-.28.3a2.09,2.09,0,0,1-.24-.28.52.52,0,0,1,0-.25c0-1.09,0-2.18,0-3.26,0-.07,0-.15,0-.2a1.73,1.73,0,0,1,.21-.25,2.34,2.34,0,0,1,.22.23.25.25,0,0,1,0,.15l.09,2.8Z"></path><path d="M52.7,75.16a3.43,3.43,0,0,1,.08-.48c.27-1,.55-1.91.84-2.86,0-.09.14-.16.21-.24.06.11.18.21.17.31a10.55,10.55,0,0,1-.71,2.89A.49.49,0,0,1,52.7,75.16Z"></path><path d="M60.56,73.67c.11.1.23.16.23.23a8.39,8.39,0,0,1,.14,2.51C60.47,76.08,60.28,74.6,60.56,73.67Z"></path></g></svg>