<svg height='100px' width='100px'  fill="#FFFFFF" xmlns="http://www.w3.org/2000/svg" data-name="Layer 1" viewBox="0 0 100 100" x="0px" y="0px"><title>hand-gestures</title><g><path d="M35.08,99.14c-.12-.33-.22-.67-.36-1a27.15,27.15,0,0,1-1.84-6c-.45-2.33-1.11-4.63-1.7-6.93a32.6,32.6,0,0,1-1-8.11,45.24,45.24,0,0,1,.5-5.45c.08-.6.12-1.2.15-1.8.08-1.29.16-2.58.19-3.87,0-.9,0-1.81-.09-2.71a25.86,25.86,0,0,1,.26-5.56c.16-1.28.34-2.56.45-3.84.15-1.76.25-3.51.37-5.27,0-.21,0-.43,0-.65l.18-4.17c0-.18,0-.37,0-.55,0-1.83.09-3.65.09-5.48,0-1.27-.08-2.55-.12-3.82,0-.55,0-1.11,0-1.66-.08-1.74-.16-3.48-.25-5.22,0-.65-.13-1.3-.13-1.95a25.51,25.51,0,0,0-.57-4.53,28.5,28.5,0,0,1-.47-5.05c0-1.24,0-2.48-.07-3.72A12.39,12.39,0,0,1,31.52,7a3.08,3.08,0,0,1,4.83-1.28,4.61,4.61,0,0,1,1.29,1.46c.46.89.87,1.81,1.28,2.72a16.63,16.63,0,0,1,1,4.4c.28,1.87.54,3.75.88,5.61.57,3.1,1.23,6.18,1.78,9.28.26,1.44.33,2.92.48,4.39s.28,2.8.43,4.19c.08.78.19,1.55.35,2.34.08-.68.16-1.36.25-2,.15-1.23.31-2.46.44-3.69.11-1.07.17-2.14.26-3.21s.25-2.26.34-3.4c.08-.95.11-1.9.17-2.85.08-1.22.18-2.44.26-3.66,0-.36,0-.71,0-1.06.1-3.35.18-6.7.33-10,.07-1.42.28-2.83.48-4.24a7.16,7.16,0,0,1,1.27-3A3,3,0,0,1,49,1.85a5.9,5.9,0,0,1,2.43-.58,3.45,3.45,0,0,1,3,1.86,6,6,0,0,1,.87,3.21c0,1.19-.07,2.38-.1,3.57s0,2.28,0,3.42,0,2-.06,3c0,2.52,0,5,0,7.55,0,.75,0,1.51,0,2.26a34.37,34.37,0,0,1-.25,5.17A11.34,11.34,0,0,0,54.74,33a28,28,0,0,1-.37,4.3,15,15,0,0,0,.06,4.28c.15-.4.31-.79.45-1.19.95-2.71,1.6-5.5,2.3-8.28.5-2,1-4,1.38-6,.59-3,1.1-6,1.65-8.94.25-1.34.49-2.67.8-4a16,16,0,0,1,.7-2.09A3.67,3.67,0,0,1,64.9,8.66a3.38,3.38,0,0,1,3.78,1.83,6.87,6.87,0,0,1,.94,3.75c0,1.33-.11,2.65-.25,4-.3,2.73-.58,5.47-1,8.18s-1,5.55-1.53,8.3S65.63,40,65,42.65c-.3,1.14-.74,2.26-1.14,3.37-.31.85-.68,1.68-1,2.58l.48-.05a3.69,3.69,0,0,1,3.86,1.78.41.41,0,0,1,0,.09,6.06,6.06,0,0,0,1.69,2.3A4.28,4.28,0,0,1,70,55.44a8,8,0,0,1,0,2.8c-.21,1.19-.41,2.38-.68,3.55a12.52,12.52,0,0,1-.72,2.14c-.56,1.25-1.2,2.47-1.78,3.71a7.29,7.29,0,0,0-.39,1.14c-.37,1.37-.65,2.78-1.12,4.12-.82,2.35-1.74,4.67-2.63,7-.11.3-.24.58-.36.88-.38,1-.74,2-1.14,3a2.21,2.21,0,0,0,0,1.88,25.58,25.58,0,0,1,1.13,2.9c.71,2.34,1.35,4.7,2,7.06q.41,1.45.78,2.91a5.59,5.59,0,0,1,.11.59H63.65c-.06-.28-.12-.56-.2-.83L60.9,89.58c-.1-.33-.24-.65-.37-1a1.54,1.54,0,0,0-.26.13A5.83,5.83,0,0,1,57.2,90c-1.31.18-2.62.3-3.94.43-.63,0-1.27.07-1.91.07a11.75,11.75,0,0,1-1.45-.08.45.45,0,0,1-.33-.22c0-.24.2-.22.36-.22h.8A29.61,29.61,0,0,0,58,89a6.45,6.45,0,0,0,2.22-1.26c-.19-.51-.36-1-.56-1.48a3.73,3.73,0,0,1,0-2.93q1.13-2.79,2.19-5.62c.61-1.61,1.19-3.24,1.76-4.87.21-.61.37-1.25.54-1.88a23.52,23.52,0,0,1,1.42-4.43,4.28,4.28,0,0,1-2.16-.39,4.23,4.23,0,0,1-1.51-1.49c-2.32.33-4-1-5.7-2.27l-1.34.84-.06.06-.84.43-1.39.73s0,.1,0,.13A7.9,7.9,0,0,1,54.8,69c.21,1.15.37,2.31.55,3.47l0,.15c0,.18,0,.37-.23.37s-.23-.18-.26-.3c-.12-.59-.19-1.19-.32-1.78-.23-1-.43-2-.73-2.91a8.25,8.25,0,0,0-2.07-3.2l-.82.64a9.51,9.51,0,0,1,.6.92,11,11,0,0,1,1.2,4.89,11.42,11.42,0,0,1-.53,3.47c-.76,2.44-1.51,4.9-2.32,7.33a8.42,8.42,0,0,1-1.06,2C47.94,85.45,47,86.75,46,88a26.53,26.53,0,0,1-2,2.07l-.16.13a.42.42,0,0,1-.59,0c-.17-.14-.14-.37.11-.61a30.56,30.56,0,0,0,4.74-6.28,6.79,6.79,0,0,0,.75-1.53c.88-2.73,1.77-5.45,2.54-8.21a10.34,10.34,0,0,0-.81-7.1c0-.06-.07-.11-.14-.23-.13.18-.24.31-.33.46a13.56,13.56,0,0,1-4.36,4,4.6,4.6,0,0,1-.63.31c-.23.08-.48.14-.62-.14s.07-.4.25-.54c.71-.56,1.42-1.12,2.12-1.69a12.39,12.39,0,0,0,2.23-2.51c.13-.18.26-.36.37-.54A5.5,5.5,0,0,1,52,63.42c.83-.36,1.59-.86,2.39-1.29.6-.33,1.2-.66,1.81-1l5.62-2.91c.14-.08.27-.18.5-.33l-2.15.23a2.71,2.71,0,0,1-2.82-1.8,6.43,6.43,0,0,1-.14-3.23,2,2,0,0,1,.53-.89,15.48,15.48,0,0,1,1.31-1.12,34.89,34.89,0,0,0-5.44,1.68,22,22,0,0,0-3.56,1.63,1.19,1.19,0,0,0-.56.72,6.55,6.55,0,0,0-.26,3,.53.53,0,0,1,0,.25.54.54,0,0,1-.22.23s-.2-.08-.22-.15c-.08-.31-.14-.62-.19-.93a7.44,7.44,0,0,1-.09-1c0-.34.05-.69.07-1.07-.11,0-.19.07-.26.11a40.89,40.89,0,0,0-5,3.31,20.28,20.28,0,0,0-1.74,1.73c-.13.13-.24.28-.36.42s-.33.27-.53.12-.12-.35,0-.53.3-.48.46-.72a9.87,9.87,0,0,1,2.38-2.57c.14-.1.28-.22.33-.26-.41-.47-.81-.9-1.18-1.35a8.53,8.53,0,0,1-.8-1c-.71-1.16-1.39-2.34-2.07-3.51-.17-.31-.3-.64-.44-1s-.15-.41.1-.52.31.11.41.27c.73,1.14,1.44,2.3,2.22,3.41A11.63,11.63,0,0,0,44,55.74c.11.1.21.21.33.3.35.28.42.27.8,0l2.42-1.44.48-.31a6.4,6.4,0,0,1-1.28-2.15c-.52-1.38-1-2.77-1.52-4.15a2,2,0,0,1-.13-.58.32.32,0,0,1,.15-.28c.07,0,.23,0,.28.13a1.7,1.7,0,0,1,.18.46A34.51,34.51,0,0,0,48.07,53c.17.31.37.59.56.89a.86.86,0,0,0,.24-.09,23,23,0,0,1,5-2.29,31.48,31.48,0,0,1,4.39-1.26,21.48,21.48,0,0,0,2.44-.76.55.55,0,0,0,.29-.31c.69-1.79,1.47-3.57,2-5.4a62.73,62.73,0,0,0,1.86-7.41.88.88,0,0,0,0-.22h-.41a10.15,10.15,0,0,1-3.76-.41c-.43-.14-.87-.27-1.29-.43-.13-.05-.31-.22-.31-.33s.24-.26.43-.22c.5.11,1,.21,1.51.36a12.36,12.36,0,0,0,3.36.49c.2,0,.4,0,.62,0a100.74,100.74,0,0,0,1.81-10l-2.56-.24a2,2,0,0,1-.54-.11c-.09,0-.14-.19-.21-.29.1-.06.19-.16.28-.16.54,0,1.07.1,1.6.16l1.47.16L67,24.2s-.07-.07-.09-.07c-.85,0-1.71,0-2.56,0a5.44,5.44,0,0,1-3.16-1l-.41-.26c-.1.49-.2.93-.27,1.38C60,27.66,59.13,31,58.32,34.31c-.54,2.22-1.18,4.4-1.89,6.57a5.15,5.15,0,0,1-1.2,2.18,1.18,1.18,0,0,1-2-.35c-.12-.27-.19-.56-.29-.86a11,11,0,0,1-3.18-.39c-.52-.08-1-.22-1.56-.33-.17,0-.38-.06-.33-.29s.24-.2.41-.17l3.08.45,1.47.16c0-.38,0-.7,0-1a17.29,17.29,0,0,1,.17-4c.1-1,.18-1.9.23-2.86.1-1.75.18-3.51.26-5.27,0-.33,0-.66,0-1A12.31,12.31,0,0,1,49,26.8a2.56,2.56,0,0,1-.64-.27.38.38,0,0,1-.12-.34c0-.09.18-.17.29-.21a.53.53,0,0,1,.3,0,20.91,20.91,0,0,0,3.86.57c.25,0,.49.07.77.11V17c-.36,0-.67.07-1,.07a13,13,0,0,1-3.89-.33,2.06,2.06,0,0,1-.55-.23c-.1-.06-.14-.23-.2-.35.12-.06.26-.18.38-.16.44,0,.89.18,1.33.21,1.22.08,2.44.12,3.66.17.07,0,.13,0,.27-.05,0-.82.08-1.64,0-2.45-.1-2.11,0-4.22.1-6.33a6.55,6.55,0,0,0-.35-3.07c-.07-.15-.14-.3-.22-.45a1.92,1.92,0,0,0-2.46-1c-.28.08-.54.18-.81.28a1.88,1.88,0,0,0-1,.82,6.8,6.8,0,0,0-.93,2.69,74.56,74.56,0,0,0-.51,7.47c-.06,2.36-.12,4.72-.21,7.09,0,1-.15,2.07-.23,3.1,0,.22,0,.44,0,.65a33.79,33.79,0,0,1-.32,4.61c-.13,1.07-.17,2.14-.28,3.21-.13,1.36-.29,2.73-.45,4.09-.14,1.17-.27,2.33-.48,3.49a16,16,0,0,1-.57,2,1,1,0,0,1-.23.39.49.49,0,0,1-.75,0,5.76,5.76,0,0,0-.57-.53,1.85,1.85,0,0,1-.61-1.07c-.15-.69-.25-1.39-.36-2.08-.17-1.1-.35-2.19-.48-3.28-.11-.9-.17-1.8-.22-2.71a42.77,42.77,0,0,0-1.11-6.84c-.69-3.1-1.27-6.23-1.77-9.38-.23-1.47-.36-3-.62-4.42a12.71,12.71,0,0,0-2-4.94,2,2,0,0,0-1.64-1A1.33,1.33,0,0,0,33,7.56a13.14,13.14,0,0,0-.68,2.51,26.79,26.79,0,0,0-.1,3.11c0,.62.06,1.24,0,1.86a32.78,32.78,0,0,0,.43,5.05,2.17,2.17,0,0,0,.07.24c.7,0,1.38.08,2.06.1s1.38,0,2.07,0a18.84,18.84,0,0,1,2-.14c-.07.43-.39.44-.62.48a11.38,11.38,0,0,1-1.54.2,15.9,15.9,0,0,1-3.89-.16c0,.14,0,.28,0,.4a20,20,0,0,1,.47,3.93c.1,2.63.43,5.25.36,7.89,0,.83.12,1.67.13,2.51,0,1.32,0,2.64,0,4,0,1,0,2,0,3,0,1.32-.12,2.64-.17,4,0,.57,0,1.14,0,1.71-.05,1.36-.12,2.71-.18,4.07v.36c.61,0,1.17.05,1.73.11a5.52,5.52,0,0,1,1,.21c.09,0,.13.2.2.3-.09,0-.18.14-.28.15s-.37,0-.55,0H33.34c-.05.33-.09.62-.13.92-.18,1.66-.37,3.32-.55,5a26.2,26.2,0,0,0-.06,4.77c.08,1,.06,2.11,0,3.16s-.07,1.91-.15,2.86c-.1,1.27-.2,2.54-.37,3.8a27.05,27.05,0,0,0,.38,9.45c.06.28.15.48.51.5.8.05,1.6.15,2.4.21l3.61.19c.18,0,.47-.11.5.17s-.27.29-.47.29c-1.06,0-2.11.06-3.17,0-.83,0-1.66-.15-2.5-.22a5.78,5.78,0,0,0-.59,0c0,.16,0,.29.07.41.42,1.64.87,3.27,1.27,4.92.27,1.09.42,2.2.69,3.29s.56,2,.89,2.93.78,2.07,1.18,3.1ZM60.94,22.22c1.9,1.36,4,1.33,6.17,1.35.16-1.15.32-2.2.44-3.26s.21-2.07.29-3.1.19-2.07.21-3.11a5.23,5.23,0,0,0-1-3.16,1.48,1.48,0,0,0-1.36-.71,7.48,7.48,0,0,0-1.46.32,1.3,1.3,0,0,0-.91.81,11.36,11.36,0,0,0-.76,2.06c-.48,2.33-.89,4.67-1.33,7C61.15,21,61.05,21.6,60.94,22.22Zm-.74,35a7.59,7.59,0,0,0,3.2-.63c.64-.33,1.31-.58,2-.88a.79.79,0,0,0,.36-.24A3.11,3.11,0,0,0,66.29,53a9,9,0,0,1-.23-1,2.21,2.21,0,0,0-1.65-1.76,4.13,4.13,0,0,0-2.52.48c-.56.25-1.09.59-1.67.79a4.69,4.69,0,0,0-1.92,1.33,1.39,1.39,0,0,0-.27.62,5.77,5.77,0,0,0,.11,2.15A2,2,0,0,0,60.2,57.25Zm6.54,6.92a3.15,3.15,0,0,1-2.49-.72,1.8,1.8,0,0,1-.7-2.5,4.48,4.48,0,0,1,.66-1.06,2.35,2.35,0,0,1,3.2-.19,2.6,2.6,0,0,1,.25.31c.08.12.14.25.26.45.16-.9.3-1.7.43-2.51a6.79,6.79,0,0,0-.1-2.94,2.43,2.43,0,0,0-.79-1.38,7.91,7.91,0,0,1-.17,1,5.35,5.35,0,0,1-2.81,3.5c-.34.15-.66.33-1,.5s-.61.35-.91.53a.48.48,0,0,0-.29.48c.07.87.1,1.74.17,2.61a12.07,12.07,0,0,0,.22,1.34,2.51,2.51,0,0,0,3,1.9C66.34,65.31,66.51,64.77,66.74,64.17Zm-5.42-4.33-4.47,2.35c.74.38,1.39.74,2.08,1.05a9.81,9.81,0,0,0,1.59.6,5.35,5.35,0,0,0,1.07.07c-.1-.74-.22-1.38-.26-2S61.32,60.56,61.32,59.84ZM67.15,63c0-.28,0-.54,0-.81A8,8,0,0,0,67,61a1.39,1.39,0,0,0-1.8-.87.64.64,0,0,0-.21.14A3.37,3.37,0,0,0,64,62C65.15,63.14,66.23,63.48,67.15,63Z"></path><path d="M33.74,64.91a1.42,1.42,0,0,1,.16.36A29.15,29.15,0,0,1,34.38,71c-.12,1.87-.36,3.73-.54,5.59-.09,1-.15,1.94-.24,2.9-.05.52-.12,1-.21,1.54,0,.11-.17.2-.26.3a1.64,1.64,0,0,1-.27-.32.6.6,0,0,1,0-.3c.06-1,.1-2,.19-3s.22-2.13.33-3.19.17-1.87.27-2.8A21.2,21.2,0,0,0,33.56,67a14.91,14.91,0,0,1-.1-1.5,2.71,2.71,0,0,1,.08-.55Z"></path><path d="M50.54,68.05c-.08.17-.16.29-.21.42-.74,2-2.28,3.28-3.73,4.67a19.9,19.9,0,0,1-5.05,3.15c-.55.29-1.12.54-1.69.78-.17.07-.41.31-.55,0s.16-.32.33-.41l1.69-.89a24.22,24.22,0,0,0,6.74-5.11,9.17,9.17,0,0,0,1.66-2.38,1.64,1.64,0,0,1,.18-.35,2.16,2.16,0,0,1,.38-.27Z"></path><path d="M62.29,71.46a5,5,0,0,1-.08.72,39.65,39.65,0,0,1-3.06,8.15c-.52,1-1,2-1.49,3a7.22,7.22,0,0,1-.65,1,5.11,5.11,0,0,1-.57.57c-.31-.13-.29-.3-.17-.47a36.06,36.06,0,0,0,2.21-4.28,51.46,51.46,0,0,0,3.31-8.23C61.86,71.7,61.86,71.45,62.29,71.46Z"></path><path d="M46.39,84.93a1.91,1.91,0,0,1-.24.42,5.12,5.12,0,0,1-.63.5l-5.09,3.76-.21.14c-.15.1-.32.24-.48,0s0-.35.15-.47c.59-.49,1.18-1,1.77-1.47a23.6,23.6,0,0,1,3.44-2.53c.23-.13.46-.27.7-.38a2.22,2.22,0,0,1,.5-.1Z"></path><path d="M45.78,71.72a5.32,5.32,0,0,1-.45.38,16.76,16.76,0,0,1-5.82,2.51c-.47.11-.95.19-1.42.28-.17,0-.37.07-.42-.15s.17-.29.34-.32a17.29,17.29,0,0,0,3.72-1.17c1-.45,2-1,3-1.49.18-.09.36-.19.54-.27S45.64,71.42,45.78,71.72Z"></path><path d="M38.91,42.6l-2.5-.21c-.2,0-.43-.06-.44-.32s.22-.38.43-.39c.69,0,1.37,0,2.06,0,1.1,0,2.19,0,3.29,0,.07,0,.15,0,.2,0a2.53,2.53,0,0,1,.36.2c-.08.12-.14.3-.24.33a11.57,11.57,0,0,1-1.42.3C40.12,42.57,39.59,42.56,38.91,42.6Z"></path><path d="M37.46,32.35a7.72,7.72,0,0,1-2.89-.21,2.46,2.46,0,0,1-.68-.31.3.3,0,0,1-.09-.29.39.39,0,0,1,.3-.2,2.56,2.56,0,0,1,.54.1,15,15,0,0,0,5.18.1c.18,0,.35-.07.42.14S40.13,32,40,32c-.55.11-1.11.23-1.67.3A4.76,4.76,0,0,1,37.46,32.35Z"></path><path d="M54.82,63.31l.06-.06a2,2,0,0,1,.49.28,2.84,2.84,0,0,1,.44.73c.78,1.76,1.55,3.52,2.29,5.29.13.3.34.63.19,1-.31.1-.34-.12-.42-.3-.73-1.64-1.45-3.28-2.19-4.9-.22-.49-.52-.94-.75-1.42A2.44,2.44,0,0,1,54.82,63.31Z"></path><path d="M49.86,95.43a1.26,1.26,0,0,1,.33-.05,10.94,10.94,0,0,0,1.14.09,17.15,17.15,0,0,0,7.34-1.72c.2-.11.4-.33.75-.11a4.51,4.51,0,0,1-.37.38,7.73,7.73,0,0,1-2.59,1.15,17.52,17.52,0,0,1-5.39.66,8.23,8.23,0,0,1-1.21-.19Z"></path><path d="M41.47,48.06c.38-.15.37.11.42.26.25.72.47,1.46.72,2.18s.61,1.62.92,2.43a3.25,3.25,0,0,1,.17.63.93.93,0,0,1-.09.3,1.07,1.07,0,0,1-.32-.16.76.76,0,0,1-.16-.31q-.8-2.39-1.57-4.79A3,3,0,0,1,41.47,48.06Z"></path><path d="M38.94,71.88a.76.76,0,0,1,.71-.42c.63-.09,1.26-.14,1.89-.21.33,0,.66-.07,1-.14s.35-.07.43.12-.09.33-.25.41a1.34,1.34,0,0,1-.48.15c-.93.08-1.86.14-2.79.2A1.82,1.82,0,0,1,38.94,71.88Z"></path><path d="M57.47,91.3a4.47,4.47,0,0,1-.79.29,10.47,10.47,0,0,1-2.74.15c-.3,0-.6,0-.9,0s-.41,0-.49-.31a2.73,2.73,0,0,1,.38,0c.66,0,1.31,0,2,0s1.38-.18,2.07-.27C57.13,91.05,57.32,90.9,57.47,91.3Z"></path><path d="M57.41,45.53A9,9,0,0,1,60.05,47a1.76,1.76,0,0,1,.24.33.46.46,0,0,1-.61,0c-.66-.45-1.32-.91-2-1.38A1.92,1.92,0,0,1,57.41,45.53Z"></path><path d="M49.67,14.87l2.18.16a7,7,0,0,1,.8.08c.09,0,.16.13.24.19a1.2,1.2,0,0,1-.23.22s-.09,0-.14,0L50,15.35C49.73,15.33,49.6,15.23,49.67,14.87Z"></path><path d="M40.46,55a8.64,8.64,0,0,1-2.37-3.16c.15.09.27.12.33.2.66.82,1.3,1.65,1.94,2.49A1.51,1.51,0,0,1,40.46,55Z"></path><path d="M33.71,59.89a2.73,2.73,0,0,1,.35,1.22,10.08,10.08,0,0,1,.15,1.23c0,.16,0,.39-.2.37s-.21-.22-.25-.36a4,4,0,0,1-.1-.69c-.07-.47-.14-.95-.2-1.43a1,1,0,0,1,.1-.36Z"></path><path d="M56.24,56.93a1.82,1.82,0,0,1-.37-.53,14.45,14.45,0,0,1-.21-1.47c0-.17.06-.35.26-.35s.29.18.29.38a3.49,3.49,0,0,0,.24,1.66c0,.06-.05.18-.08.28Z"></path><path d="M50.79,58.3a3.48,3.48,0,0,1-.41-2.61c.29-.13.4,0,.41.29s0,.63,0,1,.06.66.07,1A1.36,1.36,0,0,1,50.79,58.3Z"></path><path d="M45.22,84.63c-.1.11-.15.19-.21.22a1.69,1.69,0,0,1-.34.09l-1.62.46a1.67,1.67,0,0,1-.31,0c0-.11.06-.28.14-.33a4.57,4.57,0,0,1,2-.6C45,84.44,45.07,84.55,45.22,84.63Z"></path><path d="M40.65,30.32c-.2.09-.28.17-.36.16-.7,0-1.39-.08-2.08-.15-.11,0-.2-.13-.29-.2.1-.08.21-.23.31-.23.5,0,1,.07,1.49.12a2.78,2.78,0,0,1,.49.08A2.5,2.5,0,0,1,40.65,30.32Z"></path><path d="M61.83,37.21a3.31,3.31,0,0,1,2.59-.07c-.09.09-.15.22-.22.22H62S61.9,37.28,61.83,37.21Z"></path><path d="M52.15,39.71a5,5,0,0,1-2.88-.28c.15-.07.25-.16.34-.15.72,0,1.45.1,2.18.17a1.66,1.66,0,0,1,.41.14Z"></path><path d="M37,22.62c-.85.27-1.69.23-2.48.44-.06,0-.15-.09-.23-.14A3.32,3.32,0,0,1,37,22.62Z"></path><path d="M54.32,57.39c0-.3-.11-.61-.13-.91a10.43,10.43,0,0,1,0-1.25c0-.11.16-.2.25-.31,0,.11.16.21.16.32,0,.65,0,1.29,0,1.94,0,.08-.1.16-.15.24Z"></path><path d="M63.27,68.89a2.33,2.33,0,0,1,0,.36c-.08.41-.16.81-.26,1.21a1.08,1.08,0,0,1-.21.28c-.07-.07-.21-.14-.22-.23A2.42,2.42,0,0,1,63,68.87s.09,0,.14,0A.59.59,0,0,1,63.27,68.89Z"></path><path d="M49.09,28.1c.54-.29,1,0,1.56,0,.11,0,.19.15.26.29A2.41,2.41,0,0,1,49.09,28.1Z"></path><path d="M36,86.34a2.62,2.62,0,0,1,1.83-.08c0,.31-.24.29-.42.31C36.47,86.65,36.22,86.61,36,86.34Z"></path><path d="M49.86,60.07c.17.32.35.63.51,1,0,0,0,.1-.09.19-.43-.12-.54-.48-.67-.82,0-.08,0-.21.08-.32Z"></path><path d="M50.91,29.71a1.11,1.11,0,0,1,1.23.17A1.6,1.6,0,0,1,50.91,29.71Z"></path><path d="M58.26,53.79c-.16-.36.06-.49.26-.61.44-.27.89-.52,1.35-.76a20.42,20.42,0,0,1,3.4-1.63,1.62,1.62,0,0,1,.38-.09.3.3,0,0,1,.23.13c0,.07,0,.19-.08.26s-.12.06-.17.1c-1.16.61-2.3,1.23-3.46,1.83-.47.25-1,.48-1.45.69A2.33,2.33,0,0,1,58.26,53.79Z"></path><path d="M65.33,60.63c.11.66-.29,1-.5,1.57-.1-.17-.18-.25-.18-.32A2.27,2.27,0,0,1,65.33,60.63Z"></path></g></svg>