<svg height='100px' width='100px'  fill="#FFFFFF" xmlns="http://www.w3.org/2000/svg" data-name="Layer 1" viewBox="0 0 100 100" x="0px" y="0px"><title>hand-gestures</title><g><path d="M60,99.11c.12-1.29.26-2.59.34-3.89a9,9,0,0,0-.09-1.55A33.43,33.43,0,0,1,60.36,88c.08-.9.12-1.81.22-2.7.13-1.16.33-2.32.47-3.48s.14-2.07.28-3.1c.24-1.83.25-3.66.33-5.5A29.42,29.42,0,0,1,62.14,70c.13-.93.26-1.85.4-2.78.12-.74.2-1.49.39-2.22a50.82,50.82,0,0,0,.81-5,45.67,45.67,0,0,0,.43-7c0-1.5.19-3,.33-4.5a28.65,28.65,0,0,1,.41-3.07A52.56,52.56,0,0,1,67,38.11c.35-1,.7-2,1-2.93.27-.77.51-1.55.76-2.33.34-1.08.68-2.17,1-3.25.19-.64.36-1.29.53-1.94.24-.9.43-1.82.72-2.71.38-1.11.59-2.26.86-3.4.32-1.38.79-2.73,1.08-4.12.37-1.74.65-3.51.91-5.28a3.29,3.29,0,0,0-1-2.76,2.75,2.75,0,0,0-3.68-.32,5.61,5.61,0,0,0-1.72,2.06A19.62,19.62,0,0,0,66.73,13c-.62,1.68-1.2,3.37-1.79,5.06-.07.2-.12.4-.17.58.72,0,1.38,0,2,0a11.94,11.94,0,0,1,1.34.15,3.69,3.69,0,0,1,2,1c.37.34.76.66,1.11,1a2.4,2.4,0,0,1,.43.61c.06.1,0,.26,0,.39a1.24,1.24,0,0,1-.33-.15c-.41-.36-.79-.76-1.2-1.12a5.2,5.2,0,0,0-3.27-1.23,14.78,14.78,0,0,0-1.76,0c-.57,0-.58.08-.76.6-.89,2.56-1.53,5.2-2.57,7.71-.25.61-.43,1.25-.67,1.93a5.16,5.16,0,0,1,1,.07,7.21,7.21,0,0,1,1.47.47c1.13.55,2.23,1.16,3.33,1.76.19.11.48.19.46.52-.2.19-.38.06-.55,0L63.68,30.8a5.34,5.34,0,0,0-2.4-.64l-.34,0c-.49,1.24-1.08,2.45-1.46,3.72a22.88,22.88,0,0,1-3,6.28.5.5,0,0,0,0,.13c2.64.67,4.55,2.52,6.64,4.08,0,0,0,.15.05.22-.25.2-.4,0-.55-.1-.73-.5-1.44-1-2.18-1.52a23.71,23.71,0,0,0-2.32-1.39A14.21,14.21,0,0,0,56.18,41a.56.56,0,0,0-.59.14,4.76,4.76,0,0,1-1.72.91,1.22,1.22,0,0,1-1.63-.81,12.1,12.1,0,0,1-.62-3.69c0-1.12-.19-2.23-.26-3.35,0-.73,0-1.47-.09-2.2-.1-1.43-.23-2.86-.36-4.33a5.87,5.87,0,0,0-.64-.08H48.92c-.17,0-.37,0-.38-.23s.19-.31.38-.3c.45,0,.9.05,1.36.07.17,0,.36,0,.56,0,0-.67,0-1.3,0-1.92-.08-.8-.25-1.59-.36-2.38-.14-1.08-.21-2.17-.4-3.24-.38-2.14-.46-4.32-.73-6.47s-.66-4.16-1.11-6.22a6,6,0,0,0-1.92-3.45,4.62,4.62,0,0,0-.73-.52,1.63,1.63,0,0,0-1.41-.14C42.45,3.41,42,4.12,41.7,6a10.22,10.22,0,0,0,0,1.75c0,1.49.05,3,.11,4.47,0,.76.11,1.52.18,2.35h1.73a16.23,16.23,0,0,0,1.71,0c.56-.07,1.1-.28,1.65-.37s1-.54,1.59-.48a.53.53,0,0,1-.41.52c-.8.3-1.59.59-2.4.85a5.07,5.07,0,0,1-2,.18c-.6-.05-1.2,0-1.87,0,.3,4.35.9,8.67.94,13.08.3,0,.56,0,.83,0,.93-.05,1.87-.09,2.79-.19.63-.07,1.24-.25,1.86-.38.07,0,.14-.07.19,0a1.38,1.38,0,0,1,.34.12c0,.11-.05.26-.14.33a2.42,2.42,0,0,1-.57.31,9.25,9.25,0,0,1-3,.62H43c0,3.58.58,7.1.24,10.66a12.49,12.49,0,0,0,3.89.2c.71-.1,1.4-.29,2.11-.42a.48.48,0,0,1,.38.09c.15.19,0,.3-.18.39a1.37,1.37,0,0,1-.32.16,9.88,9.88,0,0,1-3.92.67c-.51-.06-1-.17-1.53-.25l-.47,0a12.84,12.84,0,0,1-2.1,5.79,15.87,15.87,0,0,0,.82,3.11,1.07,1.07,0,0,0,.31.44,35.57,35.57,0,0,1,3.28,3.1l.4.37c.06-.13.11-.22.15-.32.2-.4.37-.82.59-1.21a5.85,5.85,0,0,0,.72-1.86c.15-.67.44-1.32.66-2a1.36,1.36,0,0,0,.11-.43c0-.64,0-1.27-.06-1.91a.62.62,0,0,1,.14-.39,4.59,4.59,0,0,1,.29,1.92l.56-.82c.29-.44.58-.89.89-1.33a.4.4,0,0,1,.31-.16c.2.07.13.24.05.37-.35.61-.69,1.23-1.07,1.81a9.42,9.42,0,0,0-1.37,3.53,7,7,0,0,1-.65,1.5l-.7,1.5a.52.52,0,0,0,.1.6l3.11,3.54c.06.06.13.1.23.18a1.33,1.33,0,0,0,.3-.23c1.36-1.55,2.71-3.09,4-4.66.4-.47.72-1,1.08-1.51a1.28,1.28,0,0,1,.24-.32c.06-.06.21-.11.25-.07a.38.38,0,0,1,.12.29.92.92,0,0,1-.16.31,21.83,21.83,0,0,1-2.71,3.84c-.86,1-1.71,1.93-2.59,2.94.18.21.37.46.58.69s.56.62.84.93a.62.62,0,0,0,.76.21l2.54-1.18.52-.2c.08.36-.14.44-.3.52-.91.5-1.82,1-2.77,1.49l.63.71c.25.27.52.52.77.79a3.08,3.08,0,0,1,.26.42c-.35.12-.48-.08-.62-.22-.57-.55-1.12-1.11-1.69-1.65-1-1-2.06-1.86-3-2.84s-1.61-1.8-2.44-2.67A36.87,36.87,0,0,0,41,50.05a22.54,22.54,0,0,0-3.62-1.95.22.22,0,0,0-.22,0c.16.14.33.27.48.41.48.47,1,.92,1.42,1.41a2.25,2.25,0,0,1,.57,1.91,3.89,3.89,0,0,1-.8,2c-.29.37-.55.76-.86,1.11a3.1,3.1,0,0,1-2.49,1.09,5.8,5.8,0,0,1-3.92-1.78c-.33-.31-.61-.68-.91-1l-.11.09a.34.34,0,0,0,0,.1,16.78,16.78,0,0,0,2.19,3.11A49.91,49.91,0,0,0,40,63,32,32,0,0,1,42.7,65.2a4.8,4.8,0,0,1,1.35,2.26,5.23,5.23,0,0,0,1.36,2.19c.15.14.43.27.22.52s-.39,0-.57-.09l-.29-.16a8.08,8.08,0,0,0,2.17,3,9.1,9.1,0,0,0,3,2.15l0,.14c-.12,0-.25.13-.34.1a3.37,3.37,0,0,1-.83-.34,16.32,16.32,0,0,1-3.83-3.44,5.77,5.77,0,0,1-1-2.53,1.53,1.53,0,0,0-.42-.79,10.89,10.89,0,0,0,1.39,5,16.52,16.52,0,0,0,3.16,4c-.07.3-.26.26-.43.17A2.35,2.35,0,0,1,47,77c-.94-1.1-1.94-2.17-2.79-3.35a8.31,8.31,0,0,1-1.44-4.58.67.67,0,0,0,0-.24,3.18,3.18,0,0,0-.2,1.64,3,3,0,0,1-.12,1.39c-.14.4.09.77.14,1.15a11.13,11.13,0,0,0,2.83,5.61c.47.54,1,1.06,1.45,1.59a1.68,1.68,0,0,1,.2.34l-.11.12a3,3,0,0,1-.46-.28c-.81-.89-1.61-1.79-2.41-2.69A8.57,8.57,0,0,1,42.2,74c-.1-.4-.13-.82-.23-1.23-.88,1.94-1.74,3.89-1.56,6.16.33-.14.45,0,.51.34.21,1,.41,2.07.68,3.08A5.85,5.85,0,0,0,42.25,84c.66,1.06,1.41,2.07,2.12,3.1.11.17.32.33,0,.57-.15-.15-.31-.29-.45-.44a22.64,22.64,0,0,1-2.57-3.65,6.94,6.94,0,0,1-.69-2.18c-.09-.41-.15-.82-.25-1.23a6.41,6.41,0,0,0,0,2.58,11.53,11.53,0,0,0,1.11,3,.83.83,0,0,0,.07.13c.09.19.17.4-.07.52s-.33,0-.45-.2A8,8,0,0,1,39.94,84a2.81,2.81,0,0,0-.35-.69c0,.34,0,.67,0,1a4.16,4.16,0,0,1,0,.6,1,1,0,0,1-.18.36c-.09-.11-.23-.2-.26-.32a5.86,5.86,0,0,1-.2-1c0-.46,0-.93,0-1.4a.9.9,0,0,1,.06-.34,3,3,0,0,0,.25-1.46c0-1.26.07-2.51.2-3.76a11.47,11.47,0,0,1,.57-2.12,14.15,14.15,0,0,1,1.28-2.93,1.66,1.66,0,0,0,.25-.9,6.92,6.92,0,0,1,.76-3.74.86.86,0,0,0-.24-1.15l-1.92-1.73-.08.06c.09.41.2.8.27,1.21a3.06,3.06,0,0,1-.38,2.41A2.36,2.36,0,0,1,39,69a3.09,3.09,0,0,1-2.89.14,6.13,6.13,0,0,1-1.23-.85c-.89-.86-1.72-1.77-2.6-2.68a7.87,7.87,0,0,1-4.1,1c0,.33.09.63.14.94.44,2.24.86,4.49,1.32,6.74A10.92,10.92,0,0,0,30.18,76c.43,1.14.89,2.27,1.35,3.42.47-.89.92-1.77,1.4-2.64a16,16,0,0,1,1.45-2.5l.15,0a1.51,1.51,0,0,1-.06.37l-2,4.07c-.12.24-.23.48-.36.72s-.22.3-.38.52l.93,2.24c.37.91.76,1.81,1.1,2.74.4,1.12.78,2.24,1.12,3.38s.57,2,.82,3c.06.29.19.4.46.41a10.08,10.08,0,0,0,4.58-.59,15.81,15.81,0,0,1,2.05-.66c1.25-.37,2.51-.71,3.76-1.07a1.36,1.36,0,0,1,.39-.08.39.39,0,0,1,.26.18s0,.2-.1.25a1.33,1.33,0,0,1-.39.21c-.69.25-1.38.51-2.08.74-1.66.56-3.33,1.12-4.93,1.75-.13.14-.23.34-.39.4a7.83,7.83,0,0,1-2.53.53c-.17,0-.42.07-.43-.3l2.49-.42v-.07H35.87c0,.42.07.83.1,1.24,0,.58.09,1.17.1,1.75a.46.46,0,0,0,.37.52c.7.15,1.39.32,2.1.43s1.42.15,2.14.24a1.91,1.91,0,0,1,.45.13v.14a1.25,1.25,0,0,1-.39.15c-.5,0-1,0-1.5-.1q-1.22-.14-2.43-.3a5.37,5.37,0,0,1-.68-.2v2.38h-1.6c0-1.28-.1-2.57-.14-3.86a22.55,22.55,0,0,0-.5-4.63,20.16,20.16,0,0,0-.6-2c-.59-1.72-1.19-3.45-1.83-5.15s-1.4-3.65-2.14-5.46a22,22,0,0,1-1.39-4.55c-.43-2.31-.85-4.63-1.22-7-.15-.94-.16-1.9-.24-2.85-.13-1.6-.25-3.2-.43-4.79a4.86,4.86,0,0,0-.45-1.43,8.58,8.58,0,0,1-.77-4.68,11.72,11.72,0,0,1,1.22-4.06,3.82,3.82,0,0,1,2.24-2l2.24-.83c0-.12-.08-.26-.13-.4a30.29,30.29,0,0,1-1.28-5.56,4.63,4.63,0,0,1,1.7-4.2,7.61,7.61,0,0,1,4.51-1.89,3.46,3.46,0,0,1,3.49,1.72,38.24,38.24,0,0,1,2.61,4.68c0,.11.1.21.18.38a1.91,1.91,0,0,0,.11-.26c.08-1.2.24-2.4.21-3.6-.06-2.44-.24-4.88-.35-7.32,0-.71,0-1.43,0-2.15-.07-1.39-.16-2.77-.25-4.16-.06-1-.13-2-.21-2.95-.11-1.23-.25-2.46-.35-3.69s-.22-2.7-.28-4.05S40.36,9.45,40.33,8c0-.76,0-1.54,0-2.3a5,5,0,0,1,1-2.79,4.88,4.88,0,0,1,2.45-1.59,3.41,3.41,0,0,1,3.26.83A6.15,6.15,0,0,1,48.8,4.38,15.7,15.7,0,0,1,50,8.2c.23,1.32.46,2.64.63,4s.23,2.53.37,3.79.32,2.39.48,3.58c.07.6.11,1.2.19,1.79.16,1.21.34,2.42.5,3.63a4.06,4.06,0,0,1,.06.85,26.54,26.54,0,0,0,.33,4.54A10.25,10.25,0,0,1,52.63,32a25.17,25.17,0,0,0,.19,3c.14,1.12.16,2.26.21,3.4a11.4,11.4,0,0,0,.41,2.22,3.28,3.28,0,0,0,1.67-.93,3.59,3.59,0,0,0,.65-.76A20.29,20.29,0,0,0,58,34.24c.32-1.07.78-2.09,1.18-3.14.09-.23.21-.46.29-.69.85-2.45,1.7-4.9,2.53-7.35,1.1-3.28,2.16-6.58,3.27-9.85a27,27,0,0,1,1.07-2.55A6.89,6.89,0,0,1,68.61,8,4.11,4.11,0,0,1,72,7.21a4.17,4.17,0,0,1,2.55,2,4.64,4.64,0,0,1,.72,3.41c-.32,2-.62,4-1.1,6-.41,1.67-.88,3.32-1.21,5-.13.67-.4,1.31-.59,2s-.38,1.56-.6,2.33c-.31,1.07-.63,2.14-1,3.21-.16.53-.32,1.06-.5,1.58-.37,1.14-.74,2.29-1.14,3.42a79.42,79.42,0,0,0-2.73,8.81,33.82,33.82,0,0,0-.59,4.36c-.2,2.11-.17,4.21-.24,6.32-.06,1.66-.33,3.32-.51,5-.09.88-.17,1.77-.32,2.64-.19,1.14-.48,2.26-.68,3.39-.16.94-.22,1.89-.36,2.84A12.44,12.44,0,0,1,63.47,71a15.86,15.86,0,0,0-.37,3.88,35.05,35.05,0,0,1-.29,4.35c-.13,1.1-.19,2.2-.32,3.3S62.15,84.81,62,86a39.06,39.06,0,0,0-.23,7.41,23.43,23.43,0,0,1-.2,4.74c0,.34,0,.67-.05,1ZM39.89,41.19c.32-.08.35.15.39.34.14.7.28,1.41.41,2.11.09.51.15,1,.24,1.64l.92-1.79a8.64,8.64,0,0,1-.68-1.06,42.73,42.73,0,0,0-2.5-4.91,13.66,13.66,0,0,0-1.25-1.76,1.75,1.75,0,0,0-.87-.53,3.18,3.18,0,0,0-1.93,0,13.79,13.79,0,0,0-2,.83,8.29,8.29,0,0,0-1.32,1.06,2.22,2.22,0,0,0-.31.48,3.89,3.89,0,0,0,.49,0l1.87-.34c.18,0,.35-.11.48.18a2.19,2.19,0,0,1-.43.22c-.74.18-1.49.36-2.24.5-.52.1-.56.07-.65.59a3.3,3.3,0,0,0,0,1c.23,1.26.47,2.53.78,3.78.18.77.49,1.51.75,2.3a4.26,4.26,0,0,1,2.56.32l2.06.64a5.88,5.88,0,0,1,.71.23l2.92,1.45.59.31c0-.25-.06-.38-.1-.5a15.7,15.7,0,0,1-.63-4.2c0-.58-.13-1.16-.17-1.74C39.94,42,39.72,41.6,39.89,41.19ZM34.43,66.33c0-.19-.06-.28-.07-.38a11.39,11.39,0,0,1-.11-1.54,1.65,1.65,0,0,1,1-1.48,2.81,2.81,0,0,1,3.21.54l.37.36a1.06,1.06,0,0,0-.51-.87,7.51,7.51,0,0,1-.72-.54c-1-.91-2.11-1.81-3.15-2.72a23.79,23.79,0,0,1-3.29-3.44A14.5,14.5,0,0,1,29,52.57a4.73,4.73,0,0,1,1-5c.14-.16.31-.29.46-.44a.49.49,0,0,0-.3,0l-1.61.71a2.46,2.46,0,0,0-1.31,1.25,18.2,18.2,0,0,0-.77,1.75,9,9,0,0,0-.4,3.46c.08,1.51,1,2.71,1.31,4.15l.89-.12c-.18-.38-.35-.72-.51-1.07a10.41,10.41,0,0,1-1-2.71c0-.18-.07-.36.13-.42s.31.11.37.3l.06.14c.3.63.59,1.27.92,1.88s.76,1.23,1.05,1.88a45.16,45.16,0,0,0,2.3,4.35A15.39,15.39,0,0,0,34.43,66.33Zm.94-11.19a2.13,2.13,0,0,0,1.78-.77,9.25,9.25,0,0,0,1.09-1.5A2,2,0,0,0,38,50.22a19.28,19.28,0,0,1-1.56-1.7,5.64,5.64,0,0,0-3.37-1.72,1.18,1.18,0,0,0-1,.25,12.24,12.24,0,0,0-1.21,1.06,3.63,3.63,0,0,0-1,3.68.85.85,0,0,0,.29.43c.67.53,1.36,1,2,1.56A5.31,5.31,0,0,0,35.37,55.14ZM31.83,65a38.55,38.55,0,0,1-3.41-6.27l-1,.13.6,6.81A8.51,8.51,0,0,0,31.83,65ZM35,65a5,5,0,0,0,1,2.83,1.45,1.45,0,0,0,.39.3,2.35,2.35,0,0,0,2.54-.3,1.4,1.4,0,0,0,.53-1.38,13.49,13.49,0,0,0-.89-1.68,2.35,2.35,0,0,0-1.74-1.23c-1.19-.1-1.81.34-1.8,1.49Z"></path><path d="M47.19,99.11c0-1.21-.11-2.43-.12-3.65A8.6,8.6,0,0,1,47.25,94c0-.11.14-.19.21-.28a.91.91,0,0,1,.13.33c0,.58-.1,1.16-.09,1.74,0,1,.08,2,.12,3a2.46,2.46,0,0,0,.07.29Z"></path><path d="M45.08,99.11c.08-.51.15-1,.24-1.55,0-.21.09-.42.13-.63h.17a1.52,1.52,0,0,1,.06.47c-.08.57-.2,1.14-.3,1.7Z"></path><path d="M60,73.89a1.59,1.59,0,0,1,.14.4c0,.3,0,.61,0,.91-.05,1.11-.09,2.23-.17,3.35-.15,2.13-.32,4.26-.48,6.39,0,.63-.07,1.26-.12,1.9-.09,1.26-.19,2.53-.27,3.79-.05.77-.13,1.54-.11,2.3a24,24,0,0,1-.36,3.49,4,4,0,0,1-.1.69c0,.11-.18.2-.28.3-.08-.12-.22-.23-.22-.35,0-.56.07-1.13.11-1.69s.13-1.33.18-2c.1-1.32.19-2.63.28-3.95,0-.7.07-1.4.12-2.1.09-1.16.18-2.33.28-3.49.07-.87.14-1.73.22-2.6s.15-1.59.23-2.38c.05-.48.13-1,.17-1.44.07-1.09.13-2.17.21-3.25a2,2,0,0,1,0-.24Z"></path><path d="M50.69,87.86a1.62,1.62,0,0,1-1-.07,12.83,12.83,0,0,1-6.47-4.9c-.09-.12-.24-.3,0-.41s.27.06.36.15c.58.62,1.11,1.3,1.73,1.87a12.93,12.93,0,0,0,5.22,3c.1,0,.18.12.27.18Z"></path><path d="M45.41,55.81c-.17.4-.31.78-.49,1.13a9.87,9.87,0,0,1-2.74,3.22c-.39.29-.74.63-1.11.94a2.12,2.12,0,0,1-.54.36c-.1,0-.27,0-.4-.06,0-.13,0-.31.1-.39a16,16,0,0,1,1.31-1.16,11.57,11.57,0,0,0,2.85-3.07c.22-.34.36-.72.56-1.06a.45.45,0,0,1,.3-.17S45.35,55.71,45.41,55.81Z"></path><path d="M61.69,65.5c0,.3-.1.57-.14.85-.16,1-.31,2-.48,3.05-.11.62-.26,1.24-.41,1.85a1.34,1.34,0,0,1-.25.43l-.11,0a.7.7,0,0,1-.07-.31c.12-1,.22-2.08.4-3.11.15-.82.39-1.62.6-2.42C61.27,65.63,61.31,65.39,61.69,65.5Z"></path><path d="M46.29,42.17c-.66-.06-1.33-.1-2-.19-.21,0-.56,0-.52-.35s.38-.27.62-.25c.68,0,1.36.15,2,.16.87,0,1.74-.06,2.6-.11.16,0,.34-.06.36.13s-.17.25-.28.27c-.57.11-1.15.21-1.72.27-.37,0-.74,0-1.11,0Z"></path><path d="M36.05,90.6l.34,0a6.42,6.42,0,0,0,1-.2c1.12-.42,2.23-.87,3.35-1.3a2,2,0,0,1,.48-.09c0,.38-.31.44-.51.52-.67.29-1.35.56-2,.84-.52.21-1,.44-1.57.62a1.53,1.53,0,0,1-.64,0A.36.36,0,0,1,36.05,90.6Z"></path><path d="M57.69,50.48a1.61,1.61,0,0,1,.37,0,11.34,11.34,0,0,1,2.84,1.33c.14.09.32.21.16.39s-.27,0-.38,0c-.68-.29-1.33-.62-2-.89A8.74,8.74,0,0,0,57.53,51a1.22,1.22,0,0,1-.34-.1c-.07,0-.16-.15-.15-.22s.1-.17.18-.19A2.29,2.29,0,0,1,57.69,50.48Z"></path><path d="M47.27,25.43c.09.27-.1.31-.26.35s-.62.11-.94.14c-.86.1-1.72.2-2.59.27-.13,0-.37-.08-.4-.17s.13-.31.33-.34c.39-.05.79-.11,1.19-.14l2.4-.16A2.16,2.16,0,0,1,47.27,25.43Z"></path><path d="M43.83,60.21c.1-.16.2-.33.31-.48.58-.76,1.17-1.51,1.75-2.26a.69.69,0,0,1,.16-.18c.08,0,.2-.09.26,0s.06.16.06.25a.38.38,0,0,1-.09.18l-1.72,2.39a.63.63,0,0,1-.26.23,1.36,1.36,0,0,1-.41,0Z"></path><path d="M43.42,62.91c0-.07.07-.16.13-.2a23.64,23.64,0,0,0,3.17-2.66s.09,0,.13,0c0,.45-.48,1-1.81,2.09A3.92,3.92,0,0,1,43.5,63Z"></path><path d="M63.43,45.93a1.32,1.32,0,0,1-.4-.11l-2.92-2c-.08-.07-.18-.24-.15-.32s.24-.11.37,0l.35.2,2.54,1.86a2,2,0,0,1,.28.3Z"></path><path d="M66.89,30c-.27.24-.45,0-.62,0a8.7,8.7,0,0,0-2.44-1,4.68,4.68,0,0,1-.54-.1c-.1,0-.17-.17-.25-.26.09-.05.18-.14.27-.15a1.45,1.45,0,0,1,.55,0,9.64,9.64,0,0,1,2.76,1.23A3.25,3.25,0,0,1,66.89,30Z"></path><path d="M70.18,21.65s-.06.05-.09.05a.41.41,0,0,1-.19,0L67.43,20.3s0-.06,0-.17a1.25,1.25,0,0,1,.5,0,7.36,7.36,0,0,1,2.27,1.42S70.18,21.6,70.18,21.65Z"></path><path d="M62.18,60.44c-.11.87-.21,1.7-.33,2.53,0,.05-.11.09-.24.21a6,6,0,0,1,.17-2.29C61.8,60.73,61.75,60.46,62.18,60.44Z"></path><path d="M40.07,57.86A6.23,6.23,0,0,1,41.81,56a.85.85,0,0,1,.33-.1l.07.12L40.37,57.9s-.14,0-.21.07Z"></path><path d="M56.37,64.94a9,9,0,0,1,1.48,2.81,2,2,0,0,1-.66-.87,10,10,0,0,1-.5-.91C56.56,65.66,56.21,65.4,56.37,64.94Z"></path><path d="M45.73,16.08c.12-.11.18-.2.24-.21l2.37-.3s.1.06.18.12c-.25.33-.62.28-.91.29C47,16,46.41,16.33,45.73,16.08Z"></path><path d="M38.65,55.44A10.6,10.6,0,0,1,40,53.62c.12.49-.18.7-.35,1C39.11,55.38,39.1,55.37,38.65,55.44Z"></path><path d="M59.51,52.49a3.34,3.34,0,0,1-2-.84s.12-.13.14-.12c.63.27,1.26.56,1.88.84Z"></path><path d="M32.36,66.49a4.27,4.27,0,0,1-2,.47c.05-.11.08-.26.14-.27.55-.12,1.1-.23,1.66-.32C32.22,66.36,32.29,66.44,32.36,66.49Z"></path><path d="M35.74,38.76c-1,.21-1.91.3-2.87.45l-.07-.13c.08-.08.14-.19.24-.22a4.08,4.08,0,0,1,.77-.17l1.59-.15a1.92,1.92,0,0,1,.32.05Z"></path><path d="M32.93,36.85a1.68,1.68,0,0,1,1.59-.48A3.88,3.88,0,0,1,32.93,36.85Z"></path><path d="M34.32,48.16c.18.08.35.13.51.22a7.76,7.76,0,0,1,2.67,2.73,1,1,0,0,1,.16.47c0,.11-.11.22-.17.33a1.18,1.18,0,0,1-.31-.2c-.19-.29-.34-.61-.53-.9a9.75,9.75,0,0,0-2.19-2.11C34.3,48.58,34.09,48.48,34.32,48.16Z"></path><path d="M33.05,47.07l.75.88c0,.09-.17.12-.29,0a7.33,7.33,0,0,1-.57-.68S33,47.16,33.05,47.07Z"></path><path d="M39,67a4.89,4.89,0,0,1-.5-.52c-.43-.65-.85-1.32-1.26-2a.51.51,0,0,1-.11-.22c0-.07,0-.2,0-.22a.36.36,0,0,1,.27,0,.74.74,0,0,1,.17.24c.47.75.94,1.49,1.4,2.24a1.89,1.89,0,0,1,.13.33Z"></path></g></svg>