<svg height='100px' width='100px'  fill="#FFFFFF" xmlns:x="http://ns.adobe.com/Extensibility/1.0/" xmlns:i="http://ns.adobe.com/AdobeIllustrator/10.0/" xmlns:graph="http://ns.adobe.com/Graphs/1.0/" xmlns="http://www.w3.org/2000/svg" xmlns:xlink="http://www.w3.org/1999/xlink" version="1.1" x="0px" y="0px" viewBox="0 0 100 100" style="enable-background:new 0 0 100 100;" xml:space="preserve"><g><g i:extraneous="self"><g><path d="M70.3,11.3h-9.6v-7c0-1-0.8-1.7-1.7-1.7H41.1c-1,0-1.7,0.8-1.7,1.7v7h-9.6c-4.5,0-8.1,3.6-8.1,8.1v70     c0,4.5,3.6,8.1,8.1,8.1h40.5c4.5,0,8.1-3.6,8.1-8.1v-70C78.4,14.9,74.8,11.3,70.3,11.3z M70.8,89.4c0,0.3-0.2,0.5-0.5,0.5H29.7     c-0.3,0-0.5-0.2-0.5-0.5v-70c0-0.3,0.2-0.5,0.5-0.5h40.5c0.3,0,0.5,0.2,0.5,0.5V89.4z"></path><path d="M65.3,73.3H34.7c-0.5,0-0.9,0.4-0.9,0.9v10.3c0,0.5,0.4,0.9,0.9,0.9h30.7c0.5,0,0.9-0.4,0.9-0.9V74.2     C66.2,73.7,65.8,73.3,65.3,73.3z"></path><path d="M65.3,56.7H34.7c-0.5,0-0.9,0.4-0.9,0.9v10.3c0,0.5,0.4,0.9,0.9,0.9h30.7c0.5,0,0.9-0.4,0.9-0.9V57.6     C66.2,57.1,65.8,56.7,65.3,56.7z"></path><path d="M65.3,40.1H34.7c-0.5,0-0.9,0.4-0.9,0.9v10.3c0,0.5,0.4,0.9,0.9,0.9h30.7c0.5,0,0.9-0.4,0.9-0.9V41     C66.2,40.5,65.8,40.1,65.3,40.1z"></path><path d="M65.3,23.5H34.7c-0.5,0-0.9,0.4-0.9,0.9v10.3c0,0.5,0.4,0.9,0.9,0.9h30.7c0.5,0,0.9-0.4,0.9-0.9V24.4     C66.2,23.9,65.8,23.5,65.3,23.5z"></path></g></g></g></svg>