<svg height='100px' width='100px'  fill="#FFFFFF" xmlns="http://www.w3.org/2000/svg" viewBox="0 0 64 64" x="0px" y="0px"><title>Download</title><g><path d="M40.9014,43.5669a1,1,0,0,1-.12,1.0576l-8,10a1,1,0,0,1-1.5625,0l-8-10A1,1,0,0,1,24,43h3V28a1,1,0,0,1,1-1h8a1,1,0,0,1,1,1V43h3A1,1,0,0,1,40.9014,43.5669ZM49,17c-.2373,0-.48.01-.7354.03a14.9787,14.9787,0,0,0-27.46,2.1543A8.8726,8.8726,0,0,0,19,19a8.9807,8.9807,0,0,0-8.4844,6.0166A7,7,0,0,0,11,39H25V28a3.0033,3.0033,0,0,1,3-3h8a3.0033,3.0033,0,0,1,3,3V39H49a11,11,0,0,0,0-22Z"></path></g></svg>