<svg height='100px' width='100px'  fill="#FFFFFF" xmlns="http://www.w3.org/2000/svg" xmlns:xlink="http://www.w3.org/1999/xlink" version="1.1" x="0px" y="0px" viewBox="0 0 100 100" enable-background="new 0 0 100 100" xml:space="preserve"><g><path fill="#FFFFFF" d="M17.865,31.365c-1.208,0-2.186-0.977-2.186-2.186V7.324c0-1.208,0.979-2.185,2.186-2.185   c1.206,0,2.185,0.977,2.185,2.185V29.18C20.05,30.388,19.071,31.365,17.865,31.365z"></path><path fill="#FFFFFF" d="M17.865,94.862c-1.208,0-2.186-0.979-2.186-2.188V50.499c0-1.207,0.979-2.186,2.186-2.186   c1.206,0,2.185,0.979,2.185,2.186v42.176C20.05,93.884,19.071,94.862,17.865,94.862z"></path><path fill="#FFFFFF" d="M17.865,52.704c-7.089,0-12.854-5.767-12.854-12.854c0-7.088,5.766-12.855,12.854-12.855   c7.088,0,12.854,5.767,12.854,12.855C30.719,46.937,24.953,52.704,17.865,52.704z M17.865,31.365c-4.678,0-8.483,3.805-8.483,8.484   c0,4.678,3.806,8.483,8.483,8.483c4.677,0,8.482-3.805,8.482-8.483C26.348,35.17,22.542,31.365,17.865,31.365z"></path><path fill="#FFFFFF" d="M82.139,94.862c-1.209,0-2.188-0.979-2.188-2.188V40.033c0-1.208,0.979-2.185,2.188-2.185   c1.203,0,2.184,0.977,2.184,2.185v52.642C84.322,93.884,83.342,94.862,82.139,94.862z"></path><path fill="#FFFFFF" d="M82.139,20.864c-1.209,0-2.188-0.977-2.188-2.186V7.324c0-1.208,0.979-2.185,2.188-2.185   c1.203,0,2.184,0.977,2.184,2.185v11.354C84.322,19.887,83.342,20.864,82.139,20.864z"></path><path fill="#FFFFFF" d="M82.139,42.221c-7.09,0-12.857-5.767-12.857-12.855c0-7.088,5.768-12.855,12.857-12.855   c7.086,0,12.852,5.767,12.852,12.855C94.99,36.454,89.225,42.221,82.139,42.221z M82.139,20.881c-4.68,0-8.484,3.806-8.484,8.484   c0,4.679,3.805,8.484,8.484,8.484c4.674,0,8.48-3.806,8.48-8.484C90.619,24.687,86.812,20.881,82.139,20.881z"></path><path fill="#FFFFFF" d="M50,62.593c-1.208,0-2.186-0.979-2.186-2.186V7.324c0-1.208,0.978-2.185,2.186-2.185   c1.207,0,2.185,0.977,2.185,2.185v53.083C52.186,61.614,51.207,62.593,50,62.593z"></path><path fill="#FFFFFF" d="M50,94.862c-1.208,0-2.186-0.979-2.186-2.188V81.749c0-1.205,0.978-2.184,2.186-2.184   c1.207,0,2.185,0.979,2.185,2.184v10.926C52.186,93.884,51.207,94.862,50,94.862z"></path><path fill="#FFFFFF" d="M50,83.935c-7.088,0-12.855-5.768-12.855-12.855S42.912,58.226,50,58.226   c7.089,0,12.855,5.766,12.855,12.854S57.09,83.935,50,83.935z M50,62.597c-4.678,0-8.484,3.807-8.484,8.482   c0,4.678,3.806,8.484,8.484,8.484c4.679,0,8.484-3.807,8.484-8.484C58.484,66.403,54.68,62.597,50,62.597z"></path></g></svg>