<?xml version="1.0" encoding="UTF-8"?>
<svg width="116px" height="116px" viewBox="0 0 116 116" version="1.1" xmlns="http://www.w3.org/2000/svg" xmlns:xlink="http://www.w3.org/1999/xlink">
    <title>Sunnyn</title>
    <defs></defs>
    <g id="Page-1" stroke="none" stroke-width="1" fill="none" fill-rule="evenodd">
        <g id="Sunnyn" fill="#FFFFFF">
            <path d="M61.4627059,95.9187567 C45.7323846,95.9187567 31.8741908,86.4532289 26.1433827,71.8035924 C22.4499833,62.3730279 22.6534063,52.0683802 26.7123314,42.7872045 C30.7712565,33.5092073 38.202554,26.3735089 47.636297,22.683288 C53.8851981,20.2358547 60.6776202,19.4984462 67.3079395,20.5409893 C69.7363019,20.9255859 71.7069625,22.7246083 72.3076961,25.1116504 C72.9116082,27.4986925 72.0311679,30.012874 70.0763998,31.5099404 C62.1651511,37.5363476 59.1710184,48.2065211 62.7913126,57.4654474 C66.4243207,66.759337 75.6578191,72.5854996 85.7590439,71.5969909 C88.1969417,71.36814 90.5649129,72.6236415 91.7377738,74.7850111 C92.9138132,76.9463808 92.6913192,79.6067726 91.162468,81.5392914 C87.0081884,86.7901483 81.5125881,90.8649658 75.263687,93.3092206 C70.8265222,95.0383164 66.1891128,95.9187567 61.4627059,95.9187567 L61.4627059,95.9187567 Z M52.5629484,33.9732661 C52.4167381,34.0273003 52.2673494,34.0813346 52.1179606,34.1417258 C45.7450985,36.6336579 40.7230925,41.4554194 37.9800601,47.7202129 C35.2433847,53.988185 35.1035313,60.9490667 37.5986419,67.3219288 C41.4732149,77.222909 50.8433882,83.6180204 61.4627059,83.6180204 C64.6475477,83.6180204 67.7815337,83.0236438 70.7820234,81.8507829 C70.9059843,81.8031056 71.0331237,81.7554283 71.1507276,81.7045726 C62.2287208,78.2908799 54.9754184,71.2664284 51.3296963,61.947111 C47.7157591,52.6913632 48.3609915,42.5297472 52.5629484,33.9732661 L52.5629484,33.9732661 Z" id="Fill-19"></path>
        </g>
    </g>
</svg>