<?xml version="1.0" encoding="UTF-8"?>
<svg width="116px" height="116px" viewBox="0 0 116 116" version="1.1" xmlns="http://www.w3.org/2000/svg" xmlns:xlink="http://www.w3.org/1999/xlink">
    <title>Clouds</title>
    <defs></defs>
    <g id="Page-1" stroke="none" stroke-width="1" fill="none" fill-rule="evenodd">
        <g id="Clouds" fill="#FFFFFF">
            <path d="M84.4326923,87.3688889 L36.9347308,87.3688889 C23.1886154,87.3688889 12,76.2506667 12,62.5795556 C12,48.5208889 23.7680769,37.1182222 38.1365769,37.8293333 C43.2015,30.4764444 51.6394615,26 60.6819231,26 C73.7627308,26 84.7653462,35.0417778 87.3979615,47.4755556 C97.1701154,48.9368889 104.613692,57.2746667 104.613692,67.3013333 C104.613692,78.3697778 95.5605,87.3688889 84.4326923,87.3688889 L84.4326923,87.3688889 Z M36.9347308,44.88 C27.1125,44.88 19.1252308,52.8195556 19.1252308,62.5795556 C19.1252308,72.3431111 27.1125,80.2897778 36.9347308,80.2897778 L84.4326923,80.2897778 C91.6330385,80.2897778 97.4884615,74.4622222 97.4884615,67.3013333 C97.4884615,60.1475556 91.6330385,54.3235556 84.4326923,54.3235556 L81.2063077,54.3235556 L80.7663462,51.1413333 C79.7361923,40.8444444 71.1050769,33.0791111 60.6819231,33.0791111 C53.4171923,33.0791111 46.6782692,36.9937778 43.0941923,43.3013333 L41.8995,45.4062222 L39.4886538,45.0613333 C38.6588077,44.944 37.8075,44.88 36.9347308,44.88 L36.9347308,44.88 Z" id="Imported-Layers"></path>
        </g>
    </g>
</svg>