<?xml version="1.0" encoding="UTF-8"?>
<svg width="116px" height="116px" viewBox="0 0 116 116" version="1.1" xmlns="http://www.w3.org/2000/svg" xmlns:xlink="http://www.w3.org/1999/xlink">
    <title>Drizzle</title>
    <defs></defs>
    <g id="Page-1" stroke="none" stroke-width="1" fill="none" fill-rule="evenodd">
        <g id="Drizzle">
            <g id="Imported-Layers" transform="translate(14.000000, 22.000000)">
                <path d="M66.1515,56.809 C66.1515,54.924 67.68225,53.39 69.5705,53.39 C76.48,53.39 82.09925,47.77075 82.09925,40.858 C82.09925,33.94525 76.48,28.326 69.5705,28.326 L66.4765,28.326 L66.054,25.245 C65.066,15.30325 56.7785,7.812 46.78475,7.812 C39.81025,7.812 33.3395,11.59825 29.901,17.68225 L28.74725,19.7265 L26.4235,19.382 C25.63375,19.265 24.818,19.21625 23.98925,19.21625 C14.5675,19.21625 6.90075,26.8765 6.90075,36.29825 C6.90075,45.7265 14.5675,53.39 23.98925,53.39 C25.88075,53.39 27.4115,54.924 27.4115,56.809 C27.4115,58.7005 25.88075,60.228 23.98925,60.228 C10.7975,60.228 0.06275,49.49325 0.06275,36.29825 C0.06275,23.10975 10.7975,12.37825 23.98925,12.37825 C24.37925,12.37825 24.766,12.388 25.14625,12.40425 C30.005,5.303 38.104,0.974 46.78475,0.974 C59.33625,0.974 69.889,9.71 72.41425,21.709 C81.797,23.12925 88.93725,31.173 88.93725,40.858 C88.93725,51.5375 80.24675,60.228 69.5705,60.228 C69.5705,60.228 66.1515,58.7005 66.1515,56.809 Z" id="Fill-1" fill="#FFFFFF"></path>
                <path d="M41.11025,72.526 C40.5285,72.526 39.94675,72.37975 39.40725,72.071 C37.76925,71.12525 37.21025,69.03875 38.15275,67.404 L42.706,59.5065 C43.6485,57.86525 45.75125,57.30625 47.3795,58.24875 C49.01425,59.1945 49.5765,61.28425 48.634,62.919 L44.07425,70.81325 C43.44375,71.91175 42.29,72.526 41.11025,72.526" id="Fill-2" fill="#29ABE2"></path>
            </g>
        </g>
    </g>
</svg>