<?xml version="1.0" encoding="UTF-8"?>
<svg width="116px" height="116px" viewBox="0 0 116 116" version="1.1" xmlns="http://www.w3.org/2000/svg" xmlns:xlink="http://www.w3.org/1999/xlink">
    <title>Haze</title>
    <defs></defs>
    <g id="Page-1" stroke="none" stroke-width="1" fill="none" fill-rule="evenodd">
        <g id="Haze">
            <g id="Imported-Layers" transform="translate(6.000000, 19.000000)">
                <path d="M50.7627586,16.511 C48.4066207,16.511 46.5023448,14.5970455 46.5023448,12.2378182 L46.5023448,3.70581818 C46.5023448,1.35018182 48.4066207,-0.556590909 50.7627586,-0.556590909 C53.1153103,-0.556590909 55.0195862,1.35018182 55.0195862,3.70581818 L55.0195862,12.2378182 C55.0195862,14.5970455 53.1153103,16.511 50.7627586,16.511" id="Fill-1" fill="#FFB216"></path>
                <path d="M72.9111724,54.0395909 C70.5622069,54.0395909 68.657931,52.1328182 68.657931,49.7735909 C68.657931,40.3654091 61.0121379,32.7095909 51.6162759,32.7095909 C42.2204138,32.7095909 34.5710345,40.3654091 34.5710345,49.7735909 C34.5710345,52.1328182 32.6631724,54.0395909 30.3106207,54.0395909 C27.958069,54.0395909 26.0537931,52.1328182 26.0537931,49.7735909 C26.0537931,35.6649091 37.5188966,24.1811818 51.6162759,24.1811818 C65.710069,24.1811818 77.1715862,35.6649091 77.1715862,49.7735909 C77.1715862,52.1328182 75.2637241,54.0395909 72.9111724,54.0395909" id="Fill-2" fill="#FFB216"></path>
                <path d="M24.5117241,28.0952727 C23.4215172,28.0952727 22.3313103,27.6823182 21.5028966,26.8492273 L15.4744828,20.8093182 C13.814069,19.1503182 13.814069,16.4463636 15.4744828,14.7837727 C17.1384828,13.1175909 19.8317241,13.1175909 21.4957241,14.7837727 L27.5241379,20.8165 C29.1881379,22.4826818 29.1881379,25.1830455 27.5241379,26.8492273 C26.6921379,27.6823182 25.601931,28.0952727 24.5117241,28.0952727" id="Fill-3" fill="#FFB216"></path>
                <path d="M77.5158621,26.8887273 C76.422069,26.8887273 75.3318621,26.4721818 74.5034483,25.6390909 C72.8394483,23.9729091 72.8430345,21.2725455 74.5070345,19.6063636 L80.5318621,13.5772273 C82.1922759,11.9110455 84.8962759,11.9110455 86.5531034,13.5844091 C88.2171034,15.2505909 88.2135172,17.9509545 86.5495172,19.6171364 L80.5246897,25.6426818 C79.6962759,26.4721818 78.606069,26.8887273 77.5158621,26.8887273" id="Fill-4" fill="#FFB216"></path>
                <path d="M93.7721379,55.7165455 L14.2695172,55.7165455 C11.9169655,55.7165455 10.0091034,53.8061818 10.0091034,51.4505455 C10.0091034,49.0985 11.9169655,47.1881364 14.2695172,47.1881364 L93.7721379,47.1881364 C96.1246897,47.1881364 98.0325517,49.0985 98.0325517,51.4505455 C98.0325517,53.8061818 96.1246897,55.7165455 93.7721379,55.7165455" id="Fill-5" fill="#FFFFFF"></path>
                <path d="M83.5586207,72.7805455 L4.04524138,72.7805455 C1.69268966,72.7805455 -0.215172414,70.8701818 -0.215172414,68.5109545 C-0.215172414,66.1553182 1.69268966,64.2485455 4.04524138,64.2485455 L83.5586207,64.2485455 C85.9075862,64.2485455 87.8154483,66.1553182 87.8154483,68.5109545 C87.8154483,70.8701818 85.9075862,72.7805455 83.5586207,72.7805455" id="Fill-6" fill="#FFFFFF"></path>
            </g>
        </g>
    </g>
</svg>