<?xml version="1.0" encoding="UTF-8"?>
<svg width="116px" height="116px" viewBox="0 0 116 116" version="1.1" xmlns="http://www.w3.org/2000/svg" xmlns:xlink="http://www.w3.org/1999/xlink">
    <title>Hazen</title>
    <defs>
        <polygon id="path-1" points="1.19570968 -0.816666667 89.6847419 -0.816666667 89.6847419 72.4971333 1.19570968 72.4971333"></polygon>
    </defs>
    <g id="Page-1" stroke="none" stroke-width="1" fill="none" fill-rule="evenodd">
        <g id="Hazen">
            <g id="Imported-Layers" transform="translate(8.000000, -1.000000)">
                <g id="Group-3">
                    <mask id="mask-2" fill="white">
                        <use xlink:href="#path-1"></use>
                    </mask>
                    <g id="Clip-2"></g>
                    <path d="M58.8667097,75.5874 C48.8383871,75.5874 39.9927419,69.5375333 36.3339355,60.1687333 C33.9718387,54.1384667 34.1054194,47.5463333 36.6955806,41.6140667 C39.2857419,35.672 44.0229677,31.1052 50.0340968,28.7499333 C54.0252258,27.1884667 58.3389032,26.7148 62.5841613,27.3746667 C64.1415161,27.6131333 65.395871,28.7695333 65.7803226,30.2983333 C66.1680323,31.8238667 65.6076452,33.4376 64.3565484,34.3947333 C59.3065484,38.2396 57.3940645,45.0669333 59.7072903,50.9894 C62.0302903,56.9445333 68.0055806,60.6358667 74.3588065,60.0380667 C75.9617742,59.8878 77.4344194,60.6881333 78.1837742,62.0732 C78.933129,63.4582667 78.7897742,65.1569333 77.8123548,66.3917333 C75.1570323,69.7498667 71.6546129,72.3501333 67.6732581,73.9148667 C64.8354839,75.0288 61.8771613,75.5874 58.8667097,75.5874 L58.8667097,75.5874 Z M53.174871,35.9692667 C53.0803871,36.0052 52.9924194,36.0411333 52.8914194,36.0770667 C48.835129,37.6679333 45.6324516,40.7582 43.882871,44.7598667 C42.1365484,48.7778667 42.0485806,53.2270667 43.6417742,57.3006 C46.1113871,63.6281333 52.0899355,67.718 58.8667097,67.718 C60.8964839,67.718 62.8969355,67.3390667 64.8094194,66.591 C64.8876129,66.5616 64.9625484,66.5289333 65.0407419,66.4962667 C59.3554194,64.3174 54.7322258,59.8257333 52.3994516,53.8608 C50.0862258,47.9383333 50.5,41.4376667 53.174871,35.9692667 L53.174871,35.9692667 Z" id="Fill-1" fill="#CFD1D2" mask="url(#mask-2)"></path>
                </g>
                <path d="M95.2136774,76.5086 L20.5649032,76.5086 C18.3559355,76.5086 16.564,74.7086667 16.564,72.4971333 C16.564,70.2823333 18.3559355,68.4856667 20.5649032,68.4856667 L95.2136774,68.4856667 C97.416129,68.4856667 99.2048065,70.2823333 99.2048065,72.4971333 C99.2048065,74.7086667 97.416129,76.5086 95.2136774,76.5086" id="Fill-4" fill="#FFFFFF"></path>
                <path d="M85.6154194,92.5381333 L10.9633871,92.5381333 C8.75767742,92.5381333 6.96574194,90.7414667 6.96574194,88.5299333 C6.96574194,86.3118667 8.75767742,84.5184667 10.9633871,84.5184667 L85.6154194,84.5184667 C87.8276452,84.5184667 89.6163226,86.3118667 89.6163226,88.5299333 C89.6163226,90.7414667 87.8276452,92.5381333 85.6154194,92.5381333" id="Fill-5" fill="#FFFFFF"></path>
            </g>
        </g>
    </g>
</svg>