<?xml version="1.0" encoding="UTF-8"?>
<svg width="116px" height="116px" viewBox="0 0 116 116" version="1.1" xmlns="http://www.w3.org/2000/svg" xmlns:xlink="http://www.w3.org/1999/xlink">
    <!-- Generator: Sketch 43.1 (39012) - http://www.bohemiancoding.com/sketch -->
    <title>VV</title>
    <desc>Created with Sketch.</desc>
    <defs></defs>
    <g id="Page-1" stroke="none" stroke-width="1" fill="none" fill-rule="evenodd">
        <g id="VV">
            <g id="Imported-Layers-2" transform="translate(10.000000, 24.000000)">
                <path d="M49.4093,62.4906364 C48.066,62.4906364 46.9752,61.4075455 46.9752,60.0620909 L46.9752,51.9725455 C46.9752,50.6270909 48.066,49.544 49.4093,49.544 C50.7526,49.544 51.8434,50.6270909 51.8434,51.9725455 L51.8434,60.0620909 C51.8434,61.4075455 50.7526,62.4906364 49.4093,62.4906364" id="Fill-1" fill="#CFD1D2"></path>
                <path d="M49.4093,62.4906364 C49.1601667,62.4906364 48.9043,62.457 48.6585333,62.3729091 L40.9657,59.8770909 C39.6897333,59.4566364 38.9894667,58.091 39.4035667,56.8094545 C39.8210333,55.5346364 41.198,54.8383636 42.4706,55.2520909 L50.1600667,57.7479091 C51.4394,58.1683636 52.1396667,59.534 51.7255667,60.8088182 C51.3922667,61.8414545 50.4327667,62.4906364 49.4093,62.4906364" id="Fill-2" fill="#CFD1D2"></path>
                <path d="M44.6454667,69.0362727 C44.1505667,69.0362727 43.6489333,68.8781818 43.218,68.562 C42.1305667,67.7749091 41.8915333,66.2545455 42.6827,65.1647273 L47.4431667,58.6291818 C48.2309667,57.5494545 49.7493333,57.3005455 50.8435,58.0977273 C51.9275667,58.8780909 52.1699667,60.4018182 51.3754333,61.4916364 L46.6183333,68.0305455 C46.1402667,68.6864545 45.3996,69.0362727 44.6454667,69.0362727" id="Fill-3" fill="#CFD1D2"></path>
                <path d="M54.1731333,69.0362727 C53.419,69.0362727 52.6783333,68.6864545 52.2002667,68.0305455 L47.4431667,61.4916364 C46.652,60.4018182 46.8910333,58.8780909 47.9784667,58.0977273 C49.0659,57.3005455 50.5876333,57.5494545 51.3754333,58.6291818 L56.1359,65.1647273 C56.9270667,66.2545455 56.6880333,67.7749091 55.6006,68.562 C55.1663,68.8781818 54.6646667,69.0362727 54.1731333,69.0362727" id="Fill-4" fill="#CFD1D2"></path>
                <path d="M49.4093,62.4906364 C48.3824667,62.4906364 47.4263333,61.8414545 47.0930333,60.8088182 C46.6789333,59.534 47.3758333,58.1683636 48.6585333,57.7479091 L56.3614667,55.2520909 C57.6542667,54.8249091 59.0144,55.5413636 59.4285,56.8094545 C59.8426,58.091 59.1457,59.4566364 57.8663667,59.8770909 L50.1600667,62.3729091 C49.9109333,62.457 49.6550667,62.4906364 49.4093,62.4906364" id="Fill-5" fill="#CFD1D2"></path>
                <path d="M74.9084333,63.4627273 C72.8918,63.4627273 71.2589667,61.8347273 71.2589667,59.8165455 C71.2589667,57.8017273 72.8918,56.1703636 74.9084333,56.1703636 C82.2915333,56.1703636 88.3010333,50.173 88.3010333,42.8032727 C88.3010333,35.4234545 82.2915333,29.4193636 74.9084333,29.4193636 L71.6023667,29.4193636 L71.1546,26.1297273 C70.1042,15.5376364 61.2498667,7.53554545 50.5708,7.53554545 C43.1203667,7.53554545 36.2119667,11.5719091 32.5423,18.0670909 L31.3033667,20.2635455 L28.8086667,19.8800909 C27.967,19.7489091 27.0950333,19.6984545 26.2264333,19.6984545 C16.1567333,19.6984545 7.969,27.8754545 7.969,37.926 C7.969,47.9866364 16.1567333,56.1703636 26.2264333,56.1703636 C28.2397,56.1703636 29.8759,57.8017273 29.8759,59.8165455 C29.8759,61.8347273 28.2397,63.4627273 26.2264333,63.4627273 C12.1335667,63.4627273 0.663333333,52.0061818 0.663333333,37.926 C0.663333333,23.8559091 12.1335667,12.4060909 26.2264333,12.4060909 C26.6439,12.4060909 27.0546333,12.4128182 27.4653667,12.4296364 C32.6534,4.85472727 41.299,0.236454545 50.5708,0.236454545 C63.9802333,0.236454545 75.2518333,9.56045455 77.9485333,22.3590909 C87.9711,23.8693636 95.6033333,32.4600909 95.6033333,42.8032727 C95.6033333,54.1959091 86.3180667,63.4627273 74.9084333,63.4627273" id="Fill-6" fill="#99a8ad"></path>
            </g>
        </g>
    </g>
</svg>