<?xml version="1.0" encoding="UTF-8"?>
<svg width="116px" height="116px" viewBox="0 0 116 116" version="1.1" xmlns="http://www.w3.org/2000/svg" xmlns:xlink="http://www.w3.org/1999/xlink">
    <title>Mistn</title>
    <defs>
        <path d="M35.734676,66.7486522 C35.734676,58.6158949 29.189773,52.0314312 21.1108036,52.0314312 L21.0136684,52.0314312 C19.9552296,41.3957681 11.0589847,33.0909783 0.223385204,33.0909783 C0.223385204,33.0909783 6.79843367,1.38975362 33.4201786,-0.320452899 C60.0352245,-2.03403261 58.7490204,41.9219855 57.4762143,51.1375362 C56.2034082,60.3598333 35.734676,66.7486522 35.734676,66.7486522 L35.734676,66.7486522 Z" id="path-1"></path>
    </defs>
    <g id="Page-1" stroke="none" stroke-width="1" fill="none" fill-rule="evenodd">
        <g id="Mistn">
            <g id="Imported-Layers" transform="translate(13.000000, 2.000000)">
                <g id="Group-3" transform="translate(44.543367, 0.000000)">
                    <mask id="mask-2" fill="white">
                        <use xlink:href="#path-1"></use>
                    </mask>
                    <g id="Clip-2"></g>
                    <path d="M30.5161709,57.8535543 C22.5108903,57.8535543 15.4535153,52.9995362 12.5361097,45.4840725 C8.64735204,35.4960616 13.5610536,24.1891341 23.4788929,20.2796087 C26.6542092,19.0281558 30.1142321,18.6402391 33.4871684,19.1765761 C34.7298291,19.3688478 35.734676,20.2931014 36.0461786,21.5175688 C36.3509821,22.7420362 35.9088495,24.0339674 34.907352,24.7996812 C30.8779158,27.8962681 29.353898,33.3776993 31.1994668,38.1271486 C33.0517347,42.8934638 37.7678163,45.8753623 42.8992347,45.3693841 C44.1485944,45.2681884 45.3510612,45.8922283 45.9506199,47.0020072 C46.5501786,48.1117862 46.4396454,49.4745543 45.6558648,50.4662717 C43.5389872,53.1648225 40.7354643,55.2561993 37.5567985,56.5076522 C35.2958929,57.3981739 32.9311531,57.8535543 30.5161709,57.8535543 L30.5161709,57.8535543 Z M25.9843112,26.0713732 C25.9106224,26.0983587 25.8335842,26.1287174 25.7632449,26.1557029 C22.5108903,27.4375145 19.9518801,29.916808 18.5618418,33.1280833 C17.1684541,36.3393587 17.0981148,39.9149384 18.3675714,43.1869312 C20.3404209,48.2602065 25.1134439,51.5423188 30.5161709,51.5423188 C32.1473724,51.5423188 33.7450791,51.2353587 35.2757959,50.631558 C35.3360867,50.6079457 35.3930281,50.5843333 35.4566684,50.560721 C30.9080612,48.8100362 27.213574,45.207471 25.3646556,40.427663 C23.5224362,35.681587 23.8473367,30.4632645 25.9843112,26.0713732 L25.9843112,26.0713732 Z" id="Fill-1" fill="#CFD1D2" mask="url(#mask-2)"></path>
                </g>
                <path d="M74.8820153,81.9785978 C73.9408087,81.9785978 73.006301,81.5569493 72.3832959,80.7541304 C71.2913622,79.36775 71.522477,77.3505833 72.8991173,76.2509239 C75.7327857,74.0043804 77.3438903,70.6345652 77.3438903,67.0117609 C77.3438903,60.5217464 72.1086378,55.2427065 65.6642194,55.2427065 L62.7803087,55.2427065 L62.3850689,52.3485109 C61.4673087,43.0182717 53.7400357,35.9851739 44.4184056,35.9851739 C37.9170459,35.9851739 31.8879643,39.5337681 28.6825026,45.2513225 L27.6106658,47.1706667 L25.4435459,46.8502138 C24.7033087,46.7388986 23.9429745,46.6883007 23.1692423,46.6883007 C14.3835306,46.6883007 7.24241837,53.8833116 7.24241837,62.734558 C7.24241837,67.0218804 8.89371684,71.0528406 11.9049082,74.0785906 C13.1475689,75.3334167 13.1475689,77.3640761 11.9049082,78.6189022 C10.6655969,79.8703551 8.63915561,79.8703551 7.3964949,78.6189022 C3.18618622,74.3754312 0.861640306,68.7354601 0.861640306,62.734558 C0.861640306,49.9839058 11.6335995,39.6855616 24.2477781,40.2961087 C28.7762883,33.6273152 36.3293878,29.5659964 44.4184056,29.5659964 C56.121523,29.5659964 65.9656735,37.7628442 68.3170153,49.0326667 C77.0591837,50.3650761 83.7213189,57.9176449 83.7213189,67.0117609 C83.7213189,72.6112536 81.21925,77.8160833 76.8582143,81.2870942 C76.2720536,81.7525942 75.5753597,81.9785978 74.8820153,81.9785978" id="Fill-4" fill="#FFFFFF"></path>
                <path d="M59.7624184,69.1638551 L32.4506786,69.1638551 C30.6955459,69.1638551 29.2753622,67.73025 29.2753622,65.9626993 C29.2753622,64.1917754 30.6955459,62.7581703 32.4506786,62.7581703 L59.7624184,62.7581703 C61.517551,62.7581703 62.9410842,64.1917754 62.9410842,65.9626993 C62.9410842,67.73025 61.517551,69.1638551 59.7624184,69.1638551" id="Fill-5" fill="#CFD1D2"></path>
                <path d="M52.1289311,81.9617319 L24.8238903,81.9617319 C23.0620587,81.9617319 21.6385255,80.5315 21.6385255,78.7639493 C21.6385255,76.9930254 23.0620587,75.5594203 24.8238903,75.5594203 L52.1289311,75.5594203 C53.8874133,75.5594203 55.3075969,76.9930254 55.3075969,78.7639493 C55.3075969,80.5315 53.8874133,81.9617319 52.1289311,81.9617319" id="Fill-6" fill="#CFD1D2"></path>
                <path d="M59.7624184,94.7731014 L32.4506786,94.7731014 C30.6955459,94.7731014 29.2753622,93.3394964 29.2753622,91.5685725 C29.2753622,89.7976486 30.6955459,88.3674167 32.4506786,88.3674167 L59.7624184,88.3674167 C61.517551,88.3674167 62.9410842,89.7976486 62.9410842,91.5685725 C62.9410842,93.3394964 61.517551,94.7731014 59.7624184,94.7731014" id="Fill-7" fill="#CFD1D2"></path>
            </g>
        </g>
    </g>
</svg>