<?xml version="1.0" encoding="UTF-8"?>
<svg width="116px" height="116px" viewBox="0 0 116 116" version="1.1" xmlns="http://www.w3.org/2000/svg" xmlns:xlink="http://www.w3.org/1999/xlink">
    <title>Mist</title>
    <defs></defs>
    <g id="Page-1" stroke="none" stroke-width="1" fill="none" fill-rule="evenodd">
        <g id="Mist">
            <g id="Imported-Layers" transform="translate(8.000000, 16.000000)">
                <path d="M97.1891667,38.16516 L91.2460667,38.16516 C89.6083667,38.16516 88.2762333,36.8184 88.2762333,35.15496 C88.2762333,33.49848 89.6083667,32.14824 91.2460667,32.14824 L97.1891667,32.14824 C98.8303,32.14824 100.159,33.49848 100.159,35.15496 C100.159,36.8184 98.8303,38.16516 97.1891667,38.16516" id="Fill-1" fill="#FFB216"></path>
                <path d="M64.5381667,12.3018 C62.9004667,12.3018 61.5717667,10.95504 61.5717667,9.2916 L61.5717667,3.2712 C61.5717667,1.61124 62.9004667,0.26448 64.5381667,0.26448 C66.1793,0.26448 67.508,1.61124 67.508,3.2712 L67.508,9.2916 C67.508,10.95504 66.1793,12.3018 64.5381667,12.3018" id="Fill-2" fill="#FFB216"></path>
                <path d="M46.2453667,20.47632 C45.4866,20.47632 44.7278333,20.18052 44.1476,19.5924 L39.9520667,15.33984 C38.7881667,14.1636 38.7881667,12.26004 39.9520667,11.08728 C41.1125333,9.90756 42.9871333,9.90756 44.1476,11.08728 L48.3465667,15.33984 C49.5036,16.51608 49.5036,18.41964 48.3465667,19.5924 C47.7663333,20.18052 47.0041333,20.47632 46.2453667,20.47632" id="Fill-3" fill="#FFB216"></path>
                <path d="M88.2213,61.31412 C87.4625333,61.31412 86.7072,61.0218 86.1269667,60.43716 L81.9245667,56.18808 C80.7606667,55.01532 80.7572333,53.11176 81.9177,51.93552 C83.0713,50.75928 84.9493333,50.7558 86.1166667,51.92856 L90.3156333,56.18112 C91.4761,57.3504 91.4795333,59.25396 90.3225,60.4302 C89.7457,61.0218 88.9800667,61.31412 88.2213,61.31412" id="Fill-4" fill="#FFB216"></path>
                <path d="M83.1777333,19.6272 C82.4155333,19.6272 81.6533333,19.33488 81.0799667,18.74676 C79.9160667,17.57052 79.9195,15.66696 81.0834,14.49072 L85.2858,10.23468 C86.4428333,9.05844 88.3311667,9.0654 89.4779,10.24164 C90.6418,11.4144 90.6383667,13.31796 89.4779,14.4942 L85.2720667,18.75024 C84.6952667,19.33488 83.9330667,19.6272 83.1777333,19.6272" id="Fill-5" fill="#FFB216"></path>
                <path d="M73.8322,51.51444 L70.9241667,46.27008 C74.6768,44.12988 77.0080333,40.107 77.0080333,35.76048 C77.0080333,29.1276 71.6795,23.72664 65.1321333,23.72664 C60.7855333,23.72664 56.7857,26.1348 54.7119667,30.00804 L49.4933,27.1266 C52.6142,21.32196 58.6088,17.70972 65.1321333,17.70972 C74.9549,17.70972 82.9442667,25.80768 82.9442667,35.76048 C82.9442667,42.27504 79.4491333,48.31284 73.8322,51.51444" id="Fill-6" fill="#FFB216"></path>
                <path d="M70.4400667,72.6798 C69.5474,72.6798 68.6650333,72.2796 68.0676333,71.51748 C67.0376333,70.1916 67.2608,68.27064 68.5654667,67.22316 C71.2400333,65.08296 72.7678667,61.8744 72.7678667,58.42572 C72.7678667,52.24176 67.8135667,47.21316 61.7125333,47.21316 L58.9796,47.21316 L58.6088,44.46048 C57.7401667,35.56908 50.4306,28.87008 41.6069333,28.87008 C35.4509667,28.87008 29.7447667,32.25264 26.7131333,37.69884 L25.6934333,39.52584 L23.6471667,39.22308 C22.9467667,39.11172 22.2257667,39.06648 21.4979,39.06648 C13.1789333,39.06648 6.41526667,45.92208 6.41526667,54.34716 C6.41526667,58.43616 7.98773333,62.27112 10.8339667,65.15604 C12.0081667,66.34968 12.0081667,68.28456 10.8339667,69.48168 C9.6529,70.67184 7.74396667,70.67184 6.56633333,69.48168 C2.58023333,65.43792 0.3829,60.06828 0.3829,54.34716 C0.3829,42.54996 9.85546667,32.95212 21.4979,32.95212 C21.8378,32.95212 22.1742667,32.95908 22.5176,32.97648 C26.8024,26.62548 33.9437333,22.7592 41.6069333,22.7592 C52.6828667,22.7592 61.9975,30.56832 64.2223,41.29716 C72.5000667,42.56388 78.8036667,49.76052 78.8036667,58.42572 C78.8036667,63.76056 76.4346667,68.7126 72.3078,72.02208 C71.7516,72.46404 71.0958333,72.6798 70.4400667,72.6798" id="Fill-7" fill="#FFFFFF"></path>
                <path d="M56.1299333,60.47544 L30.2769333,60.47544 C28.6152,60.47544 27.2693333,59.1078 27.2693333,57.42696 C27.2693333,55.74264 28.6152,54.375 30.2769333,54.375 L56.1299333,54.375 C57.7882333,54.375 59.1341,55.74264 59.1341,57.42696 C59.1341,59.1078 57.7882333,60.47544 56.1299333,60.47544" id="Fill-8" fill="#CFD1D2"></path>
                <path d="M48.9062,72.66936 L23.0566333,72.66936 C21.3914667,72.66936 20.0456,71.3052 20.0456,69.62088 C20.0456,67.93308 21.3914667,66.56544 23.0566333,66.56544 L48.9062,66.56544 C50.5645,66.56544 51.9138,67.93308 51.9138,69.62088 C51.9138,71.3052 50.5645,72.66936 48.9062,72.66936" id="Fill-9" fill="#CFD1D2"></path>
                <path d="M56.1299333,84.87024 L30.2769333,84.87024 C28.6152,84.87024 27.2693333,83.5026 27.2693333,81.81828 C27.2693333,80.13396 28.6152,78.7698 30.2769333,78.7698 L56.1299333,78.7698 C57.7882333,78.7698 59.1341,80.13396 59.1341,81.81828 C59.1341,83.5026 57.7882333,84.87024 56.1299333,84.87024" id="Fill-10" fill="#CFD1D2"></path>
            </g>
        </g>
    </g>
</svg>