<?xml version="1.0" encoding="UTF-8"?>
<svg width="116px" height="116px" viewBox="0 0 116 116" version="1.1" xmlns="http://www.w3.org/2000/svg" xmlns:xlink="http://www.w3.org/1999/xlink">
    <title>Rainn</title>
    <defs></defs>
    <g id="Page-1" stroke="none" stroke-width="1" fill="none" fill-rule="evenodd">
        <g id="Rainn">
            <g id="Imported-Layers-2" transform="translate(15.000000, 13.000000)">
                <path d="M68.4667143,58.5952857 C66.6135714,58.5952857 65.1152857,57.0937143 65.1152857,55.2405714 C65.1152857,53.3907143 66.6135714,51.8957143 68.4667143,51.8957143 C75.2254286,51.8957143 80.7355714,46.3921429 80.7355714,39.6137143 C80.7355714,32.8418571 75.2254286,27.3382857 68.4667143,27.3382857 L65.434,27.3382857 L65.0134286,24.3154286 C64.0507143,14.5864286 55.9317143,7.23628571 46.1337143,7.23628571 C39.306,7.23628571 32.9678571,10.9458571 29.5967143,16.9094286 L28.4697143,18.917 L26.196,18.5785714 C25.414,18.4668571 24.6254286,18.411 23.804,18.411 C14.5711429,18.411 7.05671429,25.9188571 7.05671429,35.155 C7.05671429,44.3812857 14.5711429,51.8957143 23.804,51.8957143 C25.6538571,51.8957143 27.1521429,53.3907143 27.1521429,55.2405714 C27.1521429,57.0937143 25.6538571,58.5952857 23.804,58.5952857 C10.878,58.5952857 0.360428571,48.0777143 0.360428571,35.155 C0.360428571,22.229 10.878,11.718 23.804,11.718 C24.1851429,11.718 24.5662857,11.7245714 24.9375714,11.7377143 C29.7018571,4.78514286 37.6368571,0.543285714 46.1337143,0.543285714 C58.4321429,0.543285714 68.7755714,9.09928571 71.2464286,20.8555714 C80.4332857,22.2421429 87.4318571,30.1278571 87.4318571,39.6137143 C87.4318571,50.082 78.9251429,58.5952857 68.4667143,58.5952857" id="Fill-1" fill="#FFFFFF"></path>
                <path d="M35.1824286,58.2502857 C34.6172857,58.2502857 34.0357143,58.1024286 33.5132857,57.8001429 C31.9065714,56.8702857 31.3578571,54.8298571 32.2877143,53.2231429 L36.753,45.4918571 C37.6762857,43.8884286 39.7298571,43.3364286 41.33,44.2662857 C42.9301429,45.183 43.4755714,47.2365714 42.5522857,48.8367143 L38.0837143,56.568 C37.4692857,57.6457143 36.339,58.2502857 35.1824286,58.2502857" id="Fill-2" fill="#29ABE2"></path>
                <path d="M40.5775714,70.6407143 C40.0091429,70.6407143 39.4374286,70.4994286 38.9084286,70.1938571 C37.305,69.2672857 36.7628571,67.2202857 37.6828571,65.6234286 L42.1481429,57.8822857 C43.0714286,56.2854286 45.1282857,55.7334286 46.7251429,56.66 C48.3285714,57.5832857 48.874,59.6302857 47.9507143,61.2337143 L43.4821429,68.965 C42.8644286,70.0394286 41.7374286,70.6407143 40.5775714,70.6407143" id="Fill-3" fill="#29ABE2"></path>
                <path d="M54.0095714,69.1128571 C53.4411429,69.1128571 52.8694286,68.9715714 52.3404286,68.6725714 C50.737,67.7492857 50.1882857,65.699 51.1148571,64.0955714 L55.5768571,56.3642857 C56.5034286,54.7575714 58.557,54.2121429 60.1538571,55.1321429 C61.7572857,56.0554286 62.306,58.109 61.3827143,59.7058571 L56.9174286,67.4404286 C56.2964286,68.5181429 55.1727143,69.1128571 54.0095714,69.1128571" id="Fill-4" fill="#29ABE2"></path>
                <path d="M25.805,74.485 C25.23,74.485 24.6582857,74.3437143 24.1325714,74.0348571 C22.5291429,73.1115714 21.9804286,71.0711429 22.9037143,69.4677143 L27.3755714,61.7331429 C28.2955714,60.1231429 30.3557143,59.5777143 31.9427143,60.501 C33.5494286,61.4275714 34.0981429,63.4811429 33.1715714,65.078 L28.703,72.8092857 C28.082,73.8902857 26.9615714,74.485 25.805,74.485" id="Fill-5" fill="#29ABE2"></path>
                <path d="M31.2034286,86.8852857 C30.635,86.8852857 30.0567143,86.7374286 29.531,86.4417143 C27.9275714,85.5118571 27.3854286,83.4648571 28.3021429,81.8647143 L32.7641429,74.1268571 C33.6874286,72.5234286 35.7508571,71.9812857 37.3411429,72.8947143 C38.9445714,73.8245714 39.4965714,75.8715714 38.5732857,77.475 L34.1047143,85.2095714 C33.487,86.2807143 32.3567143,86.8852857 31.2034286,86.8852857" id="Fill-6" fill="#29ABE2"></path>
                <path d="M44.6354286,85.364 C44.0637143,85.364 43.492,85.2161429 42.9662857,84.9072857 C41.3595714,83.984 40.8141429,81.937 41.744,80.3401429 L46.206,72.6055714 C47.1292857,70.9955714 49.1828571,70.4501429 50.7797143,71.38 C52.3798571,72.3032857 52.9318571,74.3502857 52.0085714,75.9471429 L47.5367143,83.6817143 C46.919,84.7594286 45.792,85.364 44.6354286,85.364" id="Fill-7" fill="#29ABE2"></path>
            </g>
        </g>
    </g>
</svg>