<?xml version="1.0" encoding="UTF-8"?>
<svg width="116px" height="116px" viewBox="0 0 116 116" version="1.1" xmlns="http://www.w3.org/2000/svg" xmlns:xlink="http://www.w3.org/1999/xlink">
    <title>T</title>
    <defs></defs>
    <g id="Page-1" stroke="none" stroke-width="1" fill="none" fill-rule="evenodd">
        <g id="T">
            <g id="Imported-Layers" transform="translate(12.000000, 15.000000)">
                <path d="M41.6540357,53.5416154 C40.362,53.5416154 39.3190714,52.4963846 39.3190714,51.213 L39.3190714,43.4862308 C39.3190714,42.1995385 40.362,41.151 41.6540357,41.151 C42.9460714,41.151 43.989,42.1995385 43.989,43.4862308 L43.989,51.213 C43.989,52.4963846 42.9460714,53.5416154 41.6540357,53.5416154" id="Fill-1" fill="#CFD1D2"></path>
                <path d="M41.6540357,53.5416154 C41.4148929,53.5416154 41.1724286,53.5052308 40.9332857,53.4258462 L33.5397857,51.0376923 C32.3175,50.6407692 31.64325,49.3276154 32.0385,48.1070769 C32.4437143,46.8832308 33.7457143,46.2051538 34.9846071,46.6086923 L42.3747857,49.0034615 C43.6003929,49.4003846 44.2746429,50.7135385 43.87275,51.9307692 C43.5538929,52.9131538 42.6405,53.5416154 41.6540357,53.5416154" id="Fill-2" fill="#CFD1D2"></path>
                <path d="M37.0870714,59.7931538 C36.6054643,59.7931538 36.1271786,59.6476154 35.712,59.3466154 C34.66575,58.5957692 34.4398929,57.1370769 35.2005,56.0951538 L39.7674643,49.8403077 C40.5181071,48.8116154 41.9861786,48.5734615 43.0291071,49.3309231 C44.0687143,50.0916923 44.3012143,51.5437692 43.5406071,52.5823846 L38.9736429,58.8405385 C38.5219286,59.4656923 37.8078214,59.7931538 37.0870714,59.7931538" id="Fill-3" fill="#CFD1D2"></path>
                <path d="M46.221,59.7931538 C45.4936071,59.7931538 44.7795,59.4656923 44.3277857,58.8339231 L39.7674643,52.5823846 C39.0068571,51.5437692 39.2360357,50.0916923 40.2789643,49.3309231 C41.3218929,48.5734615 42.7833214,48.805 43.5406071,49.8436154 L48.1075714,56.0984615 C48.8681786,57.1370769 48.6356786,58.5957692 47.5894286,59.3466154 C47.17425,59.6476154 46.6959643,59.7931538 46.221,59.7931538" id="Fill-4" fill="#CFD1D2"></path>
                <path d="M41.6540357,53.5416154 C40.6675714,53.5416154 39.7541786,52.9131538 39.4353214,51.9307692 C39.0334286,50.7135385 39.7010357,49.4003846 40.9332857,49.0034615 L48.3168214,46.6086923 C49.5357857,46.2084615 50.8577143,46.8832308 51.2562857,48.1070769 C51.6581786,49.3276154 50.9905714,50.6407692 49.7616429,51.0376923 L42.3747857,53.4258462 C42.1389643,53.5052308 41.8931786,53.5416154 41.6540357,53.5416154" id="Fill-5" fill="#CFD1D2"></path>
                <path d="M34.6159286,79.4937692 C33.3238929,79.4937692 32.2809643,78.4518462 32.2809643,77.1684615 L32.2809643,69.4317692 C32.2809643,68.1516923 33.3238929,67.1064615 34.6159286,67.1064615 C35.9046429,67.1064615 36.9508929,68.1516923 36.9508929,69.4317692 L36.9508929,77.1684615 C36.9508929,78.4518462 35.9046429,79.4937692 34.6159286,79.4937692" id="Fill-6" fill="#CFD1D2"></path>
                <path d="M34.6159286,79.4937692 C34.3767857,79.4937692 34.1276786,79.4573846 33.8885357,79.378 L26.5116429,76.9865385 C25.2860357,76.5929231 24.6117857,75.2863846 25.0136786,74.0559231 C25.4089286,72.8320769 26.7275357,72.1573077 27.9597857,72.5674615 L35.3366786,74.9556154 C36.5622857,75.3525385 37.2365357,76.6623846 36.8346429,77.8895385 C36.5157857,78.8686154 35.6023929,79.4937692 34.6159286,79.4937692" id="Fill-7" fill="#CFD1D2"></path>
                <path d="M30.0489643,85.7552308 C29.574,85.7552308 29.0957143,85.6096923 28.6805357,85.3153077 C27.6342857,84.5611538 27.4017857,83.0991538 28.1590714,82.0605385 L32.7227143,75.7990769 C33.48,74.7604615 34.9381071,74.5289231 35.9843571,75.2863846 C37.0272857,76.0306154 37.2631071,77.4926154 36.5025,78.5345385 L31.9421786,84.7926923 C31.4871429,85.4211538 30.7763571,85.7552308 30.0489643,85.7552308" id="Fill-8" fill="#CFD1D2"></path>
                <path d="M39.1895357,85.7552308 C38.4621429,85.7552308 37.7480357,85.4211538 37.293,84.7926923 L32.7227143,78.5345385 C31.96875,77.4959231 32.1946071,76.0372308 33.2408571,75.2896923 C34.2771429,74.5256154 35.7452143,74.7604615 36.5025,75.7990769 L41.0694643,82.0605385 C41.8367143,83.0991538 41.6008929,84.5545385 40.5579643,85.3086923 C40.1427857,85.6096923 39.6611786,85.7552308 39.1895357,85.7552308" id="Fill-9" fill="#CFD1D2"></path>
                <path d="M34.6159286,79.4937692 C33.6294643,79.4937692 32.7094286,78.8686154 32.3905714,77.8895385 C31.9953214,76.6623846 32.6629286,75.3525385 33.8885357,74.9556154 L41.2853571,72.5674615 C42.5176071,72.1606154 43.8328929,72.8320769 44.2281429,74.0559231 C44.6233929,75.2863846 43.9557857,76.5929231 42.7301786,76.9865385 L35.3366786,79.378 C35.0942143,79.4573846 34.8550714,79.4937692 34.6159286,79.4937692" id="Fill-10" fill="#CFD1D2"></path>
                <path d="M58.7926071,70.1164615 C57.5005714,70.1164615 56.4576429,69.0844615 56.4576429,67.7944615 L56.4576429,60.0610769 C56.4576429,58.7776923 57.5005714,57.7390769 58.7926071,57.7390769 C60.078,57.7390769 61.1275714,58.7776923 61.1275714,60.0610769 L61.1275714,67.7944615 C61.1275714,69.0844615 60.078,70.1164615 58.7926071,70.1164615" id="Fill-11" fill="#CFD1D2"></path>
                <path d="M58.7926071,70.1164615 C58.5534643,70.1164615 58.3076786,70.09 58.0652143,70.0106154 L50.6783571,67.6191538 C49.45275,67.2189231 48.7751786,65.9090769 49.1803929,64.6852308 C49.5756429,63.468 50.8776429,62.78 52.1231786,63.1934615 L59.5133571,65.5882308 C60.7389643,65.9818462 61.4065714,67.295 61.0113214,68.5155385 C60.6924643,69.5045385 59.7790714,70.1164615 58.7926071,70.1164615" id="Fill-12" fill="#CFD1D2"></path>
                <path d="M54.219,76.3746154 C53.7473571,76.3746154 53.26575,76.2356923 52.8505714,75.9313846 C51.8076429,75.1805385 51.5718214,73.7251538 52.3324286,72.6832308 L56.8993929,66.4250769 C57.6566786,65.3897692 59.1181071,65.1549231 60.1676786,65.9223077 C61.2072857,66.6698462 61.4397857,68.1285385 60.6791786,69.1671538 L56.1122143,75.4186923 C55.6538571,76.0438462 54.9463929,76.3746154 54.219,76.3746154" id="Fill-13" fill="#CFD1D2"></path>
                <path d="M63.3595714,76.3746154 C62.6321786,76.3746154 61.9247143,76.0438462 61.4663571,75.4186923 L56.8993929,69.1671538 C56.1387857,68.1285385 56.3746071,66.6698462 57.4175357,65.9223077 C58.4571429,65.1549231 59.91525,65.3897692 60.6791786,66.4250769 L65.2494643,72.6832308 C66.00675,73.7251538 65.77425,75.1805385 64.7346429,75.9313846 C64.3194643,76.2356923 63.8345357,76.3746154 63.3595714,76.3746154" id="Fill-14" fill="#CFD1D2"></path>
                <path d="M58.7926071,70.1164615 C57.8061429,70.1164615 56.8861071,69.5045385 56.56725,68.5155385 C56.1653571,67.295 56.8396071,65.9818462 58.0652143,65.5882308 L65.4620357,63.1934615 C66.7009286,62.7899231 68.0128929,63.468 68.4081429,64.6852308 C68.8033929,65.9090769 68.1357857,67.2189231 66.9035357,67.6191538 L59.5133571,70.0106154 C59.2742143,70.09 59.0251071,70.1164615 58.7926071,70.1164615" id="Fill-15" fill="#CFD1D2"></path>
                <path d="M71.6166429,60.7325385 C69.6769286,60.7325385 68.1158571,59.1713077 68.1158571,57.2429231 C68.1158571,55.3145385 69.6769286,53.75 71.6166429,53.75 C78.7078929,53.75 84.4705714,48.0111538 84.4705714,40.9558462 C84.4705714,33.9071538 78.7078929,28.1716154 71.6166429,28.1716154 L68.4446786,28.1716154 L68.0128929,25.0226923 C67.0065,14.8713846 58.5136071,7.224 48.2570357,7.224 C41.1093214,7.224 34.47975,11.0873846 30.9557143,17.3025385 L29.7766071,19.3896923 L27.3951429,19.0456923 C26.5780714,18.9233077 25.7410714,18.8637692 24.8974286,18.8637692 C15.2320714,18.8637692 7.37689286,26.6864615 7.37689286,36.3085385 C7.37689286,45.9306154 15.2320714,53.75 24.8974286,53.75 C26.8305,53.75 28.4015357,55.3145385 28.4015357,57.2429231 C28.4015357,59.1713077 26.8305,60.7325385 24.8974286,60.7325385 C11.3659286,60.7325385 0.362035714,49.7774615 0.362035714,36.3085385 C0.368678571,22.4493077 12.2029286,11.223 26.0798571,11.9143077 C31.062,4.66053846 39.3655714,0.241461538 48.2570357,0.241461538 C61.1275714,0.241461538 71.9487857,9.159 74.5361786,21.4173077 C84.1517143,22.8594615 91.4754643,31.0724615 91.4754643,40.9558462 C91.4754643,51.858 82.5673929,60.7325385 71.6166429,60.7325385" id="Fill-16" fill="#99a8ad"></path>
            </g>
        </g>
    </g>
</svg>