<?xml version="1.0" encoding="UTF-8"?>
<svg width="116px" height="116px" viewBox="0 0 116 116" version="1.1" xmlns="http://www.w3.org/2000/svg" xmlns:xlink="http://www.w3.org/1999/xlink">
    <title>Sunny</title>
    <defs></defs>
    <g id="Page-1" stroke="none" stroke-width="1" fill="none" fill-rule="evenodd">
        <g id="Sunny" fill="#FFB216">
            <g id="Imported-Layers" transform="translate(11.000000, 12.000000)">
                <path d="M47.4966071,71.4467857 C34.2916071,71.4467857 23.5498214,60.705 23.5498214,47.5 C23.5498214,34.2882143 34.2916071,23.5464286 47.4966071,23.5464286 C60.6982143,23.5464286 71.4433929,34.2882143 71.4433929,47.5 C71.4433929,60.705 60.6982143,71.4467857 47.4966071,71.4467857 L47.4966071,71.4467857 Z M47.4966071,31.4416071 C38.6480357,31.4416071 31.4483929,38.6446429 31.4483929,47.5 C31.4483929,56.3485714 38.6480357,63.5482143 47.4966071,63.5482143 C56.3485714,63.5482143 63.5448214,56.3485714 63.5448214,47.5 C63.5448214,38.6446429 56.3485714,31.4416071 47.4966071,31.4416071 L47.4966071,31.4416071 Z" id="Fill-1"></path>
                <path d="M12.7605357,51.4458929 L4.86535714,51.4458929 C2.68714286,51.4458929 0.919464286,49.6782143 0.919464286,47.5 C0.919464286,45.3183929 2.68714286,43.5507143 4.86535714,43.5507143 L12.7605357,43.5507143 C14.93875,43.5507143 16.7098214,45.3183929 16.7098214,47.5 C16.7098214,49.6782143 14.93875,51.4458929 12.7605357,51.4458929" id="Fill-2"></path>
                <path d="M90.1346429,51.4458929 L82.2360714,51.4458929 C80.0544643,51.4458929 78.2867857,49.6782143 78.2867857,47.5 C78.2867857,45.3183929 80.0544643,43.5507143 82.2360714,43.5507143 L90.1346429,43.5507143 C92.31625,43.5507143 94.0805357,45.3183929 94.0805357,47.5 C94.0805357,49.6782143 92.31625,51.4458929 90.1346429,51.4458929" id="Fill-3"></path>
                <path d="M12.7605357,51.4458929 L4.86535714,51.4458929 C2.68714286,51.4458929 0.919464286,49.6782143 0.919464286,47.5 C0.919464286,45.3183929 2.68714286,43.5507143 4.86535714,43.5507143 L12.7605357,43.5507143 C14.93875,43.5507143 16.7098214,45.3183929 16.7098214,47.5 C16.7098214,49.6782143 14.93875,51.4458929 12.7605357,51.4458929" id="Fill-4"></path>
                <path d="M90.1346429,51.4458929 L82.2360714,51.4458929 C80.0544643,51.4458929 78.2867857,49.6782143 78.2867857,47.5 C78.2867857,45.3183929 80.0544643,43.5507143 82.2360714,43.5507143 L90.1346429,43.5507143 C92.31625,43.5507143 94.0805357,45.3183929 94.0805357,47.5 C94.0805357,49.6782143 92.31625,51.4458929 90.1346429,51.4458929" id="Fill-5"></path>
                <path d="M47.4966071,16.7098214 C45.315,16.7098214 43.5473214,14.9421429 43.5473214,12.7639286 L43.5473214,4.87214286 C43.5473214,2.69053571 45.315,0.919464286 47.4966071,0.919464286 C49.6748214,0.919464286 51.4425,2.69053571 51.4425,4.87214286 L51.4425,12.7639286 C51.4425,14.9421429 49.6748214,16.7098214 47.4966071,16.7098214" id="Fill-6"></path>
                <path d="M47.4966071,94.0805357 C45.315,94.0805357 43.5473214,92.3128571 43.5473214,90.13125 L43.5473214,82.2360714 C43.5473214,80.0578571 45.315,78.2867857 47.4966071,78.2867857 C49.6748214,78.2867857 51.4425,80.0578571 51.4425,82.2360714 L51.4425,90.13125 C51.4425,92.3128571 49.6748214,94.0805357 47.4966071,94.0805357" id="Fill-7"></path>
                <path d="M47.4966071,16.7098214 C45.315,16.7098214 43.5473214,14.9421429 43.5473214,12.7639286 L43.5473214,4.87214286 C43.5473214,2.69053571 45.315,0.919464286 47.4966071,0.919464286 C49.6748214,0.919464286 51.4425,2.69053571 51.4425,4.87214286 L51.4425,12.7639286 C51.4425,14.9421429 49.6748214,16.7098214 47.4966071,16.7098214" id="Fill-8"></path>
                <path d="M47.4966071,94.0805357 C45.315,94.0805357 43.5473214,92.3128571 43.5473214,90.13125 L43.5473214,82.2360714 C43.5473214,80.0578571 45.315,78.2867857 47.4966071,78.2867857 C49.6748214,78.2867857 51.4425,80.0578571 51.4425,82.2360714 L51.4425,90.13125 C51.4425,92.3128571 49.6748214,94.0805357 47.4966071,94.0805357" id="Fill-9"></path>
                <path d="M17.3544643,81.5880357 C16.3433929,81.5880357 15.3357143,81.2046429 14.5655357,80.4310714 C13.0217857,78.8907143 13.0217857,76.3901786 14.5655357,74.8464286 L20.1433929,69.2685714 C21.68375,67.7282143 24.1842857,67.7282143 25.7246429,69.2685714 C27.2683929,70.8123214 27.2683929,73.3128571 25.7246429,74.8532143 L20.1433929,80.4310714 C19.3766071,81.2046429 18.3655357,81.5880357 17.3544643,81.5880357" id="Fill-10"></path>
                <path d="M72.0575,26.8782143 C71.0464286,26.8782143 70.0353571,26.4948214 69.2651786,25.72125 C67.7248214,24.1741071 67.7282143,21.6769643 69.2685714,20.1366071 L74.8532143,14.55875 C76.4003571,13.0183929 78.8941071,13.0183929 80.4378571,14.5621429 C81.9782143,16.1058929 81.9748214,18.6030357 80.4344643,20.1467857 L74.8464286,25.7246429 C74.07625,26.4948214 73.0685714,26.8782143 72.0575,26.8782143" id="Fill-11"></path>
                <path d="M17.3544643,81.5880357 C16.3433929,81.5880357 15.3357143,81.2046429 14.5655357,80.4310714 C13.0217857,78.8907143 13.0217857,76.3901786 14.5655357,74.8464286 L20.1433929,69.2685714 C21.68375,67.7282143 24.1842857,67.7282143 25.7246429,69.2685714 C27.2683929,70.8123214 27.2683929,73.3128571 25.7246429,74.8532143 L20.1433929,80.4310714 C19.3766071,81.2046429 18.3655357,81.5880357 17.3544643,81.5880357" id="Fill-12"></path>
                <path d="M72.0575,26.8782143 C71.0464286,26.8782143 70.0353571,26.4948214 69.2651786,25.72125 C67.7248214,24.1741071 67.7282143,21.6769643 69.2685714,20.1366071 L74.8532143,14.55875 C76.4003571,13.0183929 78.8941071,13.0183929 80.4378571,14.5621429 C81.9782143,16.1058929 81.9748214,18.6030357 80.4344643,20.1467857 L74.8464286,25.7246429 C74.07625,26.4948214 73.0685714,26.8782143 72.0575,26.8782143" id="Fill-13"></path>
                <path d="M22.9357143,26.8782143 C21.9280357,26.8782143 20.9135714,26.4948214 20.1433929,25.72125 L14.5621429,20.1433929 C13.0183929,18.5996429 13.0183929,16.1058929 14.5621429,14.5621429 C16.0957143,13.0183929 18.5996429,13.015 20.1433929,14.5621429 L25.7246429,20.14 C27.2683929,21.6803571 27.2683929,24.1741071 25.7246429,25.72125 C24.9544643,26.4948214 23.9467857,26.8782143 22.9357143,26.8782143" id="Fill-14"></path>
                <path d="M77.6455357,81.5880357 C76.6344643,81.5880357 75.6267857,81.2046429 74.8532143,80.4310714 L69.2685714,74.8566071 C67.7282143,73.3128571 67.7248214,70.8157143 69.2651786,69.2719643 C70.8055357,67.7282143 73.3026786,67.7282143 74.8464286,69.2685714 L80.4344643,74.8464286 C81.9748214,76.3867857 81.9782143,78.8907143 80.4378571,80.4310714 C79.6642857,81.20125 78.6566071,81.5880357 77.6455357,81.5880357" id="Fill-15"></path>
                <path d="M22.9357143,26.8782143 C21.9280357,26.8782143 20.9135714,26.4948214 20.1433929,25.72125 L14.5621429,20.1433929 C13.0183929,18.5996429 13.0183929,16.1058929 14.5621429,14.5621429 C16.0957143,13.0183929 18.5996429,13.015 20.1433929,14.5621429 L25.7246429,20.14 C27.2683929,21.6803571 27.2683929,24.1741071 25.7246429,25.72125 C24.9544643,26.4948214 23.9467857,26.8782143 22.9357143,26.8782143" id="Fill-16"></path>
                <path d="M77.6455357,81.5880357 C76.6344643,81.5880357 75.6267857,81.2046429 74.8532143,80.4310714 L69.2685714,74.8566071 C67.7282143,73.3128571 67.7248214,70.8157143 69.2651786,69.2719643 C70.8055357,67.7282143 73.3026786,67.7282143 74.8464286,69.2685714 L80.4344643,74.8464286 C81.9748214,76.3867857 81.9782143,78.8907143 80.4378571,80.4310714 C79.6642857,81.20125 78.6566071,81.5880357 77.6455357,81.5880357" id="Fill-17"></path>
            </g>
        </g>
    </g>
</svg>