<?xml version="1.0" encoding="UTF-8"?>
<svg width="116px" height="116px" viewBox="0 0 116 116" version="1.1" xmlns="http://www.w3.org/2000/svg" xmlns:xlink="http://www.w3.org/1999/xlink">
    <title>Thunderstormn</title>
    <defs></defs>
    <g id="Page-1" stroke="none" stroke-width="1" fill="none" fill-rule="evenodd">
        <g id="Thunderstormn">
            <g id="Imported-Layers-2" transform="translate(14.000000, 11.000000)">
                <path d="M24.6180357,57.7322759 C24.05225,57.7322759 23.4801071,57.5863448 22.9556429,57.2817931 C21.3631786,56.3617931 20.8196429,54.3377931 21.73825,52.742069 L26.1818929,45.0775172 C27.0973214,43.4881379 29.1411429,42.9456552 30.72725,43.8656552 C32.3197143,44.7824828 32.86325,46.8128276 31.9414643,48.3990345 L27.501,56.069931 C26.8843571,57.1358621 25.7655,57.7322759 24.6180357,57.7322759" id="Fill-1" fill="#29ABE2"></path>
                <path d="M29.9802857,70.0285517 C29.4145,70.0285517 28.8455357,69.8826207 28.3178929,69.5748966 C26.7254286,68.6644138 26.1818929,66.6277241 27.1036786,65.0415172 L31.5409643,57.3706207 C32.4595714,55.7844138 34.4938571,55.241931 36.0895,56.1651034 C37.6787857,57.081931 38.2255,59.1122759 37.3037143,60.6984828 L32.86325,68.3662069 C32.2497857,69.4289655 31.1309286,70.0285517 29.9802857,70.0285517" id="Fill-2" fill="#29ABE2"></path>
                <path d="M21.11525,85.1546207 C20.5494643,85.1546207 19.9805,85.0086897 19.4528571,84.7073103 C17.8635714,83.7968276 17.3168571,81.7601379 18.2354643,80.173931 L22.67275,72.5062069 C23.5913571,70.9136552 25.6288214,70.368 27.2181071,71.2911724 C28.8105714,72.2016552 29.3572857,74.2415172 28.4386786,75.8213793 L24.0013929,83.4954483 C23.38475,84.5582069 22.2658929,85.1546207 21.11525,85.1546207" id="Fill-3" fill="#29ABE2"></path>
                <path d="M15.4128929,74.1082759 C14.8471071,74.1082759 14.2749643,73.9623448 13.7505,73.6641379 C12.1580357,72.7441379 11.6145,70.7137931 12.5362857,69.1275862 L16.9735714,61.4566897 C17.889,59.8704828 19.9264643,59.3184828 21.5221071,60.2448276 C23.1113929,61.1616552 23.6581071,63.1983448 22.7363214,64.7845517 L18.2958571,72.4522759 C17.6792143,73.5118621 16.5603571,74.1082759 15.4128929,74.1082759" id="Fill-4" fill="#29ABE2"></path>
                <polyline id="Fill-5" fill="#FFB216" points="52.84375 69.6954483 64.881 50.4833103 52.0586429 50.4833103 40.8096786 69.6954483 52.84375 69.6954483"></polyline>
                <path d="M52.84375,70.8977931 L40.8096786,70.8977931 C40.3773929,70.8977931 39.9800714,70.6725517 39.7671071,70.2950345 C39.5509643,69.9238621 39.5541429,69.4606897 39.7702857,69.0895172 L51.0224286,49.8742069 C51.2353929,49.5093793 51.6327143,49.2841379 52.0586429,49.2841379 L64.881,49.2841379 C65.3196429,49.2841379 65.7201429,49.5188966 65.9331071,49.8995862 C66.1460714,50.2834483 66.1333571,50.7497931 65.9013214,51.1177931 L53.8608929,70.3362759 C53.6415714,70.6852414 53.2569643,70.8977931 52.84375,70.8977931 L52.84375,70.8977931 Z M42.9043571,68.4994483 L52.17625,68.4994483 L62.7100357,51.6824828 L52.7483929,51.6824828 L42.9043571,68.4994483 L42.9043571,68.4994483 Z" id="Fill-6" fill="#FFB216"></path>
                <polyline id="Fill-7" fill="#FFB216" points="42.4148571 85.7129655 55.2658214 63.2966897 68.0881786 63.2966897 42.4148571 85.7129655"></polyline>
                <path d="M42.4148571,86.9089655 C42.1478571,86.9089655 41.8745,86.8201379 41.652,86.6393103 C41.1974643,86.2649655 41.0798571,85.6241379 41.3722857,85.1165517 L54.2200714,62.7002759 C54.4330357,62.3227586 54.8367143,62.0975172 55.2658214,62.0975172 L68.0881786,62.0975172 C68.5903929,62.0975172 69.04175,62.4052414 69.2165714,62.8684138 C69.3913929,63.337931 69.2610714,63.8677241 68.8828214,64.1976552 L43.2095,86.613931 C42.9806429,86.8137931 42.69775,86.9089655 42.4148571,86.9089655 L42.4148571,86.9089655 Z M55.9619286,64.4958621 L47.0206071,80.0914483 L64.8841786,64.4958621 L55.9619286,64.4958621 L55.9619286,64.4958621 Z" id="Fill-8" fill="#FFB216"></path>
                <path d="M77.3028571,54.7406897 C76.3206786,54.7406897 75.3480357,54.306069 74.69325,53.478069 C73.5489643,52.0409655 73.7968929,49.9503448 75.2367857,48.8146207 C78.1833214,46.4892414 79.8711429,43.0027586 79.8711429,39.2497931 C79.8711429,32.5337931 74.4008214,27.074069 67.6717857,27.074069 L64.6553214,27.074069 L64.2484643,24.0729655 C63.2917143,14.4224828 55.2245,7.1417931 45.4885357,7.1417931 C38.69275,7.1417931 32.396,10.8122759 29.0521429,16.732 L27.9301071,18.717931 L25.6669643,18.3816552 C24.89775,18.2674483 24.0999286,18.2135172 23.29575,18.2135172 C14.1192143,18.2135172 6.65592857,25.6655172 6.65592857,34.8211034 C6.65592857,39.2624828 8.38825,43.4310345 11.5286786,46.5685517 C12.8318929,47.8597241 12.8318929,49.9693793 11.5286786,51.2605517 C10.2286429,52.558069 8.12442857,52.558069 6.82439286,51.2605517 C2.42207143,46.869931 0,41.0263448 0,34.8211034 C0,22.0013793 10.4511429,11.5768276 23.29575,11.5768276 C23.6708214,11.5768276 24.0458929,11.5831724 24.4209643,11.6022069 C29.1506786,4.7022069 37.0367143,0.495586207 45.4885357,0.495586207 C57.7101429,0.495586207 67.9896429,8.9817931 70.4466786,20.6404138 C79.5755357,22.0235862 86.5270714,29.8404138 86.5270714,39.2497931 C86.5270714,45.0457931 83.9174643,50.4293793 79.36575,54.0237241 C78.7522857,54.505931 78.0243929,54.7406897 77.3028571,54.7406897" id="Fill-9" fill="#FFFFFF"></path>
            </g>
        </g>
    </g>
</svg>